<?xml version="1.0" encoding="UTF-8"?><svg id="a" xmlns="http://www.w3.org/2000/svg" width="5.375in" height="5.875in" viewBox="0 0 387 423"><rect x="4.592" y="93.917" width="281.864" height="306.042" fill="#f1f1f1" stroke="#000" stroke-miterlimit="10" stroke-width=".5"/><path d="M61.234,21.019l.947.239c-.199.778-.556,1.371-1.072,1.78s-1.146.613-1.892.613c-.771,0-1.399-.157-1.882-.471s-.851-.769-1.104-1.365-.378-1.235-.378-1.919c0-.746.143-1.396.427-1.951s.69-.977,1.216-1.265,1.104-.432,1.736-.432c.716,0,1.318.182,1.807.547s.829.877,1.021,1.538l-.933.22c-.166-.521-.407-.9-.723-1.138s-.713-.356-1.191-.356c-.55,0-1.01.132-1.379.396s-.629.618-.779,1.062-.225.902-.225,1.375c0,.609.089,1.14.266,1.594s.453.793.828,1.018.78.337,1.216.337c.531,0,.98-.153,1.348-.459s.617-.76.747-1.362Z"/><path d="M62.909,20.936c0-.96.267-1.671.801-2.134.446-.384.99-.576,1.631-.576.713,0,1.295.233,1.748.701s.679,1.112.679,1.936c0,.667-.1,1.192-.3,1.575s-.492.68-.874.891-.8.317-1.252.317c-.726,0-1.312-.233-1.76-.698s-.671-1.136-.671-2.012ZM63.812,20.936c0,.664.145,1.161.435,1.492s.654.496,1.094.496c.436,0,.799-.166,1.089-.498s.435-.838.435-1.519c0-.641-.146-1.127-.437-1.458s-.653-.496-1.086-.496c-.439,0-.804.165-1.094.493s-.435.825-.435,1.489Z"/><path d="M68.798,23.528v-5.186h.791v.737c.381-.57.931-.854,1.65-.854.312,0,.6.056.862.168s.458.26.588.442.221.399.273.649c.033.163.049.448.049.854v3.188h-.879v-3.154c0-.358-.034-.626-.103-.803s-.189-.319-.364-.425-.378-.159-.613-.159c-.375,0-.697.119-.969.356s-.408.688-.408,1.353v2.832h-.879Z"/><path d="M74.008,21.98l.869-.137c.049.348.185.615.408.801s.535.278.935.278c.404,0,.703-.082.898-.247s.293-.357.293-.579c0-.199-.086-.355-.259-.469-.121-.078-.42-.177-.898-.298-.645-.163-1.091-.304-1.34-.422s-.438-.283-.566-.493-.193-.442-.193-.696c0-.231.053-.445.159-.642s.25-.36.432-.491c.137-.101.323-.187.559-.256s.489-.105.759-.105c.407,0,.764.059,1.072.176s.535.276.681.476.248.468.303.803l-.859.117c-.039-.267-.152-.475-.339-.625s-.452-.225-.793-.225c-.404,0-.692.067-.864.2s-.259.29-.259.469c0,.114.036.216.107.308.072.094.184.172.337.234.088.033.347.107.776.225.622.166,1.056.302,1.301.408s.438.26.579.461.21.453.21.752c0,.293-.085.569-.256.828s-.417.459-.74.601-.687.212-1.094.212c-.674,0-1.188-.14-1.541-.42s-.579-.695-.676-1.245Z"/><path d="M79.032,20.936c0-.96.267-1.671.801-2.134.446-.384.99-.576,1.631-.576.713,0,1.295.233,1.748.701s.679,1.112.679,1.936c0,.667-.1,1.192-.3,1.575s-.492.68-.874.891-.8.317-1.252.317c-.726,0-1.312-.233-1.76-.698s-.671-1.136-.671-2.012ZM79.936,20.936c0,.664.145,1.161.435,1.492s.654.496,1.094.496c.436,0,.799-.166,1.089-.498s.435-.838.435-1.519c0-.641-.146-1.127-.437-1.458s-.653-.496-1.086-.496c-.439,0-.804.165-1.094.493s-.435.825-.435,1.489Z"/><path d="M84.901,23.528v-7.158h.879v7.158h-.879Z"/><path d="M90.692,21.858l.908.112c-.143.531-.409.942-.796,1.235s-.882.439-1.484.439c-.758,0-1.36-.233-1.804-.701s-.667-1.122-.667-1.965c0-.873.225-1.549.674-2.031s1.032-.723,1.748-.723c.693,0,1.26.236,1.699.708s.659,1.136.659,1.992c0,.052-.001.13-.005.234h-3.867c.033.57.194,1.006.483,1.309s.651.454,1.084.454c.322,0,.597-.084.825-.254s.409-.439.542-.811ZM87.807,20.438h2.896c-.039-.436-.15-.763-.332-.981-.28-.338-.643-.508-1.089-.508-.404,0-.743.135-1.018.405s-.427.631-.457,1.084Z"/><path d="M98.866,22.889c-.326.277-.639.472-.94.586s-.624.171-.969.171c-.57,0-1.007-.139-1.313-.417s-.459-.634-.459-1.067c0-.254.058-.486.173-.696s.267-.378.454-.505.398-.223.632-.288c.172-.045.433-.089.781-.132.709-.084,1.232-.186,1.567-.303.003-.121.005-.197.005-.229,0-.358-.083-.61-.249-.757-.225-.199-.558-.298-1.001-.298-.414,0-.719.072-.916.217s-.343.401-.437.769l-.859-.117c.078-.368.207-.665.386-.891s.438-.4.776-.522.731-.183,1.177-.183c.443,0,.802.052,1.079.156s.48.235.61.393.221.357.273.598c.029.15.044.42.044.811v1.172c0,.817.019,1.334.056,1.55s.111.424.222.623h-.918c-.091-.182-.15-.396-.176-.64ZM98.793,20.926c-.319.13-.797.241-1.436.332-.361.052-.617.111-.767.176s-.265.16-.347.286-.122.265-.122.417c0,.234.089.43.266.586s.437.234.779.234c.338,0,.64-.074.903-.222s.458-.351.581-.608c.094-.199.142-.492.142-.879v-.322Z"/><path d="M100.883,23.958l.854.127c.036.264.135.456.298.576.218.163.516.244.894.244.407,0,.721-.082.942-.244s.371-.391.449-.684c.045-.179.067-.555.063-1.128-.384.453-.863.679-1.436.679-.713,0-1.265-.257-1.655-.771s-.586-1.131-.586-1.851c0-.495.089-.951.269-1.37s.438-.741.779-.969.74-.342,1.199-.342c.612,0,1.117.248,1.514.742v-.625h.811v4.482c0,.807-.082,1.379-.247,1.716s-.425.603-.781.798-.795.293-1.316.293c-.619,0-1.118-.139-1.499-.417s-.565-.697-.552-1.257ZM101.61,20.843c0,.68.135,1.177.405,1.489s.609.469,1.016.469c.404,0,.742-.155,1.016-.466s.41-.798.41-1.462c0-.635-.141-1.113-.422-1.436s-.621-.483-1.018-.483c-.391,0-.723.159-.996.476s-.41.789-.41,1.414Z"/><path d="M110.155,21.858l.908.112c-.143.531-.409.942-.796,1.235s-.882.439-1.484.439c-.758,0-1.36-.233-1.804-.701s-.667-1.122-.667-1.965c0-.873.225-1.549.674-2.031s1.032-.723,1.748-.723c.693,0,1.26.236,1.699.708s.659,1.136.659,1.992c0,.052-.001.13-.005.234h-3.867c.033.57.194,1.006.483,1.309s.651.454,1.084.454c.322,0,.597-.084.825-.254s.409-.439.542-.811ZM107.27,20.438h2.896c-.039-.436-.15-.763-.332-.981-.28-.338-.643-.508-1.089-.508-.404,0-.743.135-1.018.405s-.427.631-.457,1.084Z"/><path d="M112.167,23.528v-5.186h.791v.737c.381-.57.931-.854,1.65-.854.312,0,.6.056.862.168s.458.26.588.442.221.399.273.649c.033.163.049.448.049.854v3.188h-.879v-3.154c0-.358-.034-.626-.103-.803s-.189-.319-.364-.425-.378-.159-.613-.159c-.375,0-.697.119-.969.356s-.408.688-.408,1.353v2.832h-.879Z"/><path d="M119.647,22.742l.127.776c-.248.052-.469.078-.664.078-.319,0-.566-.05-.742-.151s-.299-.233-.371-.398-.107-.51-.107-1.038v-2.983h-.645v-.684h.645v-1.284l.874-.527v1.812h.884v.684h-.884v3.032c0,.25.016.412.046.483s.082.128.151.171.17.063.3.063c.098,0,.226-.011.386-.034Z"/><path d="M190.715,12.072l.947.239c-.199.778-.556,1.371-1.072,1.78-.516.409-1.146.613-1.892.613-.771,0-1.399-.157-1.883-.471s-.851-.769-1.104-1.365c-.252-.596-.378-1.235-.378-1.919,0-.746.143-1.396.427-1.951.285-.555.69-.977,1.216-1.265.526-.288,1.104-.432,1.736-.432.716,0,1.318.182,1.807.547s.828.877,1.021,1.538l-.933.22c-.166-.521-.407-.9-.723-1.138-.316-.238-.713-.356-1.191-.356-.551,0-1.01.132-1.38.396-.369.264-.629.618-.778,1.062-.15.444-.225.902-.225,1.375,0,.609.089,1.14.266,1.594.178.454.453.793.828,1.018.374.225.779.337,1.216.337.53,0,.979-.153,1.348-.459.367-.306.616-.76.747-1.362Z"/><path d="M192.697,14.582v-7.158h.879v7.158h-.879Z"/><path d="M194.943,8.434v-1.011h.879v1.011h-.879ZM194.943,14.582v-5.186h.879v5.186h-.879Z"/><path d="M200.71,12.912l.908.112c-.144.531-.409.942-.796,1.235-.388.293-.883.439-1.484.439-.759,0-1.36-.233-1.805-.701s-.666-1.122-.666-1.965c0-.873.225-1.549.674-2.031s1.031-.723,1.748-.723c.693,0,1.26.236,1.699.708s.659,1.136.659,1.992c0,.052-.002.13-.005.234h-3.867c.032.57.193,1.006.483,1.309.289.303.65.454,1.084.454.322,0,.597-.084.825-.254.228-.169.408-.439.542-.811ZM197.824,11.491h2.896c-.039-.436-.15-.763-.332-.981-.28-.338-.644-.508-1.089-.508-.404,0-.743.135-1.019.405-.274.27-.427.631-.456,1.084Z"/><path d="M202.722,14.582v-5.186h.791v.737c.381-.57.931-.854,1.65-.854.312,0,.6.056.861.168.263.112.458.26.589.442.13.182.221.399.273.649.032.163.049.448.049.854v3.188h-.879v-3.154c0-.358-.034-.626-.103-.803s-.189-.319-.364-.425c-.174-.106-.378-.159-.612-.159-.375,0-.697.119-.97.356-.271.238-.407.688-.407,1.353v2.832h-.879Z"/><path d="M210.202,13.795l.127.776c-.248.052-.469.078-.664.078-.319,0-.566-.05-.742-.151s-.3-.233-.371-.398c-.072-.165-.107-.51-.107-1.038v-2.983h-.645v-.684h.645v-1.284l.874-.527v1.812h.884v.684h-.884v3.032c0,.25.016.412.046.483.031.072.082.128.151.171.07.042.17.063.301.063.098,0,.226-.011.386-.034Z"/><path d="M210.71,13.034l.869-.137c.049.348.185.615.407.801.224.186.535.278.936.278.403,0,.703-.082.898-.247s.293-.357.293-.579c0-.199-.087-.355-.259-.469-.121-.078-.42-.177-.898-.298-.645-.163-1.092-.304-1.341-.422s-.438-.283-.566-.493c-.128-.21-.192-.442-.192-.696,0-.231.053-.445.158-.642.106-.197.25-.36.433-.491.137-.101.323-.187.559-.256.236-.07.489-.105.76-.105.406,0,.764.059,1.071.176s.535.276.682.476.247.468.303.803l-.859.117c-.039-.267-.152-.475-.34-.625-.187-.15-.451-.225-.793-.225-.404,0-.692.067-.864.2-.173.133-.259.29-.259.469,0,.114.035.216.107.308.071.094.184.172.337.234.088.033.347.107.776.225.621.166,1.056.302,1.301.408.246.106.438.26.579.461.14.202.21.453.21.752,0,.293-.086.569-.257.828s-.417.459-.739.601-.688.212-1.094.212c-.674,0-1.188-.14-1.541-.42-.353-.28-.578-.695-.676-1.245Z"/><path d="M315.755,135.514l.894-.078c.042.358.141.652.295.881.155.229.395.415.721.557.325.142.691.212,1.099.212.361,0,.68-.054.957-.161.276-.107.482-.255.617-.442.136-.187.203-.392.203-.613,0-.225-.065-.421-.195-.588-.131-.167-.346-.309-.645-.422-.192-.075-.617-.191-1.274-.349-.658-.158-1.118-.307-1.382-.447-.342-.179-.597-.401-.765-.667-.167-.265-.251-.562-.251-.891,0-.361.103-.699.308-1.013s.504-.553.898-.715c.394-.163.831-.244,1.313-.244.53,0,.998.085,1.403.256s.717.422.936.754c.218.332.335.708.352,1.128l-.908.068c-.049-.453-.214-.794-.496-1.025-.281-.231-.697-.347-1.247-.347-.573,0-.99.105-1.253.315-.262.21-.393.463-.393.759,0,.257.093.469.278.635.182.166.658.336,1.428.51.771.174,1.298.326,1.585.457.416.192.724.436.923.73.198.294.298.634.298,1.018,0,.381-.109.74-.327,1.077-.219.337-.531.599-.94.786-.408.187-.868.281-1.379.281-.648,0-1.19-.094-1.629-.283-.438-.189-.781-.473-1.03-.852s-.38-.808-.393-1.287Z"/><path d="M324.554,137.028l.127.776c-.248.052-.469.078-.664.078-.319,0-.566-.05-.742-.151s-.3-.233-.371-.398c-.072-.165-.107-.51-.107-1.038v-2.983h-.645v-.684h.645v-1.284l.874-.527v1.812h.884v.684h-.884v3.032c0,.25.016.412.046.483.031.072.082.128.151.171.07.042.17.063.301.063.098,0,.226-.011.386-.034Z"/><path d="M328.797,137.174c-.326.277-.639.472-.94.586-.301.114-.624.171-.969.171-.57,0-1.008-.139-1.313-.417-.307-.278-.459-.634-.459-1.067,0-.254.058-.486.173-.696.116-.21.268-.378.454-.505.188-.127.398-.223.633-.288.172-.045.433-.089.781-.132.709-.084,1.231-.186,1.567-.303.003-.121.005-.197.005-.229,0-.358-.083-.61-.249-.757-.225-.199-.559-.298-1.001-.298-.414,0-.719.072-.916.217-.196.145-.343.401-.437.769l-.859-.117c.078-.368.206-.665.386-.891.179-.226.438-.4.776-.522.338-.122.73-.183,1.177-.183.442,0,.802.052,1.079.156.276.104.479.235.61.393.13.158.221.357.273.598.029.15.044.42.044.811v1.172c0,.817.019,1.334.056,1.55.038.216.111.424.223.623h-.918c-.092-.182-.15-.396-.176-.64ZM328.724,135.211c-.319.13-.798.241-1.436.332-.361.052-.617.111-.767.176-.15.065-.266.16-.347.286-.082.125-.122.265-.122.417,0,.234.089.43.266.586.178.156.438.234.779.234.338,0,.64-.074.903-.222s.457-.351.581-.608c.094-.199.142-.492.142-.879v-.322Z"/><path d="M330.975,137.814v-5.186h.791v.737c.381-.57.931-.854,1.65-.854.312,0,.6.056.861.168.263.112.458.26.589.442.13.182.221.399.273.649.032.163.049.448.049.854v3.188h-.879v-3.154c0-.358-.034-.626-.103-.803s-.189-.319-.364-.425c-.174-.106-.378-.159-.612-.159-.375,0-.697.119-.97.356-.271.238-.407.688-.407,1.353v2.832h-.879Z"/><path d="M339.9,137.814v-.654c-.329.514-.812.771-1.45.771-.414,0-.794-.114-1.141-.342s-.615-.546-.806-.955-.285-.878-.285-1.409c0-.518.086-.987.259-1.409.172-.421.431-.745.776-.969.345-.225.73-.337,1.157-.337.312,0,.591.066.835.198s.442.304.596.515v-2.568h.874v7.158h-.815ZM337.122,135.226c0,.664.14,1.161.42,1.489.279.329.61.493.991.493.384,0,.71-.157.979-.471s.403-.793.403-1.438c0-.709-.137-1.23-.41-1.562s-.61-.498-1.011-.498c-.391,0-.717.16-.979.479-.262.319-.393.822-.393,1.509Z"/><path d="M345.481,137.174c-.326.277-.639.472-.94.586-.301.114-.624.171-.969.171-.57,0-1.008-.139-1.313-.417-.307-.278-.459-.634-.459-1.067,0-.254.058-.486.173-.696.116-.21.268-.378.454-.505.188-.127.398-.223.633-.288.172-.045.433-.089.781-.132.709-.084,1.231-.186,1.567-.303.003-.121.005-.197.005-.229,0-.358-.083-.61-.249-.757-.225-.199-.559-.298-1.001-.298-.414,0-.719.072-.916.217-.196.145-.343.401-.437.769l-.859-.117c.078-.368.206-.665.386-.891.179-.226.438-.4.776-.522.338-.122.73-.183,1.177-.183.442,0,.802.052,1.079.156.276.104.479.235.61.393.13.158.221.357.273.598.029.15.044.42.044.811v1.172c0,.817.019,1.334.056,1.55.038.216.111.424.223.623h-.918c-.092-.182-.15-.396-.176-.64ZM345.408,135.211c-.319.13-.798.241-1.436.332-.361.052-.617.111-.767.176-.15.065-.266.16-.347.286-.082.125-.122.265-.122.417,0,.234.089.43.266.586.178.156.438.234.779.234.338,0,.64-.074.903-.222s.457-.351.581-.608c.094-.199.142-.492.142-.879v-.322Z"/><path d="M347.649,137.814v-5.186h.791v.786c.201-.368.388-.61.559-.728s.359-.176.564-.176c.296,0,.597.094.903.283l-.303.815c-.215-.127-.43-.19-.645-.19-.192,0-.365.058-.518.173-.153.116-.263.276-.327.481-.098.312-.146.654-.146,1.025v2.715h-.879Z"/><path d="M354.354,137.814v-.654c-.329.514-.812.771-1.45.771-.414,0-.794-.114-1.141-.342s-.615-.546-.806-.955-.285-.878-.285-1.409c0-.518.086-.987.259-1.409.172-.421.431-.745.776-.969.345-.225.73-.337,1.157-.337.312,0,.591.066.835.198s.442.304.596.515v-2.568h.874v7.158h-.815ZM351.575,135.226c0,.664.14,1.161.42,1.489.279.329.61.493.991.493.384,0,.71-.157.979-.471s.403-.793.403-1.438c0-.709-.137-1.23-.41-1.562s-.61-.498-1.011-.498c-.391,0-.717.16-.979.479-.262.319-.393.822-.393,1.509Z"/><path d="M315.945,147.814v-7.158h.879v7.158h-.879Z"/><path d="M317.859,145.221c0-.96.267-1.671.801-2.134.445-.384.989-.576,1.631-.576.713,0,1.295.233,1.748.701.452.467.679,1.112.679,1.936,0,.667-.101,1.192-.301,1.575s-.491.68-.874.891c-.382.211-.8.317-1.252.317-.727,0-1.312-.233-1.761-.698-.447-.465-.671-1.136-.671-2.012ZM318.763,145.221c0,.664.145,1.161.435,1.492.289.331.654.496,1.094.496.436,0,.799-.166,1.089-.498.289-.332.435-.838.435-1.519,0-.641-.146-1.127-.438-1.458-.291-.331-.653-.496-1.086-.496-.439,0-.805.165-1.094.493-.29.329-.435.825-.435,1.489Z"/><path d="M327.132,147.174c-.326.277-.639.472-.94.586-.301.114-.624.171-.969.171-.57,0-1.008-.139-1.313-.417-.307-.278-.459-.634-.459-1.067,0-.254.058-.486.173-.696.116-.21.268-.378.454-.505.188-.127.398-.223.633-.288.172-.045.433-.089.781-.132.709-.084,1.231-.186,1.567-.303.003-.121.005-.197.005-.229,0-.358-.083-.61-.249-.757-.225-.199-.559-.298-1.001-.298-.414,0-.719.072-.916.217-.196.145-.343.401-.437.769l-.859-.117c.078-.368.206-.665.386-.891.179-.226.438-.4.776-.522.338-.122.73-.183,1.177-.183.442,0,.802.052,1.079.156.276.104.479.235.61.393.13.158.221.357.273.598.029.15.044.42.044.811v1.172c0,.817.019,1.334.056,1.55.038.216.111.424.223.623h-.918c-.092-.182-.15-.396-.176-.64ZM327.059,145.211c-.319.13-.798.241-1.436.332-.361.052-.617.111-.767.176-.15.065-.266.16-.347.286-.082.125-.122.265-.122.417,0,.234.089.43.266.586.178.156.438.234.779.234.338,0,.64-.074.903-.222s.457-.351.581-.608c.094-.199.142-.492.142-.879v-.322Z"/><path d="M332.674,147.814v-.654c-.329.514-.812.771-1.45.771-.414,0-.794-.114-1.141-.342s-.615-.546-.806-.955-.285-.878-.285-1.409c0-.518.086-.987.259-1.409.172-.421.431-.745.776-.969.345-.225.73-.337,1.157-.337.312,0,.591.066.835.198s.442.304.596.515v-2.568h.874v7.158h-.815ZM329.896,145.226c0,.664.14,1.161.42,1.489.279.329.61.493.991.493.384,0,.71-.157.979-.471s.403-.793.403-1.438c0-.709-.137-1.23-.41-1.562s-.61-.498-1.011-.498c-.391,0-.717.16-.979.479-.262.319-.393.822-.393,1.509Z"/><path d="M316.775,157.814h-.815v-7.158h.879v2.554c.371-.465.845-.698,1.421-.698.318,0,.621.064.905.193.285.128.52.309.703.542.185.233.328.514.433.842.104.329.156.68.156,1.055,0,.889-.22,1.576-.659,2.061s-.967.728-1.582.728-1.093-.255-1.44-.767v.649ZM316.766,155.182c0,.622.084,1.071.254,1.348.276.453.65.679,1.123.679.384,0,.716-.167.996-.5.279-.333.42-.831.42-1.492,0-.677-.135-1.177-.403-1.499s-.593-.483-.974-.483c-.385,0-.717.167-.996.5-.28.333-.42.816-.42,1.448Z"/><path d="M324.91,157.174c-.326.277-.639.472-.94.586-.301.114-.624.171-.969.171-.57,0-1.008-.139-1.313-.417-.307-.278-.459-.634-.459-1.067,0-.254.058-.486.173-.696.116-.21.268-.378.454-.505.188-.127.398-.223.633-.288.172-.045.433-.089.781-.132.709-.084,1.231-.186,1.567-.303.003-.121.005-.197.005-.229,0-.358-.083-.61-.249-.757-.225-.199-.559-.298-1.001-.298-.414,0-.719.072-.916.217-.196.145-.343.401-.437.769l-.859-.117c.078-.368.206-.665.386-.891.179-.226.438-.4.776-.522.338-.122.73-.183,1.177-.183.442,0,.802.052,1.079.156.276.104.479.235.61.393.13.158.221.357.273.598.029.15.044.42.044.811v1.172c0,.817.019,1.334.056,1.55.038.216.111.424.223.623h-.918c-.092-.182-.15-.396-.176-.64ZM324.837,155.211c-.319.13-.798.241-1.436.332-.361.052-.617.111-.767.176-.15.065-.266.16-.347.286-.082.125-.122.265-.122.417,0,.234.089.43.266.586.178.156.438.234.779.234.338,0,.64-.074.903-.222s.457-.351.581-.608c.094-.199.142-.492.142-.879v-.322Z"/><path d="M327.068,157.814v-7.158h.879v7.158h-.879Z"/><path d="M332.693,157.174c-.326.277-.639.472-.94.586-.301.114-.624.171-.969.171-.57,0-1.008-.139-1.313-.417-.307-.278-.459-.634-.459-1.067,0-.254.058-.486.173-.696.116-.21.268-.378.454-.505.188-.127.398-.223.633-.288.172-.045.433-.089.781-.132.709-.084,1.231-.186,1.567-.303.003-.121.005-.197.005-.229,0-.358-.083-.61-.249-.757-.225-.199-.559-.298-1.001-.298-.414,0-.719.072-.916.217-.196.145-.343.401-.437.769l-.859-.117c.078-.368.206-.665.386-.891.179-.226.438-.4.776-.522.338-.122.73-.183,1.177-.183.442,0,.802.052,1.079.156.276.104.479.235.61.393.13.158.221.357.273.598.029.15.044.42.044.811v1.172c0,.817.019,1.334.056,1.55.038.216.111.424.223.623h-.918c-.092-.182-.15-.396-.176-.64ZM332.62,155.211c-.319.13-.798.241-1.436.332-.361.052-.617.111-.767.176-.15.065-.266.16-.347.286-.082.125-.122.265-.122.417,0,.234.089.43.266.586.178.156.438.234.779.234.338,0,.64-.074.903-.222s.457-.351.581-.608c.094-.199.142-.492.142-.879v-.322Z"/><path d="M334.871,157.814v-5.186h.791v.737c.381-.57.931-.854,1.65-.854.312,0,.6.056.861.168.263.112.458.26.589.442.13.182.221.399.273.649.032.163.049.448.049.854v3.188h-.879v-3.154c0-.358-.034-.626-.103-.803s-.189-.319-.364-.425c-.174-.106-.378-.159-.612-.159-.375,0-.697.119-.97.356-.271.238-.407.688-.407,1.353v2.832h-.879Z"/><path d="M343.816,155.915l.864.112c-.095.596-.336,1.062-.726,1.399-.389.337-.866.505-1.433.505-.71,0-1.28-.232-1.712-.696-.431-.464-.646-1.129-.646-1.995,0-.56.093-1.05.278-1.47s.468-.735.847-.945c.38-.21.792-.315,1.238-.315.562,0,1.023.143,1.382.427.357.285.587.689.688,1.213l-.854.132c-.082-.348-.226-.61-.433-.786-.206-.176-.456-.264-.749-.264-.443,0-.803.159-1.079.476-.277.317-.415.819-.415,1.506,0,.697.133,1.203.4,1.519.267.316.615.474,1.045.474.345,0,.633-.106.864-.317.23-.211.377-.537.439-.977Z"/><path d="M348.982,156.144l.908.112c-.144.531-.409.942-.796,1.235-.388.293-.883.439-1.484.439-.759,0-1.36-.233-1.805-.701s-.666-1.122-.666-1.965c0-.873.225-1.549.674-2.031s1.031-.723,1.748-.723c.693,0,1.26.236,1.699.708s.659,1.136.659,1.992c0,.052-.002.13-.005.234h-3.867c.032.57.193,1.006.483,1.309.289.303.65.454,1.084.454.322,0,.597-.084.825-.254.228-.169.408-.439.542-.811ZM346.097,154.723h2.896c-.039-.436-.15-.763-.332-.981-.28-.338-.644-.508-1.089-.508-.404,0-.743.135-1.019.405-.274.27-.427.631-.456,1.084Z"/><path d="M350.984,157.814v-5.186h.791v.786c.201-.368.388-.61.559-.728s.359-.176.564-.176c.296,0,.597.094.903.283l-.303.815c-.215-.127-.43-.19-.645-.19-.192,0-.365.058-.518.173-.153.116-.263.276-.327.481-.098.312-.146.654-.146,1.025v2.715h-.879Z"/><path d="M318.123,235.029l-2.773-7.158h1.025l1.86,5.2c.149.416.274.807.376,1.172.11-.391.239-.781.386-1.172l1.934-5.2h.967l-2.803,7.158h-.972Z"/><path d="M322.459,228.882v-1.011h.879v1.011h-.879ZM322.459,235.029v-5.186h.879v5.186h-.879Z"/><path d="M324.666,235.029v-5.186h.791v.786c.201-.368.388-.61.559-.728s.359-.176.564-.176c.296,0,.597.094.903.283l-.303.815c-.215-.127-.43-.19-.645-.19-.192,0-.365.058-.518.173-.153.116-.263.276-.327.481-.098.312-.146.654-.146,1.025v2.715h-.879Z"/><path d="M329.925,234.243l.127.776c-.248.052-.469.078-.664.078-.319,0-.566-.051-.742-.151-.176-.102-.3-.233-.371-.398-.072-.164-.107-.51-.107-1.037v-2.983h-.645v-.684h.645v-1.284l.874-.527v1.812h.884v.684h-.884v3.032c0,.25.016.411.046.483.031.071.082.128.151.171.07.042.17.063.301.063.098,0,.226-.012.386-.034Z"/><path d="M334.183,235.029v-.762c-.404.586-.952.879-1.646.879-.307,0-.592-.059-.857-.176-.265-.117-.462-.265-.591-.442-.128-.177-.219-.395-.271-.651-.036-.173-.054-.446-.054-.82v-3.213h.879v2.876c0,.459.018.768.054.928.055.23.172.412.352.544.179.132.4.198.664.198s.511-.067.742-.203c.23-.135.395-.318.49-.552.097-.232.145-.57.145-1.013v-2.778h.879v5.186h-.786Z"/><path d="M339.729,234.39c-.326.276-.639.472-.94.586-.301.113-.624.171-.969.171-.57,0-1.008-.14-1.313-.418-.307-.278-.459-.634-.459-1.066,0-.254.058-.486.173-.696.116-.21.268-.378.454-.505.188-.127.398-.224.633-.288.172-.046.433-.09.781-.132.709-.085,1.231-.186,1.567-.303.003-.121.005-.197.005-.229,0-.358-.083-.61-.249-.757-.225-.199-.559-.298-1.001-.298-.414,0-.719.072-.916.217-.196.146-.343.401-.437.77l-.859-.117c.078-.368.206-.665.386-.892.179-.226.438-.4.776-.522.338-.122.73-.183,1.177-.183.442,0,.802.052,1.079.156.276.104.479.235.61.393.13.158.221.357.273.599.029.149.044.42.044.811v1.172c0,.816.019,1.334.056,1.55.038.217.111.424.223.623h-.918c-.092-.183-.15-.396-.176-.64ZM339.656,232.427c-.319.13-.798.24-1.436.332-.361.052-.617.11-.767.176-.15.064-.266.16-.347.285-.082.126-.122.265-.122.418,0,.234.089.43.266.586.178.156.438.234.779.234.338,0,.64-.074.903-.223.264-.147.457-.351.581-.607.094-.199.142-.492.142-.879v-.322Z"/><path d="M341.888,235.029v-7.158h.879v7.158h-.879Z"/><path d="M346.99,235.029v-7.158h1.426l1.694,5.068c.156.472.27.825.342,1.06.081-.261.208-.644.381-1.147l1.714-4.98h1.274v7.158h-.913v-5.991l-2.08,5.991h-.854l-2.07-6.094v6.094h-.913Z"/><path d="M358.621,234.39c-.326.276-.639.472-.94.586-.301.113-.624.171-.969.171-.57,0-1.008-.14-1.313-.418-.307-.278-.459-.634-.459-1.066,0-.254.058-.486.173-.696.116-.21.268-.378.454-.505.188-.127.398-.224.633-.288.172-.046.433-.09.781-.132.709-.085,1.231-.186,1.567-.303.003-.121.005-.197.005-.229,0-.358-.083-.61-.249-.757-.225-.199-.559-.298-1.001-.298-.414,0-.719.072-.916.217-.196.146-.343.401-.437.77l-.859-.117c.078-.368.206-.665.386-.892.179-.226.438-.4.776-.522.338-.122.73-.183,1.177-.183.442,0,.802.052,1.079.156.276.104.479.235.61.393.13.158.221.357.273.599.029.149.044.42.044.811v1.172c0,.816.019,1.334.056,1.55.038.217.111.424.223.623h-.918c-.092-.183-.15-.396-.176-.64ZM358.548,232.427c-.319.13-.798.24-1.436.332-.361.052-.617.11-.767.176-.15.064-.266.16-.347.285-.082.126-.122.265-.122.418,0,.234.089.43.266.586.178.156.438.234.779.234.338,0,.64-.074.903-.223.264-.147.457-.351.581-.607.094-.199.142-.492.142-.879v-.322Z"/><path d="M364.183,233.13l.864.112c-.095.596-.336,1.062-.726,1.398-.389.337-.866.506-1.433.506-.71,0-1.28-.232-1.712-.696-.431-.464-.646-1.129-.646-1.994,0-.561.093-1.05.278-1.47s.468-.735.847-.945c.38-.21.792-.314,1.238-.314.562,0,1.023.143,1.382.427.357.285.587.689.688,1.214l-.854.132c-.082-.349-.226-.61-.433-.786-.206-.176-.456-.264-.749-.264-.443,0-.803.158-1.079.476-.277.317-.415.819-.415,1.507,0,.696.133,1.202.4,1.519.267.315.615.474,1.045.474.345,0,.633-.106.864-.317.23-.212.377-.537.439-.977Z"/><path d="M365.799,235.029v-7.158h.879v2.568c.41-.476.928-.713,1.553-.713.384,0,.718.075,1.001.227s.485.36.607.628c.122.267.184.654.184,1.162v3.286h-.879v-3.286c0-.439-.096-.76-.286-.96s-.46-.3-.808-.3c-.261,0-.506.067-.735.202-.229.136-.393.318-.49.55-.098.23-.146.55-.146.957v2.837h-.879Z"/><path d="M371.365,228.882v-1.011h.879v1.011h-.879ZM371.365,235.029v-5.186h.879v5.186h-.879Z"/><path d="M373.582,235.029v-5.186h.791v.737c.381-.57.931-.854,1.65-.854.312,0,.6.056.861.168.263.112.458.26.589.442.13.182.221.398.273.649.032.162.049.447.049.854v3.188h-.879v-3.154c0-.358-.034-.626-.103-.804-.068-.177-.189-.318-.364-.425-.174-.105-.378-.158-.612-.158-.375,0-.697.118-.97.356-.271.237-.407.688-.407,1.353v2.832h-.879Z"/><path d="M382.693,233.359l.908.112c-.144.53-.409.942-.796,1.235-.388.293-.883.439-1.484.439-.759,0-1.36-.233-1.805-.701-.444-.467-.666-1.122-.666-1.965,0-.873.225-1.55.674-2.031.449-.482,1.031-.723,1.748-.723.693,0,1.26.235,1.699.708.439.472.659,1.136.659,1.992,0,.052-.002.13-.005.234h-3.867c.032.569.193,1.006.483,1.309.289.303.65.454,1.084.454.322,0,.597-.085.825-.254.228-.17.408-.439.542-.811ZM379.808,231.938h2.896c-.039-.437-.15-.764-.332-.981-.28-.339-.644-.508-1.089-.508-.404,0-.743.135-1.019.405-.274.27-.427.631-.456,1.084Z"/><path d="M315.755,242.729l.894-.078c.042.357.141.651.295.881.155.229.395.415.721.557.325.142.691.213,1.099.213.361,0,.68-.054.957-.161.276-.107.482-.255.617-.442.136-.187.203-.392.203-.612,0-.225-.065-.421-.195-.589-.131-.167-.346-.309-.645-.422-.192-.075-.617-.191-1.274-.35-.658-.157-1.118-.307-1.382-.446-.342-.18-.597-.401-.765-.667-.167-.265-.251-.562-.251-.891,0-.361.103-.699.308-1.014.205-.313.504-.553.898-.715.394-.163.831-.244,1.313-.244.53,0,.998.085,1.403.256s.717.423.936.755c.218.332.335.708.352,1.128l-.908.068c-.049-.453-.214-.795-.496-1.025-.281-.231-.697-.347-1.247-.347-.573,0-.99.104-1.253.314-.262.21-.393.463-.393.76,0,.257.093.469.278.635.182.166.658.336,1.428.51.771.175,1.298.326,1.585.457.416.191.724.436.923.729.198.295.298.634.298,1.019,0,.381-.109.739-.327,1.076-.219.337-.531.6-.94.786-.408.188-.868.281-1.379.281-.648,0-1.19-.095-1.629-.283-.438-.189-.781-.473-1.03-.853-.249-.379-.38-.808-.393-1.286Z"/><path d="M326.019,243.13l.864.112c-.095.596-.336,1.062-.726,1.398-.389.337-.866.506-1.433.506-.71,0-1.28-.232-1.712-.696-.431-.464-.646-1.129-.646-1.994,0-.561.093-1.05.278-1.47s.468-.735.847-.945c.38-.21.792-.314,1.238-.314.562,0,1.023.143,1.382.427.357.285.587.689.688,1.214l-.854.132c-.082-.349-.226-.61-.433-.786-.206-.176-.456-.264-.749-.264-.443,0-.803.158-1.079.476-.277.317-.415.819-.415,1.507,0,.696.133,1.202.4,1.519.267.315.615.474,1.045.474.345,0,.633-.106.864-.317.23-.212.377-.537.439-.977Z"/><path d="M331.019,244.39c-.326.276-.639.472-.94.586-.301.113-.624.171-.969.171-.57,0-1.008-.14-1.313-.418-.307-.278-.459-.634-.459-1.066,0-.254.058-.486.173-.696.116-.21.268-.378.454-.505.188-.127.398-.224.633-.288.172-.046.433-.09.781-.132.709-.085,1.231-.186,1.567-.303.003-.121.005-.197.005-.229,0-.358-.083-.61-.249-.757-.225-.199-.559-.298-1.001-.298-.414,0-.719.072-.916.217-.196.146-.343.401-.437.77l-.859-.117c.078-.368.206-.665.386-.892.179-.226.438-.4.776-.522.338-.122.73-.183,1.177-.183.442,0,.802.052,1.079.156.276.104.479.235.61.393.13.158.221.357.273.599.029.149.044.42.044.811v1.172c0,.816.019,1.334.056,1.55.038.217.111.424.223.623h-.918c-.092-.183-.15-.396-.176-.64ZM330.945,242.427c-.319.13-.798.24-1.436.332-.361.052-.617.11-.767.176-.15.064-.266.16-.347.285-.082.126-.122.265-.122.418,0,.234.089.43.266.586.178.156.438.234.779.234.338,0,.64-.074.903-.223.264-.147.457-.351.581-.607.094-.199.142-.492.142-.879v-.322Z"/><path d="M333.177,245.029v-7.158h.879v7.158h-.879Z"/><path d="M338.968,243.359l.908.112c-.144.53-.409.942-.796,1.235-.388.293-.883.439-1.484.439-.759,0-1.36-.233-1.805-.701-.444-.467-.666-1.122-.666-1.965,0-.873.225-1.55.674-2.031.449-.482,1.031-.723,1.748-.723.693,0,1.26.235,1.699.708.439.472.659,1.136.659,1.992,0,.052-.002.13-.005.234h-3.867c.032.569.193,1.006.483,1.309.289.303.65.454,1.084.454.322,0,.597-.085.825-.254.228-.17.408-.439.542-.811ZM336.082,241.938h2.896c-.039-.437-.15-.764-.332-.981-.28-.339-.644-.508-1.089-.508-.404,0-.743.135-1.019.405-.274.27-.427.631-.456,1.084Z"/><path d="M343.548,242.729l.894-.078c.042.357.141.651.295.881.155.229.395.415.721.557.325.142.691.213,1.099.213.361,0,.68-.054.957-.161.276-.107.482-.255.617-.442.136-.187.203-.392.203-.612,0-.225-.065-.421-.195-.589-.131-.167-.346-.309-.645-.422-.192-.075-.617-.191-1.274-.35-.658-.157-1.118-.307-1.382-.446-.342-.18-.597-.401-.765-.667-.167-.265-.251-.562-.251-.891,0-.361.103-.699.308-1.014.205-.313.504-.553.898-.715.394-.163.831-.244,1.313-.244.53,0,.998.085,1.403.256s.717.423.936.755c.218.332.335.708.352,1.128l-.908.068c-.049-.453-.214-.795-.496-1.025-.281-.231-.697-.347-1.247-.347-.573,0-.99.104-1.253.314-.262.21-.393.463-.393.76,0,.257.093.469.278.635.182.166.658.336,1.428.51.771.175,1.298.326,1.585.457.416.191.724.436.923.729.198.295.298.634.298,1.019,0,.381-.109.739-.327,1.076-.219.337-.531.6-.94.786-.408.188-.868.281-1.379.281-.648,0-1.19-.095-1.629-.283-.438-.189-.781-.473-1.03-.853-.249-.379-.38-.808-.393-1.286Z"/><path d="M353.978,243.359l.908.112c-.144.53-.409.942-.796,1.235-.388.293-.883.439-1.484.439-.759,0-1.36-.233-1.805-.701-.444-.467-.666-1.122-.666-1.965,0-.873.225-1.55.674-2.031.449-.482,1.031-.723,1.748-.723.693,0,1.26.235,1.699.708.439.472.659,1.136.659,1.992,0,.052-.002.13-.005.234h-3.867c.032.569.193,1.006.483,1.309.289.303.65.454,1.084.454.322,0,.597-.085.825-.254.228-.17.408-.439.542-.811ZM351.092,241.938h2.896c-.039-.437-.15-.764-.332-.981-.28-.339-.644-.508-1.089-.508-.404,0-.743.135-1.019.405-.274.27-.427.631-.456,1.084Z"/><path d="M357.908,244.243l.127.776c-.248.052-.469.078-.664.078-.319,0-.566-.051-.742-.151-.176-.102-.3-.233-.371-.398-.072-.164-.107-.51-.107-1.037v-2.983h-.645v-.684h.645v-1.284l.874-.527v1.812h.884v.684h-.884v3.032c0,.25.016.411.046.483.031.071.082.128.151.171.07.042.17.063.301.063.098,0,.226-.012.386-.034Z"/><path d="M358.416,243.481l.869-.137c.049.348.185.615.407.801.224.186.535.278.936.278.403,0,.703-.082.898-.247.195-.164.293-.357.293-.578,0-.199-.087-.355-.259-.469-.121-.078-.42-.178-.898-.298-.645-.163-1.092-.304-1.341-.423-.249-.118-.438-.283-.566-.493-.128-.21-.192-.441-.192-.695,0-.231.053-.445.158-.643.106-.196.25-.36.433-.49.137-.102.323-.187.559-.257.236-.069.489-.104.76-.104.406,0,.764.059,1.071.176s.535.275.682.476.247.468.303.804l-.859.117c-.039-.268-.152-.476-.34-.625-.187-.15-.451-.225-.793-.225-.404,0-.692.066-.864.2-.173.133-.259.289-.259.469,0,.113.035.216.107.308.071.094.184.172.337.234.088.032.347.107.776.225.621.166,1.056.302,1.301.407.246.106.438.26.579.462.14.201.21.452.21.752,0,.293-.086.568-.257.827s-.417.459-.739.601-.688.213-1.094.213c-.674,0-1.188-.141-1.541-.42-.353-.28-.578-.695-.676-1.245Z"/><path d="M366.551,238.882v-1.011h.879v1.011h-.879ZM366.551,245.029v-5.186h.879v5.186h-.879Z"/><path d="M368.768,245.029v-5.186h.791v.737c.381-.57.931-.854,1.65-.854.312,0,.6.056.861.168.263.112.458.26.589.442.13.182.221.398.273.649.032.162.049.447.049.854v3.188h-.879v-3.154c0-.358-.034-.626-.103-.804-.068-.177-.189-.318-.364-.425-.174-.105-.378-.158-.612-.158-.375,0-.697.118-.97.356-.271.237-.407.688-.407,1.353v2.832h-.879Z"/><path d="M316.126,255.029v-7.158h4.829v.845h-3.882v2.217h3.359v.845h-3.359v3.252h-.947Z"/><path d="M325.623,253.359l.908.112c-.144.53-.409.942-.796,1.235-.388.293-.883.439-1.484.439-.759,0-1.36-.233-1.805-.701-.444-.467-.666-1.122-.666-1.965,0-.873.225-1.55.674-2.031.449-.482,1.031-.723,1.748-.723.693,0,1.26.235,1.699.708.439.472.659,1.136.659,1.992,0,.052-.002.13-.005.234h-3.867c.032.569.193,1.006.483,1.309.289.303.65.454,1.084.454.322,0,.597-.085.825-.254.228-.17.408-.439.542-.811ZM322.737,251.938h2.896c-.039-.437-.15-.764-.332-.981-.28-.339-.644-.508-1.089-.508-.404,0-.743.135-1.019.405-.274.27-.427.631-.456,1.084Z"/><path d="M327.615,255.029v-7.158h.879v7.158h-.879Z"/><path d="M329.271,255.029l1.895-2.695-1.753-2.49h1.099l.796,1.216c.149.23.27.425.361.581.143-.215.274-.405.396-.571l.874-1.226h1.05l-1.792,2.441,1.929,2.744h-1.079l-1.064-1.611-.283-.435-1.362,2.046h-1.064Z"/><path d="M334.861,248.882v-1.011h.879v1.011h-.879ZM334.861,255.029v-5.186h.879v5.186h-.879Z"/><path d="M337.889,255.029h-.815v-7.158h.879v2.554c.371-.466.845-.698,1.421-.698.318,0,.621.064.905.192.285.129.52.31.703.542.185.233.328.514.433.843.104.328.156.68.156,1.055,0,.889-.22,1.575-.659,2.061-.439.484-.967.728-1.582.728s-1.093-.256-1.44-.767v.649ZM337.879,252.397c0,.621.084,1.07.254,1.348.276.452.65.679,1.123.679.384,0,.716-.167.996-.501.279-.333.42-.831.42-1.491,0-.678-.135-1.177-.403-1.499s-.593-.483-.974-.483c-.385,0-.717.167-.996.5-.28.334-.42.816-.42,1.448Z"/><path d="M342.62,255.029v-7.158h.879v7.158h-.879Z"/><path d="M348.411,253.359l.908.112c-.144.53-.409.942-.796,1.235-.388.293-.883.439-1.484.439-.759,0-1.36-.233-1.805-.701-.444-.467-.666-1.122-.666-1.965,0-.873.225-1.55.674-2.031.449-.482,1.031-.723,1.748-.723.693,0,1.26.235,1.699.708.439.472.659,1.136.659,1.992,0,.052-.002.13-.005.234h-3.867c.032.569.193,1.006.483,1.309.289.303.65.454,1.084.454.322,0,.597-.085.825-.254.228-.17.408-.439.542-.811ZM345.525,251.938h2.896c-.039-.437-.15-.764-.332-.981-.28-.339-.644-.508-1.089-.508-.404,0-.743.135-1.019.405-.274.27-.427.631-.456,1.084Z"/><path d="M353.201,255.029v-5.186h.786v.728c.162-.254.379-.458.649-.613.27-.154.577-.231.923-.231.384,0,.699.079.944.239.246.159.419.382.521.669.41-.605.943-.908,1.602-.908.514,0,.909.143,1.187.427.276.285.415.724.415,1.316v3.56h-.874v-3.267c0-.352-.028-.604-.086-.76-.057-.154-.16-.279-.31-.373-.15-.095-.326-.142-.527-.142-.365,0-.668.121-.908.363-.241.243-.361.631-.361,1.165v3.013h-.879v-3.369c0-.391-.072-.684-.215-.879-.144-.195-.378-.293-.703-.293-.248,0-.477.064-.687.195-.21.13-.362.32-.456.571-.095.25-.142.611-.142,1.084v2.69h-.879Z"/><path d="M361.204,252.437c0-.961.267-1.672.801-2.134.445-.385.989-.576,1.631-.576.713,0,1.295.233,1.748.7.452.468.679,1.112.679,1.937,0,.667-.101,1.192-.301,1.574-.2.383-.491.68-.874.892-.382.211-.8.317-1.252.317-.727,0-1.312-.233-1.761-.698-.447-.466-.671-1.137-.671-2.012ZM362.107,252.437c0,.664.145,1.161.435,1.491.289.331.654.496,1.094.496.436,0,.799-.166,1.089-.498.289-.332.435-.839.435-1.519,0-.642-.146-1.127-.438-1.458-.291-.33-.653-.495-1.086-.495-.439,0-.805.164-1.094.493-.29.328-.435.825-.435,1.489Z"/><path d="M370.457,255.029v-.654c-.329.514-.812.771-1.45.771-.414,0-.794-.114-1.141-.342-.347-.229-.615-.546-.806-.955-.19-.408-.285-.878-.285-1.408,0-.518.086-.987.259-1.409.172-.421.431-.744.776-.969.345-.225.73-.337,1.157-.337.312,0,.591.065.835.197s.442.304.596.516v-2.568h.874v7.158h-.815ZM367.679,252.441c0,.664.14,1.16.42,1.489.279.328.61.493.991.493.384,0,.71-.157.979-.472.269-.313.403-.793.403-1.438,0-.71-.137-1.23-.41-1.562s-.61-.498-1.011-.498c-.391,0-.717.159-.979.479-.262.318-.393.821-.393,1.509Z"/><path d="M376.204,253.359l.908.112c-.144.53-.409.942-.796,1.235-.388.293-.883.439-1.484.439-.759,0-1.36-.233-1.805-.701-.444-.467-.666-1.122-.666-1.965,0-.873.225-1.55.674-2.031.449-.482,1.031-.723,1.748-.723.693,0,1.26.235,1.699.708.439.472.659,1.136.659,1.992,0,.052-.002.13-.005.234h-3.867c.032.569.193,1.006.483,1.309.289.303.65.454,1.084.454.322,0,.597-.085.825-.254.228-.17.408-.439.542-.811ZM373.318,251.938h2.896c-.039-.437-.15-.764-.332-.981-.28-.339-.644-.508-1.089-.508-.404,0-.743.135-1.019.405-.274.27-.427.631-.456,1.084Z"/><path d="M315.755,341.047l.894-.078c.042.358.141.652.295.882.155.229.395.415.721.557.325.142.691.212,1.099.212.361,0,.68-.053.957-.16.276-.107.482-.256.617-.442.136-.187.203-.392.203-.612,0-.225-.065-.422-.195-.589-.131-.167-.346-.309-.645-.423-.192-.074-.617-.191-1.274-.349-.658-.157-1.118-.307-1.382-.446-.342-.18-.597-.402-.765-.667-.167-.265-.251-.562-.251-.892,0-.361.103-.699.308-1.013s.504-.553.898-.716c.394-.162.831-.244,1.313-.244.53,0,.998.086,1.403.257s.717.423.936.755c.218.332.335.707.352,1.127l-.908.068c-.049-.452-.214-.794-.496-1.025-.281-.23-.697-.346-1.247-.346-.573,0-.99.104-1.253.314-.262.21-.393.463-.393.76,0,.257.093.469.278.635.182.166.658.336,1.428.51.771.174,1.298.326,1.585.457.416.191.724.436.923.729.198.294.298.634.298,1.019,0,.381-.109.739-.327,1.076-.219.337-.531.6-.94.786-.408.187-.868.28-1.379.28-.648,0-1.19-.094-1.629-.283-.438-.188-.781-.473-1.03-.852s-.38-.809-.393-1.287Z"/><path d="M324.554,342.561l.127.777c-.248.052-.469.078-.664.078-.319,0-.566-.051-.742-.152-.176-.101-.3-.232-.371-.397-.072-.165-.107-.511-.107-1.038v-2.982h-.645v-.684h.645v-1.285l.874-.527v1.812h.884v.684h-.884v3.031c0,.251.016.412.046.484.031.071.082.128.151.17.07.043.17.064.301.064.098,0,.226-.012.386-.035Z"/><path d="M325.086,340.754c0-.96.267-1.671.801-2.133.445-.385.989-.576,1.631-.576.713,0,1.295.232,1.748.7.452.468.679,1.112.679,1.937,0,.667-.101,1.191-.301,1.574s-.491.68-.874.891c-.382.212-.8.318-1.252.318-.727,0-1.312-.233-1.761-.699-.447-.465-.671-1.136-.671-2.012ZM325.989,340.754c0,.664.145,1.162.435,1.492.289.33.654.496,1.094.496.436,0,.799-.166,1.089-.498.289-.332.435-.839.435-1.52,0-.641-.146-1.127-.438-1.457-.291-.33-.653-.496-1.086-.496-.439,0-.805.165-1.094.494-.29.328-.435.824-.435,1.488Z"/><path d="M330.965,343.348v-5.186h.791v.785c.201-.367.388-.609.559-.727s.359-.176.564-.176c.296,0,.597.094.903.283l-.303.814c-.215-.127-.43-.189-.645-.189-.192,0-.365.057-.518.173-.153.116-.263.276-.327.481-.098.312-.146.654-.146,1.025v2.715h-.879Z"/><path d="M337.688,342.707c-.326.277-.639.473-.94.586-.301.114-.624.172-.969.172-.57,0-1.008-.14-1.313-.418-.307-.278-.459-.634-.459-1.066,0-.254.058-.486.173-.696.116-.21.268-.378.454-.505.188-.127.398-.224.633-.289.172-.045.433-.089.781-.131.709-.085,1.231-.186,1.567-.303.003-.121.005-.197.005-.23,0-.357-.083-.609-.249-.756-.225-.199-.559-.299-1.001-.299-.414,0-.719.072-.916.218-.196.146-.343.401-.437.769l-.859-.117c.078-.367.206-.664.386-.891.179-.227.438-.4.776-.522.338-.122.73-.183,1.177-.183.442,0,.802.052,1.079.156.276.104.479.234.61.393.13.158.221.357.273.598.029.15.044.42.044.811v1.172c0,.817.019,1.334.056,1.551.038.217.111.424.223.623h-.918c-.092-.183-.15-.396-.176-.641ZM337.615,340.744c-.319.131-.798.241-1.436.332-.361.053-.617.111-.767.176-.15.065-.266.16-.347.286-.082.126-.122.265-.122.417,0,.234.089.43.266.586.178.156.438.234.779.234.338,0,.64-.074.903-.222s.457-.351.581-.608c.094-.198.142-.491.142-.879v-.322Z"/><path d="M339.705,343.777l.854.127c.035.264.135.455.298.576.218.162.516.244.894.244.406,0,.721-.082.942-.244.221-.163.371-.391.449-.684.045-.18.066-.556.063-1.129-.385.453-.863.68-1.436.68-.713,0-1.265-.258-1.655-.771-.391-.515-.586-1.132-.586-1.852,0-.494.089-.951.269-1.369.179-.418.438-.741.778-.969.341-.229.74-.342,1.199-.342.611,0,1.116.247,1.514.742v-.625h.811v4.482c0,.807-.082,1.379-.247,1.716-.164.337-.425.603-.781.798s-.795.293-1.315.293c-.619,0-1.118-.139-1.499-.417s-.565-.697-.552-1.257ZM340.433,340.662c0,.68.135,1.176.405,1.488.27.312.608.469,1.016.469.403,0,.742-.154,1.016-.466s.41-.798.41-1.462c0-.635-.141-1.113-.423-1.436-.281-.322-.621-.484-1.018-.484-.391,0-.723.159-.996.477s-.41.789-.41,1.414Z"/><path d="M348.978,341.678l.908.111c-.144.531-.409.943-.796,1.236-.388.293-.883.439-1.484.439-.759,0-1.36-.234-1.805-.701s-.666-1.122-.666-1.965c0-.873.225-1.55.674-2.031.449-.482,1.031-.723,1.748-.723.693,0,1.26.235,1.699.707.439.473.659,1.137.659,1.992,0,.053-.002.131-.005.234h-3.867c.032.57.193,1.006.483,1.309.289.303.65.455,1.084.455.322,0,.597-.085.825-.254.228-.17.408-.439.542-.811ZM346.092,340.256h2.896c-.039-.436-.15-.763-.332-.98-.28-.339-.644-.508-1.089-.508-.404,0-.743.135-1.019.404-.274.271-.427.632-.456,1.084Z"/><path d="M26.57,385.798l.947.239c-.199.777-.556,1.371-1.072,1.779-.516.409-1.146.613-1.892.613-.771,0-1.399-.157-1.882-.472-.483-.313-.851-.769-1.104-1.364s-.378-1.235-.378-1.919c0-.746.143-1.396.427-1.951.285-.555.69-.977,1.216-1.265s1.104-.432,1.736-.432c.716,0,1.318.182,1.807.547.488.364.829.877,1.021,1.538l-.933.22c-.166-.521-.407-.9-.723-1.138-.316-.238-.713-.356-1.191-.356-.55,0-1.01.132-1.379.396s-.629.617-.779,1.062-.225.902-.225,1.375c0,.608.089,1.14.266,1.594s.453.794.828,1.019.78.337,1.216.337c.531,0,.98-.153,1.348-.459.368-.307.617-.761.747-1.362Z"/><path d="M31.97,388.308v-.762c-.404.586-.952.879-1.646.879-.306,0-.592-.059-.857-.176s-.462-.265-.591-.442c-.128-.177-.219-.395-.271-.651-.036-.173-.054-.446-.054-.82v-3.213h.879v2.876c0,.459.018.768.054.928.055.23.172.412.352.544s.4.198.664.198.511-.067.742-.203c.231-.135.395-.318.491-.552.096-.232.144-.57.144-1.013v-2.778h.879v5.186h-.786Z"/><path d="M33.782,386.76l.869-.137c.049.348.185.615.408.801s.535.278.935.278c.404,0,.703-.082.898-.247.195-.164.293-.357.293-.578,0-.199-.086-.355-.259-.469-.121-.078-.42-.178-.898-.298-.645-.163-1.091-.304-1.34-.423-.249-.118-.438-.283-.566-.493s-.193-.441-.193-.695c0-.231.053-.445.159-.643.106-.196.25-.36.432-.49.137-.102.323-.187.559-.257.236-.069.489-.104.759-.104.407,0,.764.059,1.072.176s.535.275.681.476.248.468.303.804l-.859.117c-.039-.268-.152-.476-.339-.625-.187-.15-.452-.225-.793-.225-.404,0-.692.066-.864.2-.172.133-.259.289-.259.469,0,.113.036.216.107.308.072.094.184.172.337.234.088.032.347.107.776.225.622.166,1.056.302,1.301.407.246.106.438.26.579.462.14.201.21.452.21.752,0,.293-.085.568-.256.827s-.417.459-.74.601-.687.213-1.094.213c-.674,0-1.188-.141-1.541-.42-.353-.28-.579-.695-.676-1.245Z"/><path d="M41.052,387.521l.127.776c-.248.052-.469.078-.664.078-.319,0-.566-.051-.742-.151-.176-.102-.299-.233-.371-.398-.072-.164-.107-.51-.107-1.037v-2.983h-.645v-.684h.645v-1.284l.874-.527v1.812h.884v.684h-.884v3.032c0,.25.016.411.046.483.031.071.082.128.151.171.07.042.17.063.3.063.098,0,.226-.012.386-.034Z"/><path d="M41.584,385.715c0-.961.267-1.672.801-2.134.446-.385.99-.576,1.631-.576.713,0,1.295.233,1.748.7.453.468.679,1.112.679,1.937,0,.667-.1,1.192-.3,1.574-.2.383-.492.68-.874.892-.382.211-.8.317-1.252.317-.726,0-1.312-.233-1.76-.698-.448-.466-.671-1.137-.671-2.012ZM42.488,385.715c0,.664.145,1.161.435,1.491.29.331.654.496,1.094.496.436,0,.799-.166,1.089-.498s.435-.839.435-1.519c0-.642-.146-1.127-.437-1.458-.292-.33-.653-.495-1.086-.495-.439,0-.804.164-1.094.493-.29.328-.435.825-.435,1.489Z"/><path d="M47.473,388.308v-5.186h.786v.728c.163-.254.379-.458.649-.613.27-.154.578-.231.923-.231.384,0,.699.079.945.239.246.159.419.382.52.669.41-.605.944-.908,1.602-.908.514,0,.91.143,1.187.427.277.285.415.724.415,1.316v3.56h-.874v-3.267c0-.352-.028-.604-.085-.76-.057-.154-.16-.279-.31-.373-.15-.095-.326-.142-.527-.142-.365,0-.667.121-.908.363-.241.243-.361.631-.361,1.165v3.013h-.879v-3.369c0-.391-.072-.684-.215-.879s-.377-.293-.703-.293c-.248,0-.476.064-.686.195-.21.13-.362.32-.457.571-.094.25-.142.611-.142,1.084v2.69h-.879Z"/><path d="M59.353,386.638l.908.112c-.143.53-.409.942-.796,1.235s-.882.439-1.484.439c-.758,0-1.36-.233-1.804-.701-.444-.467-.667-1.122-.667-1.965,0-.873.225-1.55.674-2.031.449-.482,1.032-.723,1.748-.723.693,0,1.26.235,1.699.708.439.472.659,1.136.659,1.992,0,.052-.001.13-.005.234h-3.867c.033.569.194,1.006.483,1.309s.651.454,1.084.454c.322,0,.597-.085.825-.254.228-.17.409-.439.542-.811ZM56.467,385.217h2.896c-.039-.437-.15-.764-.332-.981-.28-.339-.643-.508-1.089-.508-.404,0-.743.135-1.018.405-.275.27-.427.631-.457,1.084Z"/><path d="M61.355,388.308v-5.186h.791v.786c.202-.368.388-.61.559-.728s.359-.176.564-.176c.296,0,.597.094.903.283l-.303.815c-.215-.127-.43-.19-.645-.19-.192,0-.365.058-.518.173-.153.116-.262.276-.327.481-.098.312-.146.654-.146,1.025v2.715h-.879Z"/><path d="M70.837,388.308v-.654c-.329.514-.812.771-1.45.771-.414,0-.793-.114-1.14-.342-.347-.229-.615-.546-.806-.955-.19-.408-.286-.878-.286-1.408,0-.518.086-.987.259-1.409.172-.421.431-.744.776-.969s.731-.337,1.157-.337c.312,0,.591.065.835.197s.443.304.596.516v-2.568h.874v7.158h-.815ZM68.059,385.72c0,.664.14,1.16.42,1.489.28.328.61.493.991.493.384,0,.71-.157.979-.472.269-.313.403-.793.403-1.438,0-.71-.137-1.23-.41-1.562s-.61-.498-1.011-.498c-.391,0-.717.159-.979.479-.262.318-.393.821-.393,1.509Z"/><path d="M76.418,387.668c-.326.276-.639.472-.94.586-.301.113-.624.171-.969.171-.57,0-1.007-.14-1.313-.418s-.459-.634-.459-1.066c0-.254.058-.486.173-.696s.267-.378.454-.505.398-.224.632-.288c.172-.046.433-.09.781-.132.709-.085,1.232-.186,1.567-.303.003-.121.005-.197.005-.229,0-.358-.083-.61-.249-.757-.225-.199-.558-.298-1.001-.298-.414,0-.719.072-.916.217-.197.146-.343.401-.437.77l-.859-.117c.078-.368.207-.665.386-.892.179-.226.438-.4.776-.522s.731-.183,1.177-.183c.443,0,.802.052,1.079.156.277.104.48.235.61.393.13.158.221.357.273.599.029.149.044.42.044.811v1.172c0,.816.019,1.334.056,1.55.038.217.111.424.222.623h-.918c-.091-.183-.15-.396-.176-.64ZM76.345,385.705c-.319.13-.797.24-1.436.332-.361.052-.617.11-.767.176-.15.064-.265.16-.347.285-.082.126-.122.265-.122.418,0,.234.089.43.266.586s.437.234.779.234c.338,0,.64-.074.903-.223.264-.147.458-.351.581-.607.094-.199.142-.492.142-.879v-.322Z"/><path d="M80.515,387.521l.127.776c-.248.052-.469.078-.664.078-.319,0-.566-.051-.742-.151-.176-.102-.299-.233-.371-.398-.072-.164-.107-.51-.107-1.037v-2.983h-.645v-.684h.645v-1.284l.874-.527v1.812h.884v.684h-.884v3.032c0,.25.016.411.046.483.031.071.082.128.151.171.07.042.17.063.3.063.098,0,.226-.012.386-.034Z"/><path d="M84.758,387.668c-.326.276-.639.472-.94.586-.301.113-.624.171-.969.171-.57,0-1.007-.14-1.313-.418s-.459-.634-.459-1.066c0-.254.058-.486.173-.696s.267-.378.454-.505.398-.224.632-.288c.172-.046.433-.09.781-.132.709-.085,1.232-.186,1.567-.303.003-.121.005-.197.005-.229,0-.358-.083-.61-.249-.757-.225-.199-.558-.298-1.001-.298-.414,0-.719.072-.916.217-.197.146-.343.401-.437.77l-.859-.117c.078-.368.207-.665.386-.892.179-.226.438-.4.776-.522s.731-.183,1.177-.183c.443,0,.802.052,1.079.156.277.104.48.235.61.393.13.158.221.357.273.599.029.149.044.42.044.811v1.172c0,.816.019,1.334.056,1.55.038.217.111.424.222.623h-.918c-.091-.183-.15-.396-.176-.64ZM84.685,385.705c-.319.13-.797.24-1.436.332-.361.052-.617.11-.767.176-.15.064-.265.16-.347.285-.082.126-.122.265-.122.418,0,.234.089.43.266.586s.437.234.779.234c.338,0,.64-.074.903-.223.264-.147.458-.351.581-.607.094-.199.142-.492.142-.879v-.322Z"/><path d="M4.786,415.445v-7.158h3.174c.638,0,1.123.064,1.455.193.332.128.597.355.796.681.199.326.298.686.298,1.079,0,.508-.165.937-.493,1.284-.329.349-.836.57-1.523.664.25.121.441.239.571.356.277.254.539.571.786.952l1.245,1.948h-1.191l-.947-1.489c-.277-.43-.504-.758-.684-.986-.179-.228-.339-.387-.481-.479-.142-.091-.286-.154-.432-.19-.107-.022-.283-.034-.527-.034h-1.099v3.179h-.947ZM5.733,411.446h2.036c.433,0,.771-.045,1.016-.134.244-.09.43-.233.557-.43.127-.197.19-.411.19-.643,0-.338-.123-.616-.369-.835-.246-.218-.634-.327-1.165-.327h-2.266v2.368Z"/><path d="M15.431,413.775l.908.112c-.143.531-.409.942-.796,1.235s-.882.439-1.484.439c-.758,0-1.36-.233-1.804-.7-.444-.468-.667-1.122-.667-1.966,0-.872.225-1.549.674-2.031.449-.481,1.032-.723,1.748-.723.693,0,1.26.236,1.699.708.439.473.659,1.137.659,1.992,0,.053-.001.131-.005.234h-3.867c.033.57.194,1.006.483,1.309s.651.454,1.084.454c.322,0,.597-.084.825-.254.228-.169.409-.439.542-.811ZM12.545,412.354h2.896c-.039-.436-.15-.763-.332-.981-.28-.338-.643-.508-1.089-.508-.404,0-.743.136-1.018.405-.275.271-.427.632-.457,1.084Z"/><path d="M17.091,413.897l.869-.137c.049.349.185.615.408.801s.535.278.935.278c.404,0,.703-.082.898-.246.195-.165.293-.357.293-.579,0-.198-.086-.354-.259-.469-.121-.078-.42-.177-.898-.298-.645-.162-1.091-.304-1.34-.422-.249-.119-.438-.283-.566-.493s-.193-.442-.193-.696c0-.23.053-.445.159-.642.106-.197.25-.36.432-.491.137-.101.323-.187.559-.256.236-.07.489-.105.759-.105.407,0,.764.059,1.072.176s.535.276.681.477.248.468.303.803l-.859.117c-.039-.267-.152-.475-.339-.625-.187-.149-.452-.225-.793-.225-.404,0-.692.067-.864.2-.172.134-.259.29-.259.469,0,.114.036.217.107.308.072.095.184.173.337.234.088.033.347.107.776.225.622.166,1.056.302,1.301.408.246.105.438.26.579.461.14.202.21.453.21.752,0,.293-.085.569-.256.828s-.417.459-.74.601-.687.212-1.094.212c-.674,0-1.188-.14-1.541-.42-.353-.279-.579-.694-.676-1.245Z"/><path d="M22.115,412.853c0-.96.267-1.671.801-2.134.446-.384.99-.576,1.631-.576.713,0,1.295.233,1.748.701.453.467.679,1.112.679,1.936,0,.668-.1,1.192-.3,1.575-.2.382-.492.68-.874.891-.382.212-.8.317-1.252.317-.726,0-1.312-.232-1.76-.698-.448-.465-.671-1.136-.671-2.012ZM23.019,412.853c0,.664.145,1.161.435,1.492.29.33.654.495,1.094.495.436,0,.799-.166,1.089-.498s.435-.838.435-1.519c0-.641-.146-1.127-.437-1.457-.292-.331-.653-.496-1.086-.496-.439,0-.804.165-1.094.493-.29.329-.435.825-.435,1.489Z"/><path d="M31.402,415.445v-.762c-.404.586-.952.879-1.646.879-.306,0-.592-.059-.857-.176s-.462-.265-.591-.441c-.128-.178-.219-.395-.271-.652-.036-.172-.054-.445-.054-.82v-3.213h.879v2.876c0,.459.018.769.054.928.055.231.172.413.352.545s.4.197.664.197.511-.067.742-.202c.231-.136.395-.319.491-.552.096-.233.144-.57.144-1.014v-2.778h.879v5.186h-.786Z"/><path d="M33.556,415.445v-5.186h.791v.786c.202-.367.388-.61.559-.728s.359-.176.564-.176c.296,0,.597.095.903.283l-.303.815c-.215-.127-.43-.19-.645-.19-.192,0-.365.058-.518.174-.153.115-.262.275-.327.48-.098.312-.146.654-.146,1.025v2.715h-.879Z"/><path d="M40.279,413.546l.864.112c-.094.596-.336,1.062-.725,1.399s-.867.505-1.433.505c-.709,0-1.28-.231-1.711-.695s-.647-1.129-.647-1.995c0-.56.093-1.05.278-1.47s.468-.734.847-.944.792-.315,1.238-.315c.563,0,1.024.143,1.382.428.358.284.587.689.688,1.213l-.854.132c-.082-.348-.226-.61-.432-.786s-.457-.264-.75-.264c-.443,0-.802.159-1.079.477s-.415.819-.415,1.506c0,.697.133,1.203.4,1.519.267.316.615.474,1.045.474.345,0,.633-.105.864-.317.231-.211.377-.537.439-.977Z"/><path d="M45.445,413.775l.908.112c-.143.531-.409.942-.796,1.235s-.882.439-1.484.439c-.758,0-1.36-.233-1.804-.7-.444-.468-.667-1.122-.667-1.966,0-.872.225-1.549.674-2.031.449-.481,1.032-.723,1.748-.723.693,0,1.26.236,1.699.708.439.473.659,1.137.659,1.992,0,.053-.001.131-.005.234h-3.867c.033.57.194,1.006.483,1.309s.651.454,1.084.454c.322,0,.597-.084.825-.254.228-.169.409-.439.542-.811ZM42.56,412.354h2.896c-.039-.436-.15-.763-.332-.981-.28-.338-.643-.508-1.089-.508-.404,0-.743.136-1.018.405-.275.271-.427.632-.457,1.084Z"/><path d="M50.074,415.875l.854.127c.036.264.135.456.298.576.218.163.516.244.894.244.407,0,.721-.081.942-.244.221-.162.371-.391.449-.684.045-.179.067-.555.063-1.128-.384.453-.863.679-1.436.679-.713,0-1.265-.257-1.655-.771-.391-.514-.586-1.131-.586-1.851,0-.494.089-.951.269-1.369.179-.419.438-.741.779-.97.34-.228.74-.342,1.199-.342.612,0,1.117.248,1.514.742v-.625h.811v4.482c0,.808-.082,1.38-.247,1.717s-.425.603-.781.798-.795.293-1.316.293c-.619,0-1.118-.139-1.499-.417s-.565-.697-.552-1.258ZM50.802,412.76c0,.681.135,1.177.405,1.489s.609.469,1.016.469c.404,0,.742-.155,1.016-.466.273-.312.41-.799.41-1.463,0-.635-.141-1.113-.422-1.436s-.621-.483-1.018-.483c-.391,0-.723.159-.996.477s-.41.788-.41,1.413Z"/><path d="M55.787,415.445v-5.186h.791v.786c.202-.367.388-.61.559-.728s.359-.176.564-.176c.296,0,.597.095.903.283l-.303.815c-.215-.127-.43-.19-.645-.19-.192,0-.365.058-.518.174-.153.115-.262.275-.327.48-.098.312-.146.654-.146,1.025v2.715h-.879Z"/><path d="M58.8,412.853c0-.96.267-1.671.801-2.134.446-.384.99-.576,1.631-.576.713,0,1.295.233,1.748.701.453.467.679,1.112.679,1.936,0,.668-.1,1.192-.3,1.575-.2.382-.492.68-.874.891-.382.212-.8.317-1.252.317-.726,0-1.312-.232-1.76-.698-.448-.465-.671-1.136-.671-2.012ZM59.703,412.853c0,.664.145,1.161.435,1.492.29.33.654.495,1.094.495.436,0,.799-.166,1.089-.498s.435-.838.435-1.519c0-.641-.146-1.127-.437-1.457-.292-.331-.653-.496-1.086-.496-.439,0-.804.165-1.094.493-.29.329-.435.825-.435,1.489Z"/><path d="M68.087,415.445v-.762c-.404.586-.952.879-1.646.879-.306,0-.592-.059-.857-.176s-.462-.265-.591-.441c-.128-.178-.219-.395-.271-.652-.036-.172-.054-.445-.054-.82v-3.213h.879v2.876c0,.459.018.769.054.928.055.231.172.413.352.545s.4.197.664.197.511-.067.742-.202c.231-.136.395-.319.491-.552.096-.233.144-.57.144-1.014v-2.778h.879v5.186h-.786Z"/><path d="M70.25,417.433v-7.173h.801v.674c.189-.264.402-.461.64-.593s.526-.198.864-.198c.443,0,.833.114,1.172.342.338.229.594.55.767.965s.259.87.259,1.364c0,.531-.095,1.009-.286,1.434s-.467.75-.83.977c-.363.226-.745.339-1.145.339-.293,0-.556-.062-.789-.186-.233-.123-.424-.279-.574-.469v2.524h-.879ZM71.046,412.882c0,.668.135,1.161.405,1.479.27.319.597.479.981.479.391,0,.725-.165,1.003-.495.278-.331.417-.843.417-1.536,0-.66-.136-1.155-.408-1.484-.272-.328-.597-.493-.974-.493-.375,0-.706.175-.994.525-.288.35-.432.858-.432,1.525Z"/><polyline points="293.712 306.995 309.691 306.995 309.691 374.365 293.712 374.365" fill="none" stroke="#3376d0" stroke-linecap="round" stroke-linejoin="round"/><polyline points="293.712 208.677 309.691 208.677 309.691 276.047 293.712 276.047" fill="none" stroke="#3376d0" stroke-linecap="round" stroke-linejoin="round"/><polyline points="293.712 111.461 309.691 111.461 309.691 178.832 293.712 178.832" fill="none" stroke="#3376d0" stroke-linecap="round" stroke-linejoin="round"/><line x1="81.351" y1="48.152" x2="183.533" y2="202.129" fill="none" stroke="#fff" stroke-miterlimit="10" stroke-width="3"/><line x1="81.351" y1="48.152" x2="183.533" y2="202.129" fill="none" stroke="#231f20" stroke-miterlimit="10" stroke-width=".75"/><polygon points="180.928 202.939 185.616 205.268 185.29 200.044 180.928 202.939" fill="#231f20"/><line x1="211.465" y1="39.902" x2="103.909" y2="202.603" fill="none" stroke="#fff" stroke-miterlimit="10" stroke-width="3"/><line x1="211.465" y1="39.902" x2="103.909" y2="202.603" fill="none" stroke="#231f20" stroke-miterlimit="10" stroke-width=".75"/><polygon points="102.148 200.521 101.832 205.746 106.516 203.408 102.148 200.521" fill="#231f20"/><circle cx="145.524" cy="144.949" r="22.5" transform="translate(-20.864 265.375) rotate(-80.783)" fill="#d0d2d3"/><path d="M126.138,145.325l5.138,5.153c.326.286.856.075.856-.336v-1.587c0-.576.467-1.042,1.042-1.042h9.383c.576,0,1.042-.466,1.042-1.042v-2.72c0-.576-.467-1.042-1.042-1.042h-9.383c-.573,0-1.042-.469-1.042-1.042v-1.752c0-.411-.548-.61-.875-.324l-5.124,5.118c-.086.088-.125.199-.125.309s.045.22.13.308Z" fill="#5ac0ed" stroke="#1e4a93" stroke-linecap="round" stroke-linejoin="round" stroke-width=".501"/><path d="M164.91,144.74l-5.138-5.153c-.326-.286-.856-.075-.856.336v1.587c0,.576-.467,1.042-1.042,1.042h-9.383c-.576,0-1.042.466-1.042,1.042v2.72c0,.576.467,1.042,1.042,1.042h9.383c.573,0,1.042.469,1.042,1.042v1.752c0,.411.548.61.875.324l5.124-5.118c.086-.088.125-.199.125-.309s-.045-.22-.13-.308Z" fill="#5ac0ed" stroke="#1e4a93" stroke-linecap="round" stroke-linejoin="round" stroke-width=".501"/><path d="M145.816,164.418l5.153-5.138c.286-.326.075-.856-.336-.856h-1.587c-.576,0-1.042-.467-1.042-1.042v-9.383c0-.576-.466-1.042-1.042-1.042h-2.72c-.576,0-1.042.467-1.042,1.042v9.383c0,.573-.469,1.042-1.042,1.042h-1.752c-.411,0-.61.548-.324.875l5.118,5.124c.088.086.199.125.309.125s.22-.045.308-.13Z" fill="#5ac0ed" stroke="#1e4a93" stroke-linecap="round" stroke-linejoin="round" stroke-width=".501"/><path d="M145.231,125.646l-5.153,5.138c-.286.326-.075.856.336.856h1.587c.576,0,1.042.467,1.042,1.042v9.383c0,.576.466,1.042,1.042,1.042h2.72c.576,0,1.042-.467,1.042-1.042v-9.383c0-.573.469-1.042,1.042-1.042h1.752c.411,0,.61-.548.324-.875l-5.118-5.124c-.088-.086-.199-.125-.309-.125s-.22.045-.308.13Z" fill="#5ac0ed" stroke="#1e4a93" stroke-linecap="round" stroke-linejoin="round" stroke-width=".501"/><circle cx="145.524" cy="145.032" r="5.494" fill="#a2ce60" stroke="#1e4a93" stroke-linecap="round" stroke-linejoin="round" stroke-width="1.042"/><circle cx="145.524" cy="144.949" r="22.5" transform="translate(-20.864 265.375) rotate(-80.783)" fill="none" stroke="#000" stroke-miterlimit="10" stroke-width="1.042"/><circle cx="86.907" cy="52.471" r="22.5" fill="#1e4a93"/><ellipse cx="86.907" cy="52.471" rx="18.733" ry="18.741" fill="#acdff6" stroke="#fff" stroke-miterlimit="10" stroke-width="1.097"/><path d="M77.505,46.45c-.327-3.433,2.061-6.611,5.411-7.207,3.35-.596,6.336,1.357,7.413,4.262,0,0,.001,0,.003.001.738-.819,1.843-1.289,3.061-1.096,1.319.21,2.404,1.23,2.756,2.536.148.552.151,1.063.054,1.547,0,.001.001.001.001.001,2.592.435,4.558,2.756,4.441,5.531-.122,2.913-2.612,5.152-5.486,5.152h-16.681c-2.935,0-5.312-2.41-5.312-5.387,0-5.237,4.341-5.323,4.339-5.341Z" fill="#fff"/><path d="M94.92,55.344h-1.072c-.135,0-.252-.083-.293-.212-.128-.406-.288-.794-.485-1.163-.064-.12-.046-.266.051-.363l.759-.758c.24-.24.24-.63,0-.871l-1.742-1.742c-.24-.241-.63-.241-.87,0l-.76.759c-.096.096-.243.115-.363.052-.371-.196-.746-.356-1.151-.483-.129-.041-.208-.158-.208-.293v-1.07c0-.34-.3-.652-.64-.652h-2.463c-.341,0-.652.312-.652.652v1.07c0,.135-.072.252-.202.293-.406.126-.788.288-1.156.483-.12.063-.262.044-.359-.052l-.755-.757c-.241-.24-.629-.24-.871,0l-1.741,1.742c-.24.241-.24.63,0,.871l.756.756c.096.097.116.243.052.364-.195.369-.357.754-.484,1.161-.04.129-.157.214-.293.214h-1.07c-.34,0-.584.287-.584.627v2.464c0,.34.244.575.584.575h1.07c.135,0,.252.11.293.24.127.407.288.807.483,1.177.064.121.045.273-.052.369l-.757.759c-.241.241-.241.632,0,.873l1.742,1.742c.241.241.63.241.871,0l.756-.756c.095-.095.241-.115.362-.052.372.194.744.358,1.152.484.13.041.203.157.203.294v1.072c0,.34.311.594.652.594h2.463c.34,0,.64-.254.64-.594v-1.073c0-.136.078-.253.208-.293.406-.126.79-.289,1.161-.484.12-.063.264-.044.36.052l.756.758c.24.241.63.241.87,0l1.742-1.741c.241-.241.24-.631,0-.872l-.759-.759c-.096-.096-.115-.243-.052-.363.195-.369.358-.78.483-1.187.041-.129.158-.24.294-.24h1.072c.341,0,.573-.235.573-.575v-2.464c0-.34-.232-.627-.572-.627ZM86.916,60.9c-2.04,0-3.694-1.653-3.694-3.693s1.654-3.693,3.694-3.693,3.693,1.653,3.693,3.693-1.654,3.693-3.693,3.693Z" fill="#26a9e0"/><circle cx="86.907" cy="57.177" r="1.332" fill="#26a9e0"/><rect x="160.997" y="22.963" width="32.993" height="49.914" fill="#999"/><path d="M192.381,24.594v22.588h-29.775v-22.588h29.775M193.961,23.014h-32.935v25.747h32.935v-25.747h0Z" fill="#58595b"/><path d="M192.381,48.752v22.597h-29.775v-22.597h29.775M193.961,47.172h-32.935v25.757h32.935v-25.757h0Z" fill="#58595b"/><path d="M193.571,23.423v49.097h-32.155V23.423h32.155M194.436,22.558h-33.884v50.826h33.884V22.558h0Z" fill="#231f20"/><rect x="164.18" y="50.351" width="26.629" height="19.374" fill="#5ac0ed"/><rect x="164.18" y="50.351" width="26.629" height="2.052" fill="#929497"/><circle cx="165.819" cy="51.504" r=".475" fill="#58595b"/><line x1="164.18" y1="52.508" x2="190.809" y2="52.508" fill="none" stroke="#626366" stroke-miterlimit="10" stroke-width=".314"/><path d="M177.414,64.665v-.017c0-1.639,1.322-2.969,3.084-2.969s3.068,1.313,3.068,2.953v.016c0,1.64-1.322,2.97-3.084,2.97s-3.067-1.313-3.067-2.953ZM181.941,64.665v-.017c0-.832-.587-1.542-1.46-1.542s-1.452.702-1.452,1.526v.016c0,.824.596,1.542,1.468,1.542.865,0,1.444-.701,1.444-1.525Z" fill="#fff"/><path d="M183.907,66.656l.881-1.052c.571.449,1.191.685,1.852.685.432,0,.661-.146.661-.392v-.016c0-.245-.187-.367-.971-.555-1.216-.277-2.154-.62-2.154-1.786v-.017c0-1.06.841-1.827,2.211-1.827.971,0,1.729.261,2.349.759l-.791,1.118c-.522-.375-1.093-.563-1.599-.563-.384,0-.571.155-.571.367v.016c0,.261.196.376.995.555,1.305.285,2.121.71,2.121,1.778v.016c0,1.167-.922,1.86-2.308,1.86-1.012,0-1.966-.319-2.676-.947Z" fill="#fff"/><path d="M190.533,50.625v18.85h-26.078v-18.85h26.078M191.16,49.998h-27.333v20.105h27.333v-20.105h0Z" fill="#231f20"/><rect x="164.18" y="26.189" width="26.629" height="19.374" fill="#a2ce60"/><rect x="164.18" y="26.189" width="26.629" height="2.052" fill="#929497"/><circle cx="165.819" cy="27.342" r=".475" fill="#58595b"/><line x1="164.18" y1="28.346" x2="190.809" y2="28.346" fill="none" stroke="#626366" stroke-miterlimit="10" stroke-width=".314"/><path d="M174.242,37.591h1.525l2.431,5.751h-1.697l-.408-1.028h-2.211l-.408,1.028h-1.656l2.423-5.751ZM175.629,41.083l-.636-1.615-.645,1.615h1.281Z" fill="#fff"/><path d="M178.753,37.632h2.455c1.436,0,2.365.742,2.365,1.999v.016c0,1.354-1.036,2.064-2.447,2.064h-.792v1.632h-1.582v-5.71ZM181.094,40.471c.555,0,.906-.302.906-.751v-.016c0-.489-.351-.742-.914-.742h-.751v1.509h.759Z" fill="#fff"/><path d="M184.243,37.632h2.455c1.436,0,2.365.742,2.365,1.999v.016c0,1.354-1.036,2.064-2.447,2.064h-.792v1.632h-1.582v-5.71ZM186.584,40.471c.555,0,.906-.302.906-.751v-.016c0-.489-.351-.742-.914-.742h-.751v1.509h.759Z" fill="#fff"/><path d="M190.533,26.463v18.85h-26.078v-18.85h26.078M191.16,25.836h-27.333v20.105h27.333v-20.105h0Z" fill="#231f20"/><rect x="208.42" y="22.963" width="32.993" height="49.914" fill="#999"/><path d="M239.804,24.594v22.588h-29.775v-22.588h29.775M241.384,23.014h-32.935v25.747h32.935v-25.747h0Z" fill="#58595b"/><path d="M239.804,48.752v22.597h-29.775v-22.597h29.775M241.384,47.172h-32.935v25.757h32.935v-25.757h0Z" fill="#58595b"/><path d="M240.994,23.423v49.097h-32.155V23.423h32.155M241.859,22.558h-33.884v50.826h33.884V22.558h0Z" fill="#231f20"/><rect x="211.603" y="50.351" width="26.629" height="19.374" fill="#5ac0ed"/><rect x="211.603" y="50.351" width="26.629" height="2.052" fill="#929497"/><circle cx="213.242" cy="51.504" r=".475" fill="#58595b"/><line x1="211.603" y1="52.508" x2="238.232" y2="52.508" fill="none" stroke="#626366" stroke-miterlimit="10" stroke-width=".314"/><path d="M224.837,64.665v-.017c0-1.639,1.322-2.969,3.084-2.969s3.068,1.313,3.068,2.953v.016c0,1.64-1.322,2.97-3.084,2.97s-3.067-1.313-3.067-2.953ZM229.364,64.665v-.017c0-.832-.587-1.542-1.46-1.542s-1.452.702-1.452,1.526v.016c0,.824.596,1.542,1.468,1.542.865,0,1.444-.701,1.444-1.525Z" fill="#fff"/><path d="M231.33,66.656l.881-1.052c.571.449,1.191.685,1.852.685.432,0,.661-.146.661-.392v-.016c0-.245-.187-.367-.971-.555-1.216-.277-2.154-.62-2.154-1.786v-.017c0-1.06.841-1.827,2.211-1.827.971,0,1.729.261,2.349.759l-.791,1.118c-.522-.375-1.093-.563-1.599-.563-.384,0-.571.155-.571.367v.016c0,.261.196.376.995.555,1.305.285,2.121.71,2.121,1.778v.016c0,1.167-.922,1.86-2.308,1.86-1.012,0-1.966-.319-2.676-.947Z" fill="#fff"/><path d="M237.956,50.625v18.85h-26.078v-18.85h26.078M238.583,49.998h-27.333v20.105h27.333v-20.105h0Z" fill="#231f20"/><rect x="211.603" y="26.189" width="26.629" height="19.374" fill="#a2ce60"/><rect x="211.603" y="26.189" width="26.629" height="2.052" fill="#929497"/><circle cx="213.242" cy="27.342" r=".475" fill="#58595b"/><line x1="211.603" y1="28.346" x2="238.232" y2="28.346" fill="none" stroke="#626366" stroke-miterlimit="10" stroke-width=".314"/><path d="M221.665,37.591h1.525l2.431,5.751h-1.697l-.408-1.028h-2.211l-.408,1.028h-1.656l2.423-5.751ZM223.052,41.083l-.636-1.615-.645,1.615h1.281Z" fill="#fff"/><path d="M226.177,37.632h2.455c1.436,0,2.365.742,2.365,1.999v.016c0,1.354-1.036,2.064-2.447,2.064h-.792v1.632h-1.582v-5.71ZM228.518,40.471c.555,0,.906-.302.906-.751v-.016c0-.489-.351-.742-.914-.742h-.751v1.509h.759Z" fill="#fff"/><path d="M231.667,37.632h2.455c1.436,0,2.365.742,2.365,1.999v.016c0,1.354-1.036,2.064-2.447,2.064h-.792v1.632h-1.582v-5.71ZM234.007,40.471c.555,0,.906-.302.906-.751v-.016c0-.489-.351-.742-.914-.742h-.751v1.509h.759Z" fill="#fff"/><path d="M237.956,26.463v18.85h-26.078v-18.85h26.078M238.583,25.836h-27.333v20.105h27.333v-20.105h0Z" fill="#231f20"/><rect x="184.709" y="30.034" width="32.993" height="49.914" fill="#999"/><path d="M216.093,31.665v22.588h-29.775v-22.588h29.775M217.673,30.085h-32.935v25.747h32.935v-25.747h0Z" fill="#58595b"/><path d="M216.093,55.822v22.597h-29.775v-22.597h29.775M217.673,54.242h-32.935v25.757h32.935v-25.757h0Z" fill="#58595b"/><path d="M217.283,30.494v49.097h-32.155V30.494h32.155M218.147,29.629h-33.884v50.826h33.884V29.629h0Z" fill="#231f20"/><rect x="187.891" y="57.421" width="26.629" height="19.374" fill="#5ac0ed"/><rect x="187.891" y="57.421" width="26.629" height="2.052" fill="#929497"/><circle cx="189.53" cy="58.574" r=".475" fill="#58595b"/><line x1="187.891" y1="59.578" x2="214.52" y2="59.578" fill="none" stroke="#626366" stroke-miterlimit="10" stroke-width=".314"/><path d="M201.125,71.736v-.017c0-1.639,1.322-2.969,3.084-2.969s3.068,1.313,3.068,2.953v.016c0,1.64-1.322,2.97-3.084,2.97s-3.067-1.313-3.067-2.953ZM205.653,71.736v-.017c0-.832-.587-1.542-1.46-1.542s-1.452.702-1.452,1.526v.016c0,.824.596,1.542,1.468,1.542.865,0,1.444-.701,1.444-1.525Z" fill="#fff"/><path d="M207.618,73.726l.881-1.052c.571.449,1.191.685,1.852.685.432,0,.661-.146.661-.392v-.016c0-.245-.187-.367-.971-.555-1.216-.277-2.154-.62-2.154-1.786v-.017c0-1.06.841-1.827,2.211-1.827.971,0,1.729.261,2.349.759l-.791,1.118c-.522-.375-1.093-.563-1.599-.563-.384,0-.571.155-.571.367v.016c0,.261.196.376.995.555,1.305.285,2.121.71,2.121,1.778v.016c0,1.167-.922,1.86-2.308,1.86-1.012,0-1.966-.319-2.676-.947Z" fill="#fff"/><path d="M214.244,57.696v18.85h-26.078v-18.85h26.078M214.872,57.068h-27.333v20.105h27.333v-20.105h0Z" fill="#231f20"/><rect x="187.891" y="33.259" width="26.629" height="19.374" fill="#a2ce60"/><rect x="187.891" y="33.259" width="26.629" height="2.052" fill="#929497"/><circle cx="189.53" cy="34.412" r=".475" fill="#58595b"/><line x1="187.891" y1="35.416" x2="214.52" y2="35.416" fill="none" stroke="#626366" stroke-miterlimit="10" stroke-width=".314"/><path d="M197.954,44.662h1.525l2.431,5.751h-1.697l-.408-1.028h-2.211l-.408,1.028h-1.656l2.423-5.751ZM199.34,48.154l-.636-1.615-.645,1.615h1.281Z" fill="#fff"/><path d="M202.465,44.703h2.455c1.436,0,2.365.742,2.365,1.999v.016c0,1.354-1.036,2.064-2.447,2.064h-.792v1.632h-1.582v-5.71ZM204.806,47.542c.555,0,.906-.302.906-.751v-.016c0-.489-.351-.742-.914-.742h-.751v1.509h.759Z" fill="#fff"/><path d="M207.955,44.703h2.455c1.436,0,2.365.742,2.365,1.999v.016c0,1.354-1.036,2.064-2.447,2.064h-.792v1.632h-1.582v-5.71ZM210.296,47.542c.555,0,.906-.302.906-.751v-.016c0-.489-.351-.742-.914-.742h-.751v1.509h.759Z" fill="#fff"/><path d="M214.244,33.534v18.85h-26.078v-18.85h26.078M214.872,32.906h-27.333v20.105h27.333v-20.105h0Z" fill="#231f20"/><line x1="94.904" y1="243.415" x2="121.413" y2="302.084" fill="none" stroke="#fff" stroke-miterlimit="10" stroke-width="3"/><line x1="94.904" y1="243.415" x2="121.413" y2="302.084" fill="none" stroke="#231f20" stroke-miterlimit="10" stroke-width=".75"/><polygon points="118.712 302.464 122.964 305.517 123.483 300.308 118.712 302.464" fill="#231f20"/><line x1="197.751" y1="243.415" x2="168.414" y2="302.084" fill="none" stroke="#fff" stroke-miterlimit="10" stroke-width="3"/><line x1="197.751" y1="243.415" x2="168.413" y2="302.084" fill="none" stroke="#231f20" stroke-miterlimit="10" stroke-width=".75"/><polygon points="166.415 300.228 166.728 305.453 171.097 302.57 166.415 300.228" fill="#231f20"/><rect x="51.702" y="206.816" width="187.643" height="72.623" fill="#f1f1f1" stroke="#000" stroke-miterlimit="10" stroke-width=".5"/><line x1="91.898" y1="236.741" x2="199.149" y2="236.746" fill="none" stroke="#fff" stroke-miterlimit="10" stroke-width="3"/><line x1="91.898" y1="236.741" x2="199.149" y2="236.746" fill="none" stroke="#231f20" stroke-miterlimit="10" stroke-width=".75"/><line x1="91.898" y1="250.447" x2="199.149" y2="250.452" fill="none" stroke="#fff" stroke-miterlimit="10" stroke-width="3"/><line x1="91.898" y1="250.447" x2="199.149" y2="250.452" fill="none" stroke="#231f20" stroke-miterlimit="10" stroke-width=".75"/><rect x="72.344" y="220.933" width="44.388" height="44.388" rx="3.6" ry="3.6" fill="#a3cf60"/><path d="M114.819,265.627h-40.563c-1.223,0-2.219-.996-2.219-2.219v-40.563c0-1.223.995-2.219,2.219-2.219h40.563c1.223,0,2.219.995,2.219,2.219v40.563c0,1.223-.996,2.219-2.219,2.219ZM74.811,221.838c-.862,0-1.562.701-1.562,1.562v39.453c0,.862.701,1.563,1.562,1.563h39.453c.862,0,1.563-.701,1.563-1.563v-39.453c0-.862-.701-1.562-1.563-1.562h-39.453Z" fill="#1e4a93"/><path d="M104.188,237.283c.336-3.523-2.116-6.785-5.553-7.396-3.439-.612-6.503,1.393-7.608,4.374,0,0-.001,0-.003.001-.758-.84-1.892-1.323-3.141-1.124-1.354.216-2.468,1.263-2.828,2.603-.152.566-.155,1.091-.056,1.588h-.001c-2.661.447-4.678,2.829-4.558,5.678.126,2.99,2.681,5.287,5.63,5.287h17.12c3.013,0,5.451-2.473,5.451-5.528,0-5.375-4.456-5.463-4.453-5.481Z" fill="#fff"/><path d="M77.976,258.475v-.019c0-1.856,1.465-3.377,3.48-3.377s3.461,1.502,3.461,3.359v.018c0,1.857-1.465,3.378-3.48,3.378s-3.462-1.502-3.462-3.359ZM83.415,258.475v-.019c0-1.12-.821-2.052-1.978-2.052s-1.959.914-1.959,2.034v.018c0,1.12.821,2.053,1.978,2.053s1.959-.914,1.959-2.034Z" fill="#fff"/><path d="M86.196,255.191h1.325l3.06,4.021v-4.021h1.418v6.531h-1.222l-3.163-4.152v4.152h-1.418v-6.531Z" fill="#fff"/><path d="M95.088,256.516h-1.987v-1.325h5.411v1.325h-1.987v5.206h-1.437v-5.206Z" fill="#fff"/><path d="M101.013,255.145h1.325l2.799,6.578h-1.502l-.597-1.465h-2.762l-.597,1.465h-1.465l2.799-6.578ZM102.525,258.989l-.867-2.118-.868,2.118h1.735Z" fill="#fff"/><path d="M106.146,255.191h2.668c1.558,0,2.501.923,2.501,2.258v.019c0,1.512-1.176,2.295-2.641,2.295h-1.092v1.959h-1.437v-6.531ZM108.721,258.484c.719,0,1.138-.429,1.138-.989v-.019c0-.644-.448-.989-1.166-.989h-1.11v1.996h1.138Z" fill="#fff"/><rect x="174.316" y="220.933" width="44.388" height="44.388" rx="3.6" ry="3.6" fill="#a3cf60"/><path d="M216.791,265.627h-40.563c-1.223,0-2.219-.996-2.219-2.219v-40.563c0-1.223.995-2.219,2.219-2.219h40.563c1.223,0,2.219.995,2.219,2.219v40.563c0,1.223-.996,2.219-2.219,2.219ZM176.783,221.838c-.862,0-1.562.701-1.562,1.562v39.453c0,.862.701,1.563,1.562,1.563h39.453c.862,0,1.563-.701,1.563-1.563v-39.453c0-.862-.701-1.562-1.563-1.562h-39.453Z" fill="#1e4a93"/><path d="M206.159,237.283c.336-3.523-2.116-6.785-5.553-7.396-3.439-.612-6.503,1.393-7.608,4.374,0,0-.001,0-.003.001-.758-.84-1.892-1.323-3.141-1.124-1.354.216-2.468,1.263-2.828,2.603-.152.566-.155,1.091-.056,1.588h-.001c-2.661.447-4.678,2.829-4.558,5.678.126,2.99,2.681,5.287,5.63,5.287h17.12c3.013,0,5.451-2.473,5.451-5.528,0-5.375-4.456-5.463-4.453-5.481Z" fill="#fff"/><path d="M179.947,258.475v-.019c0-1.856,1.465-3.377,3.48-3.377s3.461,1.502,3.461,3.359v.018c0,1.857-1.465,3.378-3.48,3.378s-3.462-1.502-3.462-3.359ZM185.386,258.475v-.019c0-1.12-.821-2.052-1.978-2.052s-1.959.914-1.959,2.034v.018c0,1.12.821,2.053,1.978,2.053s1.959-.914,1.959-2.034Z" fill="#fff"/><path d="M188.167,255.191h1.325l3.06,4.021v-4.021h1.418v6.531h-1.222l-3.163-4.152v4.152h-1.418v-6.531Z" fill="#fff"/><path d="M197.06,256.516h-1.987v-1.325h5.411v1.325h-1.987v5.206h-1.437v-5.206Z" fill="#fff"/><path d="M202.985,255.145h1.325l2.799,6.578h-1.502l-.597-1.465h-2.762l-.597,1.465h-1.465l2.799-6.578ZM204.496,258.989l-.867-2.118-.868,2.118h1.735Z" fill="#fff"/><path d="M208.117,255.191h2.668c1.558,0,2.501.923,2.501,2.258v.019c0,1.512-1.176,2.295-2.641,2.295h-1.092v1.959h-1.437v-6.531ZM210.692,258.484c.719,0,1.138-.429,1.138-.989v-.019c0-.644-.448-.989-1.166-.989h-1.11v1.996h1.138Z" fill="#fff"/><rect x="21.432" y="307.006" width="248.181" height="67.592" fill="none" stroke="#000" stroke-miterlimit="10" stroke-width=".5"/><polygon points="74.136 363.044 30.136 363.044 30.136 318.56 83.977 318.56 83.977 355.492 74.136 363.044" fill="#fff" stroke="#3376d0" stroke-linecap="round" stroke-linejoin="round"/><polyline points="83.844 355.492 75.5 355.331 74.136 363.044" fill="#fff" stroke="#3376d0" stroke-linecap="round" stroke-linejoin="round"/><path d="M35.571,342.816v-7.158h2.7c.475,0,.838.022,1.089.068.352.059.646.17.884.334.238.165.429.395.574.691.145.296.217.621.217.977,0,.608-.194,1.124-.581,1.545-.387.422-1.087.633-2.1.633h-1.836v2.91h-.947ZM36.519,339.062h1.851c.612,0,1.046-.114,1.304-.342.257-.229.386-.549.386-.962,0-.3-.076-.556-.227-.77-.151-.213-.351-.354-.598-.422-.16-.043-.454-.063-.884-.063h-1.831v2.559Z"/><path d="M45.513,342.177c-.326.276-.639.472-.94.586-.301.113-.624.171-.969.171-.57,0-1.007-.14-1.313-.418s-.459-.634-.459-1.066c0-.254.058-.486.173-.696s.267-.378.454-.505.398-.224.632-.288c.172-.046.433-.09.781-.132.709-.085,1.232-.186,1.567-.303.003-.121.005-.197.005-.229,0-.358-.083-.61-.249-.757-.225-.199-.558-.298-1.001-.298-.414,0-.719.072-.916.217-.197.146-.343.401-.437.77l-.859-.117c.078-.368.207-.665.386-.892.179-.226.438-.4.776-.522s.731-.183,1.177-.183c.443,0,.802.052,1.079.156.277.104.48.235.61.393.13.158.221.357.273.599.029.149.044.42.044.811v1.172c0,.816.019,1.334.056,1.55.038.217.111.424.222.623h-.918c-.091-.183-.15-.396-.176-.64ZM45.439,340.214c-.319.13-.797.24-1.436.332-.361.052-.617.11-.767.176-.15.064-.265.16-.347.285-.082.126-.122.265-.122.418,0,.234.089.43.266.586s.437.234.779.234c.338,0,.64-.074.903-.223.264-.147.458-.351.581-.607.094-.199.142-.492.142-.879v-.322Z"/><path d="M47.529,343.246l.854.127c.036.264.135.455.298.576.218.162.516.244.894.244.407,0,.721-.082.942-.244.221-.163.371-.391.449-.684.045-.18.067-.556.063-1.128-.384.452-.863.679-1.436.679-.713,0-1.265-.258-1.655-.771-.391-.515-.586-1.132-.586-1.851,0-.495.089-.951.269-1.37.179-.418.438-.741.779-.969.34-.229.74-.342,1.199-.342.612,0,1.117.247,1.514.742v-.625h.811v4.482c0,.807-.082,1.379-.247,1.716s-.425.604-.781.799-.795.293-1.316.293c-.619,0-1.118-.14-1.499-.418s-.565-.697-.552-1.257ZM48.257,340.131c0,.68.135,1.177.405,1.489s.609.469,1.016.469c.404,0,.742-.155,1.016-.467.273-.311.41-.798.41-1.462,0-.635-.141-1.113-.422-1.436s-.621-.483-1.018-.483c-.391,0-.723.158-.996.476s-.41.789-.41,1.414Z"/><path d="M56.802,341.146l.908.112c-.143.53-.409.942-.796,1.235s-.882.439-1.484.439c-.758,0-1.36-.233-1.804-.701-.444-.467-.667-1.122-.667-1.965,0-.873.225-1.55.674-2.031.449-.482,1.032-.723,1.748-.723.693,0,1.26.235,1.699.708.439.472.659,1.136.659,1.992,0,.052-.001.13-.005.234h-3.867c.033.569.194,1.006.483,1.309s.651.454,1.084.454c.322,0,.597-.085.825-.254.228-.17.409-.439.542-.811ZM53.916,339.726h2.896c-.039-.437-.15-.764-.332-.981-.28-.339-.643-.508-1.089-.508-.404,0-.743.135-1.018.405-.275.27-.427.631-.457,1.084Z"/><path d="M61.402,342.816h-.815v-7.158h.879v2.554c.371-.466.845-.698,1.421-.698.319,0,.621.064.906.192.285.129.519.31.703.542.184.233.328.514.432.843.104.328.156.68.156,1.055,0,.889-.22,1.575-.659,2.061-.439.484-.967.728-1.582.728-.612,0-1.092-.256-1.44-.767v.649ZM61.393,340.185c0,.621.084,1.07.254,1.348.277.452.651.679,1.123.679.384,0,.716-.167.996-.501.28-.333.42-.831.42-1.491,0-.678-.134-1.177-.403-1.499s-.593-.483-.974-.483c-.384,0-.716.167-.996.5-.28.334-.42.816-.42,1.448Z"/><path d="M66.134,342.816v-7.158h.879v7.158h-.879Z"/><path d="M68.048,340.224c0-.961.267-1.672.801-2.134.446-.385.99-.576,1.631-.576.713,0,1.295.233,1.748.7.453.468.679,1.112.679,1.937,0,.667-.1,1.192-.3,1.574-.2.383-.492.68-.874.892-.382.211-.8.317-1.252.317-.726,0-1.312-.233-1.76-.698-.448-.466-.671-1.137-.671-2.012ZM68.951,340.224c0,.664.145,1.161.435,1.491.29.331.654.496,1.094.496.436,0,.799-.166,1.089-.498s.435-.839.435-1.519c0-.642-.146-1.127-.437-1.458-.292-.33-.653-.495-1.086-.495-.439,0-.804.164-1.094.493-.29.328-.435.825-.435,1.489Z"/><path d="M74.747,342.816h-.815v-7.158h.879v2.554c.371-.466.845-.698,1.421-.698.319,0,.621.064.906.192.285.129.519.31.703.542.184.233.328.514.432.843.104.328.156.68.156,1.055,0,.889-.22,1.575-.659,2.061-.439.484-.967.728-1.582.728-.612,0-1.092-.256-1.44-.767v.649ZM74.737,340.185c0,.621.084,1.07.254,1.348.277.452.651.679,1.123.679.384,0,.716-.167.996-.501.28-.333.42-.831.42-1.491,0-.678-.134-1.177-.403-1.499s-.593-.483-.974-.483c-.384,0-.716.167-.996.5-.28.334-.42.816-.42,1.448Z"/><polygon points="133.114 363.044 89.114 363.044 89.114 318.56 142.955 318.56 142.955 355.492 133.114 363.044" fill="#fff" stroke="#3376d0" stroke-linecap="round" stroke-linejoin="round"/><polyline points="142.822 355.492 134.477 355.331 133.114 363.044" fill="#fff" stroke="#3376d0" stroke-linecap="round" stroke-linejoin="round"/><path d="M94.549,342.816v-7.158h2.7c.475,0,.838.022,1.089.068.352.059.646.17.884.334.238.165.429.395.574.691.145.296.217.621.217.977,0,.608-.194,1.124-.581,1.545-.387.422-1.087.633-2.1.633h-1.836v2.91h-.947ZM95.497,339.062h1.851c.612,0,1.046-.114,1.304-.342.257-.229.386-.549.386-.962,0-.3-.076-.556-.227-.77-.151-.213-.351-.354-.598-.422-.16-.043-.454-.063-.884-.063h-1.831v2.559Z"/><path d="M104.491,342.177c-.326.276-.639.472-.94.586-.301.113-.624.171-.969.171-.57,0-1.007-.14-1.313-.418s-.459-.634-.459-1.066c0-.254.058-.486.173-.696s.267-.378.454-.505.398-.224.632-.288c.172-.046.433-.09.781-.132.709-.085,1.232-.186,1.567-.303.003-.121.005-.197.005-.229,0-.358-.083-.61-.249-.757-.225-.199-.558-.298-1.001-.298-.414,0-.719.072-.916.217-.197.146-.343.401-.437.77l-.859-.117c.078-.368.207-.665.386-.892.179-.226.438-.4.776-.522s.731-.183,1.177-.183c.443,0,.802.052,1.079.156.277.104.48.235.61.393.13.158.221.357.273.599.029.149.044.42.044.811v1.172c0,.816.019,1.334.056,1.55.038.217.111.424.222.623h-.918c-.091-.183-.15-.396-.176-.64ZM104.417,340.214c-.319.13-.797.24-1.436.332-.361.052-.617.11-.767.176-.15.064-.265.16-.347.285-.082.126-.122.265-.122.418,0,.234.089.43.266.586s.437.234.779.234c.338,0,.64-.074.903-.223.264-.147.458-.351.581-.607.094-.199.142-.492.142-.879v-.322Z"/><path d="M106.507,343.246l.854.127c.036.264.135.455.298.576.218.162.516.244.894.244.407,0,.721-.082.942-.244.221-.163.371-.391.449-.684.045-.18.067-.556.063-1.128-.384.452-.863.679-1.436.679-.713,0-1.265-.258-1.655-.771-.391-.515-.586-1.132-.586-1.851,0-.495.089-.951.269-1.37.179-.418.438-.741.779-.969.34-.229.74-.342,1.199-.342.612,0,1.117.247,1.514.742v-.625h.811v4.482c0,.807-.082,1.379-.247,1.716s-.425.604-.781.799-.795.293-1.316.293c-.619,0-1.118-.14-1.499-.418s-.565-.697-.552-1.257ZM107.235,340.131c0,.68.135,1.177.405,1.489s.609.469,1.016.469c.404,0,.742-.155,1.016-.467.273-.311.41-.798.41-1.462,0-.635-.141-1.113-.422-1.436s-.621-.483-1.018-.483c-.391,0-.723.158-.996.476s-.41.789-.41,1.414Z"/><path d="M115.78,341.146l.908.112c-.143.53-.409.942-.796,1.235s-.882.439-1.484.439c-.758,0-1.36-.233-1.804-.701-.444-.467-.667-1.122-.667-1.965,0-.873.225-1.55.674-2.031.449-.482,1.032-.723,1.748-.723.693,0,1.26.235,1.699.708.439.472.659,1.136.659,1.992,0,.052-.001.13-.005.234h-3.867c.033.569.194,1.006.483,1.309s.651.454,1.084.454c.322,0,.597-.085.825-.254.228-.17.409-.439.542-.811ZM112.894,339.726h2.896c-.039-.437-.15-.764-.332-.981-.28-.339-.643-.508-1.089-.508-.404,0-.743.135-1.018.405-.275.27-.427.631-.457,1.084Z"/><path d="M120.38,342.816h-.815v-7.158h.879v2.554c.371-.466.845-.698,1.421-.698.319,0,.621.064.906.192.285.129.519.31.703.542.184.233.328.514.432.843.104.328.156.68.156,1.055,0,.889-.22,1.575-.659,2.061-.439.484-.967.728-1.582.728-.612,0-1.092-.256-1.44-.767v.649ZM120.371,340.185c0,.621.084,1.07.254,1.348.277.452.651.679,1.123.679.384,0,.716-.167.996-.501.28-.333.42-.831.42-1.491,0-.678-.134-1.177-.403-1.499s-.593-.483-.974-.483c-.384,0-.716.167-.996.5-.28.334-.42.816-.42,1.448Z"/><path d="M125.112,342.816v-7.158h.879v7.158h-.879Z"/><path d="M127.026,340.224c0-.961.267-1.672.801-2.134.446-.385.99-.576,1.631-.576.713,0,1.295.233,1.748.7.453.468.679,1.112.679,1.937,0,.667-.1,1.192-.3,1.574-.2.383-.492.68-.874.892-.382.211-.8.317-1.252.317-.726,0-1.312-.233-1.76-.698-.448-.466-.671-1.137-.671-2.012ZM127.929,340.224c0,.664.145,1.161.435,1.491.29.331.654.496,1.094.496.436,0,.799-.166,1.089-.498s.435-.839.435-1.519c0-.642-.146-1.127-.437-1.458-.292-.33-.653-.495-1.086-.495-.439,0-.804.164-1.094.493-.29.328-.435.825-.435,1.489Z"/><path d="M133.725,342.816h-.815v-7.158h.879v2.554c.371-.466.845-.698,1.421-.698.319,0,.621.064.906.192.285.129.519.31.703.542.184.233.328.514.432.843.104.328.156.68.156,1.055,0,.889-.22,1.575-.659,2.061-.439.484-.967.728-1.582.728-.612,0-1.092-.256-1.44-.767v.649ZM133.715,340.185c0,.621.084,1.07.254,1.348.277.452.651.679,1.123.679.384,0,.716-.167.996-.501.28-.333.42-.831.42-1.491,0-.678-.134-1.177-.403-1.499s-.593-.483-.974-.483c-.384,0-.716.167-.996.5-.28.334-.42.816-.42,1.448Z"/><polygon points="192.092 363.044 148.092 363.044 148.092 318.56 201.933 318.56 201.933 355.492 192.092 363.044" fill="#fff" stroke="#3376d0" stroke-linecap="round" stroke-linejoin="round"/><polyline points="201.8 355.492 193.455 355.331 192.092 363.044" fill="#fff" stroke="#3376d0" stroke-linecap="round" stroke-linejoin="round"/><path d="M153.527,342.816v-7.158h2.7c.475,0,.838.022,1.089.068.352.059.646.17.884.334.238.165.429.395.574.691.145.296.217.621.217.977,0,.608-.194,1.124-.581,1.545-.387.422-1.087.633-2.1.633h-1.836v2.91h-.947ZM154.475,339.062h1.851c.612,0,1.046-.114,1.304-.342.257-.229.386-.549.386-.962,0-.3-.076-.556-.227-.77-.151-.213-.351-.354-.598-.422-.16-.043-.454-.063-.884-.063h-1.831v2.559Z"/><path d="M163.469,342.177c-.326.276-.639.472-.94.586-.301.113-.624.171-.969.171-.57,0-1.007-.14-1.313-.418s-.459-.634-.459-1.066c0-.254.058-.486.173-.696s.267-.378.454-.505.398-.224.632-.288c.172-.046.433-.09.781-.132.709-.085,1.232-.186,1.567-.303.003-.121.005-.197.005-.229,0-.358-.083-.61-.249-.757-.225-.199-.558-.298-1.001-.298-.414,0-.719.072-.916.217-.197.146-.343.401-.437.77l-.859-.117c.078-.368.207-.665.386-.892.179-.226.438-.4.776-.522s.731-.183,1.177-.183c.443,0,.802.052,1.079.156.277.104.48.235.61.393.13.158.221.357.273.599.029.149.044.42.044.811v1.172c0,.816.019,1.334.056,1.55.038.217.111.424.222.623h-.918c-.091-.183-.15-.396-.176-.64ZM163.396,340.214c-.319.13-.797.24-1.436.332-.361.052-.617.11-.767.176-.15.064-.265.16-.347.285-.082.126-.122.265-.122.418,0,.234.089.43.266.586s.437.234.779.234c.338,0,.64-.074.903-.223.264-.147.458-.351.581-.607.094-.199.142-.492.142-.879v-.322Z"/><path d="M165.485,343.246l.854.127c.036.264.135.455.298.576.218.162.516.244.894.244.407,0,.721-.082.942-.244.221-.163.371-.391.449-.684.045-.18.067-.556.063-1.128-.384.452-.863.679-1.436.679-.713,0-1.265-.258-1.655-.771-.391-.515-.586-1.132-.586-1.851,0-.495.089-.951.269-1.37.179-.418.438-.741.779-.969.34-.229.74-.342,1.199-.342.612,0,1.117.247,1.514.742v-.625h.811v4.482c0,.807-.082,1.379-.247,1.716s-.425.604-.781.799-.795.293-1.316.293c-.619,0-1.118-.14-1.499-.418s-.565-.697-.552-1.257ZM166.213,340.131c0,.68.135,1.177.405,1.489s.609.469,1.016.469c.404,0,.742-.155,1.016-.467.273-.311.41-.798.41-1.462,0-.635-.141-1.113-.422-1.436s-.621-.483-1.018-.483c-.391,0-.723.158-.996.476s-.41.789-.41,1.414Z"/><path d="M174.758,341.146l.908.112c-.144.53-.409.942-.796,1.235-.388.293-.883.439-1.484.439-.758,0-1.36-.233-1.804-.701-.444-.467-.667-1.122-.667-1.965,0-.873.225-1.55.674-2.031.449-.482,1.032-.723,1.748-.723.693,0,1.26.235,1.699.708.439.472.659,1.136.659,1.992,0,.052-.002.13-.005.234h-3.867c.033.569.194,1.006.483,1.309s.651.454,1.084.454c.322,0,.597-.085.825-.254.228-.17.408-.439.542-.811ZM171.872,339.726h2.896c-.039-.437-.15-.764-.332-.981-.28-.339-.644-.508-1.089-.508-.404,0-.743.135-1.018.405-.275.27-.427.631-.457,1.084Z"/><path d="M179.358,342.816h-.815v-7.158h.879v2.554c.371-.466.845-.698,1.421-.698.318,0,.621.064.905.192.285.129.52.31.703.542.185.233.328.514.433.843.104.328.156.68.156,1.055,0,.889-.22,1.575-.659,2.061-.439.484-.967.728-1.582.728s-1.093-.256-1.44-.767v.649ZM179.349,340.185c0,.621.084,1.07.254,1.348.276.452.65.679,1.123.679.384,0,.716-.167.996-.501.279-.333.42-.831.42-1.491,0-.678-.135-1.177-.403-1.499s-.593-.483-.974-.483c-.385,0-.717.167-.996.5-.28.334-.42.816-.42,1.448Z"/><path d="M184.09,342.816v-7.158h.879v7.158h-.879Z"/><path d="M186.004,340.224c0-.961.267-1.672.801-2.134.445-.385.989-.576,1.631-.576.713,0,1.295.233,1.748.7.452.468.679,1.112.679,1.937,0,.667-.101,1.192-.301,1.574-.2.383-.491.68-.874.892-.382.211-.8.317-1.252.317-.727,0-1.312-.233-1.761-.698-.447-.466-.671-1.137-.671-2.012ZM186.907,340.224c0,.664.145,1.161.435,1.491.289.331.654.496,1.094.496.436,0,.799-.166,1.089-.498.289-.332.435-.839.435-1.519,0-.642-.146-1.127-.438-1.458-.291-.33-.653-.495-1.086-.495-.439,0-.805.164-1.094.493-.29.328-.435.825-.435,1.489Z"/><path d="M192.703,342.816h-.815v-7.158h.879v2.554c.371-.466.845-.698,1.421-.698.318,0,.621.064.905.192.285.129.52.31.703.542.185.233.328.514.433.843.104.328.156.68.156,1.055,0,.889-.22,1.575-.659,2.061-.439.484-.967.728-1.582.728s-1.093-.256-1.44-.767v.649ZM192.693,340.185c0,.621.084,1.07.254,1.348.276.452.65.679,1.123.679.384,0,.716-.167.996-.501.279-.333.42-.831.42-1.491,0-.678-.135-1.177-.403-1.499s-.593-.483-.974-.483c-.385,0-.717.167-.996.5-.28.334-.42.816-.42,1.448Z"/><polygon points="251.07 363.044 207.07 363.044 207.07 318.56 260.911 318.56 260.911 355.492 251.07 363.044" fill="#fff" stroke="#3376d0" stroke-linecap="round" stroke-linejoin="round"/><polyline points="260.778 355.492 252.433 355.331 251.07 363.044" fill="#fff" stroke="#3376d0" stroke-linecap="round" stroke-linejoin="round"/><path d="M212.505,342.816v-7.158h2.7c.476,0,.839.022,1.089.068.352.059.646.17.884.334.238.165.429.395.574.691.145.296.217.621.217.977,0,.608-.193,1.124-.581,1.545-.387.422-1.087.633-2.1.633h-1.836v2.91h-.947ZM213.452,339.062h1.851c.612,0,1.047-.114,1.304-.342.258-.229.386-.549.386-.962,0-.3-.075-.556-.227-.77-.151-.213-.351-.354-.599-.422-.159-.043-.454-.063-.884-.063h-1.831v2.559Z"/><path d="M222.446,342.177c-.325.276-.639.472-.939.586-.302.113-.624.171-.97.171-.569,0-1.007-.14-1.313-.418-.306-.278-.459-.634-.459-1.066,0-.254.058-.486.174-.696.115-.21.267-.378.454-.505.187-.127.397-.224.632-.288.173-.046.434-.09.781-.132.71-.085,1.232-.186,1.567-.303.004-.121.005-.197.005-.229,0-.358-.083-.61-.249-.757-.225-.199-.558-.298-1.001-.298-.413,0-.719.072-.915.217-.197.146-.343.401-.438.77l-.859-.117c.078-.368.207-.665.386-.892.18-.226.438-.4.776-.522.339-.122.731-.183,1.177-.183s.803.052,1.079.156c.277.104.48.235.61.393.131.158.222.357.273.599.029.149.044.42.044.811v1.172c0,.816.019,1.334.057,1.55.037.217.111.424.222.623h-.918c-.091-.183-.149-.396-.176-.64ZM222.373,340.214c-.318.13-.797.24-1.436.332-.361.052-.616.11-.767.176-.149.064-.265.16-.347.285-.081.126-.122.265-.122.418,0,.234.089.43.267.586.177.156.437.234.778.234.339,0,.64-.074.903-.223.264-.147.458-.351.581-.607.095-.199.142-.492.142-.879v-.322Z"/><path d="M224.463,343.246l.854.127c.036.264.136.455.298.576.219.162.517.244.894.244.407,0,.722-.082.942-.244.222-.163.371-.391.449-.684.046-.18.067-.556.063-1.128-.384.452-.862.679-1.436.679-.713,0-1.265-.258-1.655-.771-.391-.515-.586-1.132-.586-1.851,0-.495.09-.951.269-1.37.18-.418.438-.741.779-.969.34-.229.739-.342,1.198-.342.612,0,1.117.247,1.514.742v-.625h.811v4.482c0,.807-.082,1.379-.246,1.716-.165.337-.425.604-.781.799s-.795.293-1.316.293c-.618,0-1.118-.14-1.499-.418s-.564-.697-.552-1.257ZM225.19,340.131c0,.68.136,1.177.405,1.489.271.312.609.469,1.016.469s.742-.155,1.016-.467c.273-.311.41-.798.41-1.462,0-.635-.141-1.113-.422-1.436-.282-.322-.621-.483-1.019-.483-.391,0-.723.158-.996.476s-.41.789-.41,1.414Z"/><path d="M233.735,341.146l.908.112c-.143.53-.408.942-.796,1.235-.387.293-.882.439-1.484.439-.758,0-1.359-.233-1.804-.701-.444-.467-.667-1.122-.667-1.965,0-.873.225-1.55.674-2.031.449-.482,1.032-.723,1.748-.723.693,0,1.26.235,1.699.708.439.472.659,1.136.659,1.992,0,.052,0,.13-.005.234h-3.867c.033.569.194,1.006.483,1.309.29.303.651.454,1.084.454.322,0,.598-.085.825-.254.229-.17.409-.439.542-.811ZM230.85,339.726h2.896c-.039-.437-.149-.764-.332-.981-.279-.339-.643-.508-1.089-.508-.403,0-.743.135-1.018.405-.275.27-.428.631-.457,1.084Z"/><path d="M238.336,342.816h-.815v-7.158h.879v2.554c.371-.466.845-.698,1.421-.698.319,0,.621.064.906.192.284.129.519.31.703.542.184.233.328.514.432.843.104.328.156.68.156,1.055,0,.889-.22,1.575-.659,2.061-.439.484-.967.728-1.582.728-.611,0-1.092-.256-1.44-.767v.649ZM238.326,340.185c0,.621.085,1.07.254,1.348.277.452.651.679,1.123.679.385,0,.717-.167.996-.501.28-.333.42-.831.42-1.491,0-.678-.134-1.177-.402-1.499s-.594-.483-.975-.483c-.384,0-.716.167-.996.5-.279.334-.42.816-.42,1.448Z"/><path d="M243.067,342.816v-7.158h.879v7.158h-.879Z"/><path d="M244.981,340.224c0-.961.268-1.672.801-2.134.446-.385.99-.576,1.631-.576.713,0,1.296.233,1.748.7.453.468.679,1.112.679,1.937,0,.667-.1,1.192-.3,1.574-.2.383-.492.68-.874.892-.383.211-.8.317-1.253.317-.726,0-1.312-.233-1.76-.698-.448-.466-.672-1.137-.672-2.012ZM245.885,340.224c0,.664.146,1.161.435,1.491.29.331.654.496,1.094.496.437,0,.8-.166,1.089-.498.29-.332.435-.839.435-1.519,0-.642-.146-1.127-.437-1.458-.292-.33-.653-.495-1.087-.495-.439,0-.804.164-1.094.493-.289.328-.435.825-.435,1.489Z"/><path d="M251.681,342.816h-.815v-7.158h.879v2.554c.371-.466.845-.698,1.421-.698.319,0,.621.064.906.192.284.129.519.31.703.542.184.233.328.514.432.843.104.328.156.68.156,1.055,0,.889-.22,1.575-.659,2.061-.439.484-.967.728-1.582.728-.611,0-1.092-.256-1.44-.767v.649ZM251.671,340.185c0,.621.085,1.07.254,1.348.277.452.651.679,1.123.679.385,0,.717-.167.996-.501.28-.333.42-.831.42-1.491,0-.678-.134-1.177-.402-1.499s-.594-.483-.975-.483c-.384,0-.716.167-.996.5-.279.334-.42.816-.42,1.448Z"/></svg>