<?xml version="1.0" encoding="UTF-8"?><svg id="a" xmlns="http://www.w3.org/2000/svg" width="5.125in" height="6in" viewBox="0 0 369 432"><rect x="5.592" y="93.918" width="281.864" height="316.042" fill="#f1f1f1" stroke="#000" stroke-miterlimit="10" stroke-width=".5"/><path d="M60.867,19.65l.947.239c-.199.778-.556,1.371-1.072,1.78s-1.146.613-1.892.613c-.771,0-1.399-.157-1.882-.471s-.851-.769-1.104-1.365-.378-1.235-.378-1.919c0-.746.143-1.396.427-1.951s.69-.977,1.216-1.265,1.104-.432,1.736-.432c.716,0,1.318.182,1.807.547s.829.877,1.021,1.538l-.933.22c-.166-.521-.407-.9-.723-1.138s-.713-.356-1.191-.356c-.55,0-1.01.132-1.379.396s-.629.618-.779,1.062-.225.902-.225,1.375c0,.609.089,1.14.266,1.594s.453.793.828,1.018.78.337,1.216.337c.531,0,.98-.153,1.348-.459s.617-.76.747-1.362Z"/><path d="M62.542,19.567c0-.96.267-1.671.801-2.134.446-.384.99-.576,1.631-.576.713,0,1.295.233,1.748.701s.679,1.112.679,1.936c0,.667-.1,1.192-.3,1.575s-.492.68-.874.891-.8.317-1.252.317c-.726,0-1.312-.233-1.76-.698s-.671-1.136-.671-2.012ZM63.445,19.567c0,.664.145,1.161.435,1.492s.654.496,1.094.496c.436,0,.799-.166,1.089-.498s.435-.838.435-1.519c0-.641-.146-1.127-.437-1.458s-.653-.496-1.086-.496c-.439,0-.804.165-1.094.493s-.435.825-.435,1.489Z"/><path d="M68.43,22.16v-5.186h.791v.737c.381-.57.931-.854,1.65-.854.312,0,.6.056.862.168s.458.26.588.442.221.399.273.649c.033.163.049.448.049.854v3.188h-.879v-3.154c0-.358-.034-.626-.103-.803s-.189-.319-.364-.425-.378-.159-.613-.159c-.375,0-.697.119-.969.356s-.408.688-.408,1.353v2.832h-.879Z"/><path d="M73.64,20.612l.869-.137c.049.348.185.615.408.801s.535.278.935.278c.404,0,.703-.082.898-.247s.293-.357.293-.579c0-.199-.086-.355-.259-.469-.121-.078-.42-.177-.898-.298-.645-.163-1.091-.304-1.34-.422s-.438-.283-.566-.493-.193-.442-.193-.696c0-.231.053-.445.159-.642s.25-.36.432-.491c.137-.101.323-.187.559-.256s.489-.105.759-.105c.407,0,.764.059,1.072.176s.535.276.681.476.248.468.303.803l-.859.117c-.039-.267-.152-.475-.339-.625s-.452-.225-.793-.225c-.404,0-.692.067-.864.2s-.259.29-.259.469c0,.114.036.216.107.308.072.094.184.172.337.234.088.033.347.107.776.225.622.166,1.056.302,1.301.408s.438.26.579.461.21.453.21.752c0,.293-.085.569-.256.828s-.417.459-.74.601-.687.212-1.094.212c-.674,0-1.188-.14-1.541-.42s-.579-.695-.676-1.245Z"/><path d="M78.665,19.567c0-.96.267-1.671.801-2.134.446-.384.99-.576,1.631-.576.713,0,1.295.233,1.748.701s.679,1.112.679,1.936c0,.667-.1,1.192-.3,1.575s-.492.68-.874.891-.8.317-1.252.317c-.726,0-1.312-.233-1.76-.698s-.671-1.136-.671-2.012ZM79.568,19.567c0,.664.145,1.161.435,1.492s.654.496,1.094.496c.436,0,.799-.166,1.089-.498s.435-.838.435-1.519c0-.641-.146-1.127-.437-1.458s-.653-.496-1.086-.496c-.439,0-.804.165-1.094.493s-.435.825-.435,1.489Z"/><path d="M84.534,22.16v-7.158h.879v7.158h-.879Z"/><path d="M90.325,20.49l.908.112c-.143.531-.409.942-.796,1.235s-.882.439-1.484.439c-.758,0-1.36-.233-1.804-.701s-.667-1.122-.667-1.965c0-.873.225-1.549.674-2.031s1.032-.723,1.748-.723c.693,0,1.26.236,1.699.708s.659,1.136.659,1.992c0,.052-.001.13-.005.234h-3.867c.033.57.194,1.006.483,1.309s.651.454,1.084.454c.322,0,.597-.084.825-.254s.409-.439.542-.811ZM87.439,19.069h2.896c-.039-.436-.15-.763-.332-.981-.28-.338-.643-.508-1.089-.508-.404,0-.743.135-1.018.405s-.427.631-.457,1.084Z"/><path d="M98.499,21.521c-.326.277-.639.472-.94.586s-.624.171-.969.171c-.57,0-1.007-.139-1.313-.417s-.459-.634-.459-1.067c0-.254.058-.486.173-.696s.267-.378.454-.505.398-.223.632-.288c.172-.045.433-.089.781-.132.709-.084,1.232-.186,1.567-.303.003-.121.005-.197.005-.229,0-.358-.083-.61-.249-.757-.225-.199-.558-.298-1.001-.298-.414,0-.719.072-.916.217s-.343.401-.437.769l-.859-.117c.078-.368.207-.665.386-.891s.438-.4.776-.522.731-.183,1.177-.183c.443,0,.802.052,1.079.156s.48.235.61.393.221.357.273.598c.029.15.044.42.044.811v1.172c0,.817.019,1.334.056,1.55s.111.424.222.623h-.918c-.091-.182-.15-.396-.176-.64ZM98.425,19.558c-.319.13-.797.241-1.436.332-.361.052-.617.111-.767.176s-.265.16-.347.286-.122.265-.122.417c0,.234.089.43.266.586s.437.234.779.234c.338,0,.64-.074.903-.222s.458-.351.581-.608c.094-.199.142-.492.142-.879v-.322Z"/><path d="M100.515,22.59l.854.127c.036.264.135.456.298.576.218.163.516.244.894.244.407,0,.721-.082.942-.244s.371-.391.449-.684c.045-.179.067-.555.063-1.128-.384.453-.863.679-1.436.679-.713,0-1.265-.257-1.655-.771s-.586-1.131-.586-1.851c0-.495.089-.951.269-1.37s.438-.741.779-.969.74-.342,1.199-.342c.612,0,1.117.248,1.514.742v-.625h.811v4.482c0,.807-.082,1.379-.247,1.716s-.425.603-.781.798-.795.293-1.316.293c-.619,0-1.118-.139-1.499-.417s-.565-.697-.552-1.257ZM101.243,19.475c0,.68.135,1.177.405,1.489s.609.469,1.016.469c.404,0,.742-.155,1.016-.466s.41-.798.41-1.462c0-.635-.141-1.113-.422-1.436s-.621-.483-1.018-.483c-.391,0-.723.159-.996.476s-.41.789-.41,1.414Z"/><path d="M109.788,20.49l.908.112c-.143.531-.409.942-.796,1.235s-.882.439-1.484.439c-.758,0-1.36-.233-1.804-.701s-.667-1.122-.667-1.965c0-.873.225-1.549.674-2.031s1.032-.723,1.748-.723c.693,0,1.26.236,1.699.708s.659,1.136.659,1.992c0,.052-.001.13-.005.234h-3.867c.033.57.194,1.006.483,1.309s.651.454,1.084.454c.322,0,.597-.084.825-.254s.409-.439.542-.811ZM106.902,19.069h2.896c-.039-.436-.15-.763-.332-.981-.28-.338-.643-.508-1.089-.508-.404,0-.743.135-1.018.405s-.427.631-.457,1.084Z"/><path d="M111.799,22.16v-5.186h.791v.737c.381-.57.931-.854,1.65-.854.312,0,.6.056.862.168s.458.26.588.442.221.399.273.649c.033.163.049.448.049.854v3.188h-.879v-3.154c0-.358-.034-.626-.103-.803s-.189-.319-.364-.425-.378-.159-.613-.159c-.375,0-.697.119-.969.356s-.408.688-.408,1.353v2.832h-.879Z"/><path d="M119.28,21.374l.127.776c-.248.052-.469.078-.664.078-.319,0-.566-.05-.742-.151s-.299-.233-.371-.398-.107-.51-.107-1.038v-2.983h-.645v-.684h.645v-1.284l.874-.527v1.812h.884v.684h-.884v3.032c0,.25.016.412.046.483s.082.128.151.171.17.063.3.063c.098,0,.226-.011.386-.034Z"/><path d="M191.715,10.072l.947.239c-.198.778-.556,1.371-1.071,1.78-.517.409-1.146.613-1.893.613-.771,0-1.398-.157-1.882-.471s-.852-.769-1.104-1.365c-.253-.596-.379-1.235-.379-1.919,0-.746.143-1.396.428-1.951.284-.555.689-.977,1.216-1.265.525-.288,1.104-.432,1.735-.432.717,0,1.318.182,1.807.547s.829.877,1.021,1.538l-.933.22c-.166-.521-.406-.9-.723-1.138-.315-.238-.713-.356-1.191-.356-.55,0-1.01.132-1.379.396-.37.264-.629.618-.779,1.062-.149.444-.225.902-.225,1.375,0,.609.089,1.14.267,1.594.177.454.453.793.827,1.018.375.225.78.337,1.216.337.531,0,.98-.153,1.348-.459.368-.306.617-.76.747-1.362Z"/><path d="M193.697,12.582v-7.158h.879v7.158h-.879Z"/><path d="M195.943,6.434v-1.011h.879v1.011h-.879ZM195.943,12.582v-5.186h.879v5.186h-.879Z"/><path d="M201.71,10.912l.908.112c-.143.531-.408.942-.796,1.235-.387.293-.882.439-1.484.439-.758,0-1.359-.233-1.804-.701s-.667-1.122-.667-1.965c0-.873.225-1.549.674-2.031s1.032-.723,1.748-.723c.693,0,1.26.236,1.699.708s.659,1.136.659,1.992c0,.052,0,.13-.005.234h-3.867c.033.57.194,1.006.483,1.309.29.303.651.454,1.084.454.322,0,.598-.084.825-.254.229-.169.409-.439.542-.811ZM198.824,9.491h2.896c-.039-.436-.149-.763-.332-.981-.279-.338-.643-.508-1.089-.508-.403,0-.743.135-1.018.405-.275.27-.428.631-.457,1.084Z"/><path d="M203.722,12.582v-5.186h.791v.737c.381-.57.932-.854,1.65-.854.312,0,.6.056.862.168.262.112.458.26.588.442.131.182.222.399.273.649.033.163.049.448.049.854v3.188h-.879v-3.154c0-.358-.034-.626-.103-.803s-.189-.319-.363-.425c-.175-.106-.379-.159-.613-.159-.374,0-.697.119-.969.356-.272.238-.408.688-.408,1.353v2.832h-.879Z"/><path d="M211.202,11.795l.127.776c-.247.052-.469.078-.664.078-.318,0-.566-.05-.742-.151s-.299-.233-.371-.398c-.071-.165-.107-.51-.107-1.038v-2.983h-.645v-.684h.645v-1.284l.874-.527v1.812h.884v.684h-.884v3.032c0,.25.016.412.047.483.03.072.081.128.151.171.069.042.17.063.3.063.098,0,.227-.011.386-.034Z"/><path d="M211.71,11.034l.869-.137c.049.348.185.615.408.801.223.186.534.278.935.278.404,0,.703-.082.898-.247s.293-.357.293-.579c0-.199-.086-.355-.259-.469-.12-.078-.42-.177-.898-.298-.645-.163-1.091-.304-1.34-.422s-.438-.283-.566-.493c-.129-.21-.193-.442-.193-.696,0-.231.053-.445.159-.642.105-.197.25-.36.432-.491.137-.101.323-.187.56-.256.235-.07.489-.105.759-.105.407,0,.765.059,1.072.176s.534.276.681.476.248.468.303.803l-.859.117c-.039-.267-.152-.475-.339-.625-.188-.15-.452-.225-.794-.225-.403,0-.691.067-.864.2-.172.133-.259.29-.259.469,0,.114.036.216.107.308.072.094.185.172.337.234.088.033.347.107.776.225.622.166,1.056.302,1.302.408.245.106.438.26.578.461.141.202.21.453.21.752,0,.293-.085.569-.256.828s-.418.459-.74.601-.687.212-1.094.212c-.674,0-1.188-.14-1.54-.42-.354-.28-.579-.695-.677-1.245Z"/><path d="M316.755,135.514l.894-.078c.043.358.141.652.296.881.154.229.395.415.72.557.326.142.692.212,1.099.212.361,0,.681-.054.957-.161.277-.107.482-.255.618-.442.135-.187.202-.392.202-.613,0-.225-.064-.421-.195-.588-.13-.167-.345-.309-.645-.422-.191-.075-.616-.191-1.274-.349-.657-.158-1.118-.307-1.382-.447-.342-.179-.597-.401-.764-.667-.168-.265-.252-.562-.252-.891,0-.361.103-.699.308-1.013s.505-.553.898-.715c.395-.163.832-.244,1.313-.244.531,0,.999.085,1.404.256s.717.422.935.754c.219.332.336.708.352,1.128l-.908.068c-.049-.453-.214-.794-.495-1.025-.282-.231-.697-.347-1.248-.347-.572,0-.99.105-1.252.315-.263.21-.394.463-.394.759,0,.257.093.469.278.635.183.166.658.336,1.429.51.77.174,1.298.326,1.584.457.417.192.725.436.923.73.199.294.298.634.298,1.018,0,.381-.108.74-.327,1.077-.218.337-.531.599-.939.786-.409.187-.868.281-1.38.281-.647,0-1.19-.094-1.628-.283-.438-.189-.781-.473-1.03-.852s-.38-.808-.394-1.287Z"/><path d="M325.554,137.028l.127.776c-.247.052-.469.078-.664.078-.318,0-.566-.05-.742-.151s-.299-.233-.371-.398c-.071-.165-.107-.51-.107-1.038v-2.983h-.645v-.684h.645v-1.284l.874-.527v1.812h.884v.684h-.884v3.032c0,.25.016.412.047.483.03.072.081.128.151.171.069.042.17.063.3.063.098,0,.227-.011.386-.034Z"/><path d="M329.797,137.174c-.325.277-.639.472-.939.586-.302.114-.624.171-.97.171-.569,0-1.007-.139-1.313-.417-.306-.278-.459-.634-.459-1.067,0-.254.058-.486.174-.696.115-.21.267-.378.454-.505.187-.127.397-.223.632-.288.173-.045.434-.089.781-.132.71-.084,1.232-.186,1.567-.303.004-.121.005-.197.005-.229,0-.358-.083-.61-.249-.757-.225-.199-.558-.298-1.001-.298-.413,0-.719.072-.915.217-.197.145-.343.401-.438.769l-.859-.117c.078-.368.207-.665.386-.891.18-.226.438-.4.776-.522.339-.122.731-.183,1.177-.183s.803.052,1.079.156c.277.104.48.235.61.393.131.158.222.357.273.598.029.15.044.42.044.811v1.172c0,.817.019,1.334.057,1.55.037.216.111.424.222.623h-.918c-.091-.182-.149-.396-.176-.64ZM329.724,135.211c-.318.13-.797.241-1.436.332-.361.052-.616.111-.767.176-.149.065-.265.16-.347.286-.081.125-.122.265-.122.417,0,.234.089.43.267.586.177.156.437.234.778.234.339,0,.64-.074.903-.222s.458-.351.581-.608c.095-.199.142-.492.142-.879v-.322Z"/><path d="M331.975,137.814v-5.186h.791v.737c.381-.57.932-.854,1.65-.854.312,0,.6.056.862.168.262.112.458.26.588.442.131.182.222.399.273.649.033.163.049.448.049.854v3.188h-.879v-3.154c0-.358-.034-.626-.103-.803s-.189-.319-.363-.425c-.175-.106-.379-.159-.613-.159-.374,0-.697.119-.969.356-.272.238-.408.688-.408,1.353v2.832h-.879Z"/><path d="M340.9,137.814v-.654c-.328.514-.812.771-1.45.771-.413,0-.793-.114-1.14-.342s-.615-.546-.806-.955-.286-.878-.286-1.409c0-.518.087-.987.259-1.409.173-.421.432-.745.776-.969.346-.225.731-.337,1.157-.337.312,0,.591.066.835.198s.443.304.596.515v-2.568h.874v7.158h-.815ZM338.122,135.226c0,.664.141,1.161.42,1.489.28.329.61.493.991.493.385,0,.711-.157.979-.471s.402-.793.402-1.438c0-.709-.137-1.23-.41-1.562s-.61-.498-1.011-.498c-.391,0-.717.16-.979.479-.263.319-.394.822-.394,1.509Z"/><path d="M346.481,137.174c-.325.277-.639.472-.939.586-.302.114-.624.171-.97.171-.569,0-1.007-.139-1.313-.417-.306-.278-.459-.634-.459-1.067,0-.254.058-.486.174-.696.115-.21.267-.378.454-.505.187-.127.397-.223.632-.288.173-.045.434-.089.781-.132.71-.084,1.232-.186,1.567-.303.004-.121.005-.197.005-.229,0-.358-.083-.61-.249-.757-.225-.199-.558-.298-1.001-.298-.413,0-.719.072-.915.217-.197.145-.343.401-.438.769l-.859-.117c.078-.368.207-.665.386-.891.18-.226.438-.4.776-.522.339-.122.731-.183,1.177-.183s.803.052,1.079.156c.277.104.48.235.61.393.131.158.222.357.273.598.029.15.044.42.044.811v1.172c0,.817.019,1.334.057,1.55.037.216.111.424.222.623h-.918c-.091-.182-.149-.396-.176-.64ZM346.408,135.211c-.318.13-.797.241-1.436.332-.361.052-.616.111-.767.176-.149.065-.265.16-.347.286-.081.125-.122.265-.122.417,0,.234.089.43.267.586.177.156.437.234.778.234.339,0,.64-.074.903-.222s.458-.351.581-.608c.095-.199.142-.492.142-.879v-.322Z"/><path d="M348.649,137.814v-5.186h.791v.786c.202-.368.389-.61.56-.728s.358-.176.563-.176c.297,0,.598.094.903.283l-.303.815c-.215-.127-.43-.19-.645-.19-.191,0-.364.058-.518.173-.152.116-.262.276-.327.481-.098.312-.146.654-.146,1.025v2.715h-.879Z"/><path d="M355.354,137.814v-.654c-.328.514-.812.771-1.45.771-.413,0-.793-.114-1.14-.342s-.615-.546-.806-.955-.286-.878-.286-1.409c0-.518.087-.987.259-1.409.173-.421.432-.745.776-.969.346-.225.731-.337,1.157-.337.312,0,.591.066.835.198s.443.304.596.515v-2.568h.874v7.158h-.815ZM352.575,135.226c0,.664.141,1.161.42,1.489.28.329.61.493.991.493.385,0,.711-.157.979-.471s.402-.793.402-1.438c0-.709-.137-1.23-.41-1.562s-.61-.498-1.011-.498c-.391,0-.717.16-.979.479-.263.319-.394.822-.394,1.509Z"/><path d="M316.945,147.814v-7.158h.879v7.158h-.879Z"/><path d="M318.859,145.221c0-.96.268-1.671.801-2.134.446-.384.99-.576,1.631-.576.713,0,1.296.233,1.748.701.453.467.679,1.112.679,1.936,0,.667-.1,1.192-.3,1.575s-.492.68-.874.891c-.383.211-.8.317-1.253.317-.726,0-1.312-.233-1.76-.698-.448-.465-.672-1.136-.672-2.012ZM319.763,145.221c0,.664.146,1.161.435,1.492.29.331.654.496,1.094.496.437,0,.8-.166,1.089-.498.29-.332.435-.838.435-1.519,0-.641-.146-1.127-.437-1.458-.292-.331-.653-.496-1.087-.496-.439,0-.804.165-1.094.493-.289.329-.435.825-.435,1.489Z"/><path d="M328.132,147.174c-.325.277-.639.472-.939.586-.302.114-.624.171-.97.171-.569,0-1.007-.139-1.313-.417-.306-.278-.459-.634-.459-1.067,0-.254.058-.486.174-.696.115-.21.267-.378.454-.505.187-.127.397-.223.632-.288.173-.045.434-.089.781-.132.71-.084,1.232-.186,1.567-.303.004-.121.005-.197.005-.229,0-.358-.083-.61-.249-.757-.225-.199-.558-.298-1.001-.298-.413,0-.719.072-.915.217-.197.145-.343.401-.438.769l-.859-.117c.078-.368.207-.665.386-.891.18-.226.438-.4.776-.522.339-.122.731-.183,1.177-.183s.803.052,1.079.156c.277.104.48.235.61.393.131.158.222.357.273.598.029.15.044.42.044.811v1.172c0,.817.019,1.334.057,1.55.037.216.111.424.222.623h-.918c-.091-.182-.149-.396-.176-.64ZM328.059,145.211c-.318.13-.797.241-1.436.332-.361.052-.616.111-.767.176-.149.065-.265.16-.347.286-.081.125-.122.265-.122.417,0,.234.089.43.267.586.177.156.437.234.778.234.339,0,.64-.074.903-.222s.458-.351.581-.608c.095-.199.142-.492.142-.879v-.322Z"/><path d="M333.674,147.814v-.654c-.328.514-.812.771-1.45.771-.413,0-.793-.114-1.14-.342s-.615-.546-.806-.955-.286-.878-.286-1.409c0-.518.087-.987.259-1.409.173-.421.432-.745.776-.969.346-.225.731-.337,1.157-.337.312,0,.591.066.835.198s.443.304.596.515v-2.568h.874v7.158h-.815ZM330.896,145.226c0,.664.141,1.161.42,1.489.28.329.61.493.991.493.385,0,.711-.157.979-.471s.402-.793.402-1.438c0-.709-.137-1.23-.41-1.562s-.61-.498-1.011-.498c-.391,0-.717.16-.979.479-.263.319-.394.822-.394,1.509Z"/><path d="M317.775,157.814h-.815v-7.158h.879v2.554c.371-.465.845-.698,1.421-.698.319,0,.621.064.906.193.284.128.519.309.703.542.184.233.328.514.432.842.104.329.156.68.156,1.055,0,.889-.22,1.576-.659,2.061s-.967.728-1.582.728c-.611,0-1.092-.255-1.44-.767v.649ZM317.766,155.182c0,.622.085,1.071.254,1.348.277.453.651.679,1.123.679.385,0,.717-.167.996-.5.28-.333.42-.831.42-1.492,0-.677-.134-1.177-.402-1.499s-.594-.483-.975-.483c-.384,0-.716.167-.996.5-.279.333-.42.816-.42,1.448Z"/><path d="M325.91,157.174c-.325.277-.639.472-.939.586-.302.114-.624.171-.97.171-.569,0-1.007-.139-1.313-.417-.306-.278-.459-.634-.459-1.067,0-.254.058-.486.174-.696.115-.21.267-.378.454-.505.187-.127.397-.223.632-.288.173-.045.434-.089.781-.132.71-.084,1.232-.186,1.567-.303.004-.121.005-.197.005-.229,0-.358-.083-.61-.249-.757-.225-.199-.558-.298-1.001-.298-.413,0-.719.072-.915.217-.197.145-.343.401-.438.769l-.859-.117c.078-.368.207-.665.386-.891.18-.226.438-.4.776-.522.339-.122.731-.183,1.177-.183s.803.052,1.079.156c.277.104.48.235.61.393.131.158.222.357.273.598.029.15.044.42.044.811v1.172c0,.817.019,1.334.057,1.55.037.216.111.424.222.623h-.918c-.091-.182-.149-.396-.176-.64ZM325.837,155.211c-.318.13-.797.241-1.436.332-.361.052-.616.111-.767.176-.149.065-.265.16-.347.286-.081.125-.122.265-.122.417,0,.234.089.43.267.586.177.156.437.234.778.234.339,0,.64-.074.903-.222s.458-.351.581-.608c.095-.199.142-.492.142-.879v-.322Z"/><path d="M328.068,157.814v-7.158h.879v7.158h-.879Z"/><path d="M333.693,157.174c-.325.277-.639.472-.939.586-.302.114-.624.171-.97.171-.569,0-1.007-.139-1.313-.417-.306-.278-.459-.634-.459-1.067,0-.254.058-.486.174-.696.115-.21.267-.378.454-.505.187-.127.397-.223.632-.288.173-.045.434-.089.781-.132.71-.084,1.232-.186,1.567-.303.004-.121.005-.197.005-.229,0-.358-.083-.61-.249-.757-.225-.199-.558-.298-1.001-.298-.413,0-.719.072-.915.217-.197.145-.343.401-.438.769l-.859-.117c.078-.368.207-.665.386-.891.18-.226.438-.4.776-.522.339-.122.731-.183,1.177-.183s.803.052,1.079.156c.277.104.48.235.61.393.131.158.222.357.273.598.029.15.044.42.044.811v1.172c0,.817.019,1.334.057,1.55.037.216.111.424.222.623h-.918c-.091-.182-.149-.396-.176-.64ZM333.62,155.211c-.318.13-.797.241-1.436.332-.361.052-.616.111-.767.176-.149.065-.265.16-.347.286-.081.125-.122.265-.122.417,0,.234.089.43.267.586.177.156.437.234.778.234.339,0,.64-.074.903-.222s.458-.351.581-.608c.095-.199.142-.492.142-.879v-.322Z"/><path d="M335.871,157.814v-5.186h.791v.737c.381-.57.932-.854,1.65-.854.312,0,.6.056.862.168.262.112.458.26.588.442.131.182.222.399.273.649.033.163.049.448.049.854v3.188h-.879v-3.154c0-.358-.034-.626-.103-.803s-.189-.319-.363-.425c-.175-.106-.379-.159-.613-.159-.374,0-.697.119-.969.356-.272.238-.408.688-.408,1.353v2.832h-.879Z"/><path d="M344.816,155.915l.864.112c-.094.596-.336,1.062-.725,1.399-.39.337-.867.505-1.434.505-.709,0-1.28-.232-1.711-.696-.432-.464-.647-1.129-.647-1.995,0-.56.093-1.05.278-1.47s.468-.735.848-.945c.379-.21.792-.315,1.237-.315.563,0,1.024.143,1.382.427.358.285.588.689.688,1.213l-.854.132c-.081-.348-.226-.61-.432-.786-.207-.176-.457-.264-.75-.264-.442,0-.802.159-1.079.476-.276.317-.415.819-.415,1.506,0,.697.134,1.203.4,1.519.268.316.615.474,1.045.474.346,0,.634-.106.864-.317.231-.211.378-.537.439-.977Z"/><path d="M349.982,156.144l.908.112c-.143.531-.408.942-.796,1.235-.387.293-.882.439-1.484.439-.758,0-1.359-.233-1.804-.701s-.667-1.122-.667-1.965c0-.873.225-1.549.674-2.031s1.032-.723,1.748-.723c.693,0,1.26.236,1.699.708s.659,1.136.659,1.992c0,.052,0,.13-.005.234h-3.867c.033.57.194,1.006.483,1.309.29.303.651.454,1.084.454.322,0,.598-.084.825-.254.229-.169.409-.439.542-.811ZM347.097,154.723h2.896c-.039-.436-.149-.763-.332-.981-.279-.338-.643-.508-1.089-.508-.403,0-.743.135-1.018.405-.275.27-.428.631-.457,1.084Z"/><path d="M351.984,157.814v-5.186h.791v.786c.202-.368.389-.61.56-.728s.358-.176.563-.176c.297,0,.598.094.903.283l-.303.815c-.215-.127-.43-.19-.645-.19-.191,0-.364.058-.518.173-.152.116-.262.276-.327.481-.098.312-.146.654-.146,1.025v2.715h-.879Z"/><path d="M316.291,245.029l2.749-7.158h1.021l2.93,7.158h-1.079l-.835-2.168h-2.993l-.786,2.168h-1.006ZM318.356,242.089h2.427l-.747-1.982c-.228-.602-.396-1.097-.508-1.484-.091.459-.22.915-.386,1.367l-.786,2.1Z"/><path d="M324.895,245.029l-1.973-5.186h.928l1.113,3.105c.121.336.231.684.332,1.045.078-.273.188-.602.327-.986l1.152-3.164h.903l-1.963,5.186h-.82Z"/><path d="M331.838,244.389c-.325.277-.639.473-.939.586-.302.114-.624.171-.97.171-.569,0-1.007-.139-1.313-.417-.306-.278-.459-.634-.459-1.067,0-.254.058-.485.174-.695.115-.21.267-.379.454-.506.187-.127.397-.223.632-.288.173-.045.434-.089.781-.132.71-.084,1.232-.186,1.567-.303.004-.12.005-.196.005-.229,0-.357-.083-.61-.249-.757-.225-.198-.558-.298-1.001-.298-.413,0-.719.072-.915.218-.197.145-.343.401-.438.769l-.859-.117c.078-.367.207-.665.386-.891.18-.227.438-.4.776-.522.339-.122.731-.184,1.177-.184s.803.053,1.079.156c.277.104.48.235.61.394.131.157.222.357.273.598.029.15.044.42.044.811v1.172c0,.817.019,1.334.057,1.551.037.216.111.424.222.622h-.918c-.091-.182-.149-.396-.176-.64ZM331.765,242.426c-.318.131-.797.241-1.436.332-.361.053-.616.111-.767.176-.149.065-.265.16-.347.286-.081.125-.122.265-.122.417,0,.234.089.43.267.586.177.156.437.234.778.234.339,0,.64-.074.903-.222.264-.148.458-.351.581-.608.095-.198.142-.491.142-.879v-.322Z"/><path d="M334.021,238.881v-1.011h.879v1.011h-.879ZM334.021,245.029v-5.186h.879v5.186h-.879Z"/><path d="M336.218,245.029v-7.158h.879v7.158h-.879Z"/><path d="M341.843,244.389c-.325.277-.639.473-.939.586-.302.114-.624.171-.97.171-.569,0-1.007-.139-1.313-.417-.306-.278-.459-.634-.459-1.067,0-.254.058-.485.174-.695.115-.21.267-.379.454-.506.187-.127.397-.223.632-.288.173-.045.434-.089.781-.132.71-.084,1.232-.186,1.567-.303.004-.12.005-.196.005-.229,0-.357-.083-.61-.249-.757-.225-.198-.558-.298-1.001-.298-.413,0-.719.072-.915.218-.197.145-.343.401-.438.769l-.859-.117c.078-.367.207-.665.386-.891.18-.227.438-.4.776-.522.339-.122.731-.184,1.177-.184s.803.053,1.079.156c.277.104.48.235.61.394.131.157.222.357.273.598.029.15.044.42.044.811v1.172c0,.817.019,1.334.057,1.551.037.216.111.424.222.622h-.918c-.091-.182-.149-.396-.176-.64ZM341.77,242.426c-.318.131-.797.241-1.436.332-.361.053-.616.111-.767.176-.149.065-.265.16-.347.286-.081.125-.122.265-.122.417,0,.234.089.43.267.586.177.156.437.234.778.234.339,0,.64-.074.903-.222.264-.148.458-.351.581-.608.095-.198.142-.491.142-.879v-.322Z"/><path d="M344.831,245.029h-.815v-7.158h.879v2.554c.371-.465.845-.698,1.421-.698.319,0,.621.064.906.193.284.128.519.309.703.542.184.232.328.514.432.842.104.329.156.681.156,1.055,0,.889-.22,1.576-.659,2.061-.439.485-.967.728-1.582.728-.611,0-1.092-.255-1.44-.767v.649ZM344.821,242.397c0,.622.085,1.071.254,1.348.277.453.651.679,1.123.679.385,0,.717-.167.996-.5.28-.334.42-.831.42-1.492,0-.677-.134-1.177-.402-1.499s-.594-.483-.975-.483c-.384,0-.716.167-.996.501-.279.333-.42.816-.42,1.447Z"/><path d="M349.587,238.881v-1.011h.879v1.011h-.879ZM349.587,245.029v-5.186h.879v5.186h-.879Z"/><path d="M351.784,245.029v-7.158h.879v7.158h-.879Z"/><path d="M354.03,238.881v-1.011h.879v1.011h-.879ZM354.03,245.029v-5.186h.879v5.186h-.879Z"/><path d="M358.166,244.243l.127.776c-.247.053-.469.078-.664.078-.318,0-.566-.05-.742-.151-.176-.101-.299-.233-.371-.397-.071-.165-.107-.511-.107-1.038v-2.983h-.645v-.684h.645v-1.284l.874-.527v1.812h.884v.684h-.884v3.032c0,.251.016.412.047.483.03.072.081.129.151.171.069.043.17.063.3.063.098,0,.227-.011.386-.034Z"/><path d="M358.986,247.026l-.098-.825c.192.053.36.078.503.078.195,0,.352-.032.469-.098.117-.064.214-.156.288-.273.056-.088.146-.306.269-.654.017-.049.043-.12.078-.215l-1.968-5.195h.947l1.079,3.003c.141.381.266.781.376,1.201.102-.403.222-.797.361-1.182l1.108-3.022h.879l-1.973,5.273c-.211.57-.376.962-.493,1.177-.156.29-.335.502-.537.638-.201.135-.442.202-.723.202-.169,0-.357-.035-.566-.107Z"/><path d="M316.501,255.029v-.713l3.301-3.789c-.374.02-.704.029-.991.029h-2.114v-.713h4.238v.581l-2.808,3.291-.542.601c.395-.029.764-.044,1.108-.044h2.397v.757h-4.59Z"/><path d="M321.638,252.436c0-.96.268-1.671.801-2.134.446-.384.99-.576,1.631-.576.713,0,1.296.233,1.748.701.453.467.679,1.112.679,1.936,0,.668-.1,1.192-.3,1.575-.2.382-.492.68-.874.891-.383.212-.8.317-1.253.317-.726,0-1.312-.232-1.76-.698-.448-.465-.672-1.136-.672-2.012ZM322.541,252.436c0,.664.146,1.161.435,1.492.29.33.654.495,1.094.495.437,0,.8-.166,1.089-.498.29-.332.435-.838.435-1.519,0-.641-.146-1.127-.437-1.457-.292-.331-.653-.496-1.087-.496-.439,0-.804.165-1.094.493-.289.329-.435.825-.435,1.489Z"/><path d="M327.526,255.029v-5.186h.791v.737c.381-.569.932-.854,1.65-.854.312,0,.6.057.862.169.262.112.458.26.588.441.131.183.222.399.273.649.033.163.049.448.049.854v3.188h-.879v-3.154c0-.357-.034-.626-.103-.803-.068-.178-.189-.319-.363-.425-.175-.106-.379-.159-.613-.159-.374,0-.697.119-.969.356-.272.238-.408.688-.408,1.353v2.832h-.879Z"/><path d="M336.638,253.359l.908.112c-.143.531-.408.942-.796,1.235-.387.293-.882.439-1.484.439-.758,0-1.359-.233-1.804-.7-.444-.468-.667-1.122-.667-1.966,0-.872.225-1.549.674-2.031.449-.481,1.032-.723,1.748-.723.693,0,1.26.236,1.699.708.439.473.659,1.137.659,1.992,0,.053,0,.131-.005.234h-3.867c.033.57.194,1.006.483,1.309.29.303.651.454,1.084.454.322,0,.598-.084.825-.254.229-.169.409-.439.542-.811ZM333.752,251.938h2.896c-.039-.436-.149-.763-.332-.981-.279-.338-.643-.508-1.089-.508-.403,0-.743.136-1.018.405-.275.271-.428.632-.457,1.084Z"/><path d="M338.298,253.481l.869-.137c.049.349.185.615.408.801.223.186.534.278.935.278.404,0,.703-.082.898-.246.195-.165.293-.357.293-.579,0-.198-.086-.354-.259-.469-.12-.078-.42-.177-.898-.298-.645-.162-1.091-.304-1.34-.422-.249-.119-.438-.283-.566-.493-.129-.21-.193-.442-.193-.696,0-.23.053-.445.159-.642.105-.197.25-.36.432-.491.137-.101.323-.187.56-.256.235-.07.489-.105.759-.105.407,0,.765.059,1.072.176s.534.276.681.477.248.468.303.803l-.859.117c-.039-.267-.152-.475-.339-.625-.188-.149-.452-.225-.794-.225-.403,0-.691.067-.864.2-.172.134-.259.29-.259.469,0,.114.036.217.107.308.072.095.185.173.337.234.088.033.347.107.776.225.622.166,1.056.302,1.302.408.245.105.438.26.578.461.141.202.21.453.21.752,0,.293-.085.569-.256.828s-.418.459-.74.601-.687.212-1.094.212c-.674,0-1.188-.14-1.54-.42-.354-.279-.579-.694-.677-1.245Z"/><path d="M316.755,350.047l.894-.078c.043.357.141.651.296.881.154.229.395.415.72.557.326.142.692.213,1.099.213.361,0,.681-.054.957-.161.277-.107.482-.255.618-.442.135-.187.202-.392.202-.612,0-.225-.064-.421-.195-.589-.13-.167-.345-.309-.645-.422-.191-.075-.616-.191-1.274-.35-.657-.157-1.118-.307-1.382-.446-.342-.18-.597-.401-.764-.667-.168-.265-.252-.562-.252-.891,0-.361.103-.699.308-1.014.205-.313.505-.553.898-.715.395-.163.832-.244,1.313-.244.531,0,.999.085,1.404.256s.717.423.935.755c.219.332.336.708.352,1.128l-.908.068c-.049-.453-.214-.795-.495-1.025-.282-.231-.697-.347-1.248-.347-.572,0-.99.104-1.252.314-.263.21-.394.463-.394.76,0,.257.093.469.278.635.183.166.658.336,1.429.51.77.175,1.298.326,1.584.457.417.191.725.436.923.729.199.295.298.634.298,1.019,0,.381-.108.739-.327,1.076-.218.337-.531.6-.939.786-.409.188-.868.281-1.38.281-.647,0-1.19-.095-1.628-.283-.438-.189-.781-.473-1.03-.853-.249-.379-.38-.808-.394-1.286Z"/><path d="M325.554,351.561l.127.776c-.247.052-.469.078-.664.078-.318,0-.566-.051-.742-.151-.176-.102-.299-.233-.371-.398-.071-.164-.107-.51-.107-1.037v-2.983h-.645v-.684h.645v-1.284l.874-.527v1.812h.884v.684h-.884v3.032c0,.25.016.411.047.483.03.071.081.128.151.171.069.042.17.063.3.063.098,0,.227-.012.386-.034Z"/><path d="M326.086,349.754c0-.961.268-1.672.801-2.134.446-.385.99-.576,1.631-.576.713,0,1.296.233,1.748.7.453.468.679,1.112.679,1.937,0,.667-.1,1.192-.3,1.574-.2.383-.492.68-.874.892-.383.211-.8.317-1.253.317-.726,0-1.312-.233-1.76-.698-.448-.466-.672-1.137-.672-2.012ZM326.989,349.754c0,.664.146,1.161.435,1.491.29.331.654.496,1.094.496.437,0,.8-.166,1.089-.498.29-.332.435-.839.435-1.519,0-.642-.146-1.127-.437-1.458-.292-.33-.653-.495-1.087-.495-.439,0-.804.164-1.094.493-.289.328-.435.825-.435,1.489Z"/><path d="M331.965,352.347v-5.186h.791v.786c.202-.368.389-.61.56-.728s.358-.176.563-.176c.297,0,.598.094.903.283l-.303.815c-.215-.127-.43-.19-.645-.19-.191,0-.364.058-.518.173-.152.116-.262.276-.327.481-.098.312-.146.654-.146,1.025v2.715h-.879Z"/><path d="M338.688,351.708c-.325.276-.639.472-.939.586-.302.113-.624.171-.97.171-.569,0-1.007-.14-1.313-.418-.306-.278-.459-.634-.459-1.066,0-.254.058-.486.174-.696.115-.21.267-.378.454-.505.187-.127.397-.224.632-.288.173-.046.434-.09.781-.132.71-.085,1.232-.186,1.567-.303.004-.121.005-.197.005-.229,0-.358-.083-.61-.249-.757-.225-.199-.558-.298-1.001-.298-.413,0-.719.072-.915.217-.197.146-.343.401-.438.77l-.859-.117c.078-.368.207-.665.386-.892.18-.226.438-.4.776-.522.339-.122.731-.183,1.177-.183s.803.052,1.079.156c.277.104.48.235.61.393.131.158.222.357.273.599.029.149.044.42.044.811v1.172c0,.816.019,1.334.057,1.55.037.217.111.424.222.623h-.918c-.091-.183-.149-.396-.176-.64ZM338.615,349.745c-.318.13-.797.24-1.436.332-.361.052-.616.11-.767.176-.149.064-.265.16-.347.285-.081.126-.122.265-.122.418,0,.234.089.43.267.586.177.156.437.234.778.234.339,0,.64-.074.903-.223.264-.147.458-.351.581-.607.095-.199.142-.492.142-.879v-.322Z"/><path d="M340.705,352.777l.854.127c.036.264.136.455.298.576.219.162.517.244.894.244.407,0,.722-.082.942-.244.222-.163.371-.391.449-.684.046-.18.067-.556.063-1.128-.384.452-.862.679-1.436.679-.713,0-1.265-.258-1.655-.771-.391-.515-.586-1.132-.586-1.851,0-.495.09-.951.269-1.37.18-.418.438-.741.779-.969.34-.229.739-.342,1.198-.342.612,0,1.117.247,1.514.742v-.625h.811v4.482c0,.807-.082,1.379-.246,1.716-.165.337-.425.604-.781.799s-.795.293-1.316.293c-.618,0-1.118-.14-1.499-.418s-.564-.697-.552-1.257ZM341.433,349.662c0,.68.136,1.177.405,1.489.271.312.609.469,1.016.469s.742-.155,1.016-.467c.273-.311.41-.798.41-1.462,0-.635-.141-1.113-.422-1.436-.282-.322-.621-.483-1.019-.483-.391,0-.723.158-.996.476s-.41.789-.41,1.414Z"/><path d="M349.978,350.677l.908.112c-.143.53-.408.942-.796,1.235-.387.293-.882.439-1.484.439-.758,0-1.359-.233-1.804-.701-.444-.467-.667-1.122-.667-1.965,0-.873.225-1.55.674-2.031.449-.482,1.032-.723,1.748-.723.693,0,1.26.235,1.699.708.439.472.659,1.136.659,1.992,0,.052,0,.13-.005.234h-3.867c.033.569.194,1.006.483,1.309.29.303.651.454,1.084.454.322,0,.598-.085.825-.254.229-.17.409-.439.542-.811ZM347.092,349.256h2.896c-.039-.437-.149-.764-.332-.981-.279-.339-.643-.508-1.089-.508-.403,0-.743.135-1.018.405-.275.27-.428.631-.457,1.084Z"/><path d="M27.57,395.797l.947.239c-.199.778-.556,1.371-1.072,1.78-.516.408-1.146.612-1.892.612-.771,0-1.399-.157-1.882-.471-.483-.314-.851-.77-1.104-1.365s-.378-1.235-.378-1.919c0-.745.143-1.396.427-1.95.285-.556.69-.977,1.216-1.265s1.104-.433,1.736-.433c.716,0,1.318.183,1.807.547.488.365.829.878,1.021,1.538l-.933.22c-.166-.521-.407-.899-.723-1.138-.316-.237-.713-.356-1.191-.356-.55,0-1.01.132-1.379.396s-.629.618-.779,1.062-.225.902-.225,1.374c0,.609.089,1.141.266,1.595s.453.793.828,1.018.78.337,1.216.337c.531,0,.98-.152,1.348-.459.368-.306.617-.76.747-1.362Z"/><path d="M32.971,398.307v-.762c-.404.586-.952.879-1.646.879-.306,0-.592-.059-.857-.176s-.462-.265-.591-.441c-.128-.178-.219-.395-.271-.652-.036-.172-.054-.445-.054-.82v-3.213h.879v2.876c0,.459.018.769.054.928.055.231.172.413.352.545s.4.197.664.197.511-.067.742-.202c.231-.136.395-.319.491-.552.096-.233.144-.57.144-1.014v-2.778h.879v5.186h-.786Z"/><path d="M34.782,396.759l.869-.137c.049.349.185.615.408.801s.535.278.935.278c.404,0,.703-.082.898-.246.195-.165.293-.357.293-.579,0-.198-.086-.354-.259-.469-.121-.078-.42-.177-.898-.298-.645-.162-1.091-.304-1.34-.422-.249-.119-.438-.283-.566-.493s-.193-.442-.193-.696c0-.23.053-.445.159-.642.106-.197.25-.36.432-.491.137-.101.323-.187.559-.256.236-.07.489-.105.759-.105.407,0,.764.059,1.072.176s.535.276.681.477.248.468.303.803l-.859.117c-.039-.267-.152-.475-.339-.625-.187-.149-.452-.225-.793-.225-.404,0-.692.067-.864.2-.172.134-.259.29-.259.469,0,.114.036.217.107.308.072.095.184.173.337.234.088.033.347.107.776.225.622.166,1.056.302,1.301.408.246.105.438.26.579.461.14.202.21.453.21.752,0,.293-.085.569-.256.828s-.417.459-.74.601-.687.212-1.094.212c-.674,0-1.188-.14-1.541-.42-.353-.279-.579-.694-.676-1.245Z"/><path d="M42.053,397.521l.127.776c-.248.053-.469.078-.664.078-.319,0-.566-.05-.742-.151-.176-.101-.299-.233-.371-.397-.072-.165-.107-.511-.107-1.038v-2.983h-.645v-.684h.645v-1.284l.874-.527v1.812h.884v.684h-.884v3.032c0,.251.016.412.046.483.031.072.082.129.151.171.07.043.17.063.3.063.098,0,.226-.011.386-.034Z"/><path d="M42.585,395.714c0-.96.267-1.671.801-2.134.446-.384.99-.576,1.631-.576.713,0,1.295.233,1.748.701.453.467.679,1.112.679,1.936,0,.668-.1,1.192-.3,1.575-.2.382-.492.68-.874.891-.382.212-.8.317-1.252.317-.726,0-1.312-.232-1.76-.698-.448-.465-.671-1.136-.671-2.012ZM43.488,395.714c0,.664.145,1.161.435,1.492.29.33.654.495,1.094.495.436,0,.799-.166,1.089-.498s.435-.838.435-1.519c0-.641-.146-1.127-.437-1.457-.292-.331-.653-.496-1.086-.496-.439,0-.804.165-1.094.493-.29.329-.435.825-.435,1.489Z"/><path d="M48.474,398.307v-5.186h.786v.728c.163-.254.379-.458.649-.612.27-.155.578-.232.923-.232.384,0,.699.08.945.239.246.16.419.383.52.669.41-.605.944-.908,1.602-.908.514,0,.91.143,1.187.428.277.284.415.724.415,1.315v3.56h-.874v-3.267c0-.352-.028-.604-.085-.759-.057-.155-.16-.279-.31-.374-.15-.094-.326-.142-.527-.142-.365,0-.667.121-.908.364-.241.242-.361.631-.361,1.164v3.013h-.879v-3.369c0-.391-.072-.684-.215-.879s-.377-.293-.703-.293c-.248,0-.476.065-.686.195-.21.131-.362.321-.457.571-.094.251-.142.612-.142,1.084v2.69h-.879Z"/><path d="M60.354,396.637l.908.112c-.143.531-.409.942-.796,1.235s-.882.439-1.484.439c-.758,0-1.36-.233-1.804-.7-.444-.468-.667-1.122-.667-1.966,0-.872.225-1.549.674-2.031.449-.481,1.032-.723,1.748-.723.693,0,1.26.236,1.699.708.439.473.659,1.137.659,1.992,0,.053-.001.131-.005.234h-3.867c.033.57.194,1.006.483,1.309s.651.454,1.084.454c.322,0,.597-.084.825-.254.228-.169.409-.439.542-.811ZM57.468,395.216h2.896c-.039-.436-.15-.763-.332-.981-.28-.338-.643-.508-1.089-.508-.404,0-.743.136-1.018.405-.275.271-.427.632-.457,1.084Z"/><path d="M62.355,398.307v-5.186h.791v.786c.202-.367.388-.61.559-.728s.359-.176.564-.176c.296,0,.597.095.903.283l-.303.815c-.215-.127-.43-.19-.645-.19-.192,0-.365.058-.518.174-.153.115-.262.275-.327.48-.098.312-.146.654-.146,1.025v2.715h-.879Z"/><path d="M71.838,398.307v-.654c-.329.515-.812.771-1.45.771-.414,0-.793-.113-1.14-.342-.347-.228-.615-.546-.806-.954-.19-.409-.286-.878-.286-1.409,0-.518.086-.987.259-1.408.172-.422.431-.745.776-.97s.731-.337,1.157-.337c.312,0,.591.066.835.198s.443.304.596.515v-2.568h.874v7.158h-.815ZM69.06,395.719c0,.664.14,1.161.42,1.489.28.329.61.493.991.493.384,0,.71-.157.979-.471.269-.314.403-.794.403-1.438,0-.709-.137-1.23-.41-1.562s-.61-.498-1.011-.498c-.391,0-.717.16-.979.479-.262.319-.393.822-.393,1.509Z"/><path d="M77.419,397.667c-.326.277-.639.473-.94.586-.301.114-.624.171-.969.171-.57,0-1.007-.139-1.313-.417s-.459-.634-.459-1.067c0-.254.058-.485.173-.695s.267-.379.454-.506.398-.223.632-.288c.172-.045.433-.089.781-.132.709-.084,1.232-.186,1.567-.303.003-.12.005-.196.005-.229,0-.357-.083-.61-.249-.757-.225-.198-.558-.298-1.001-.298-.414,0-.719.072-.916.218-.197.145-.343.401-.437.769l-.859-.117c.078-.367.207-.665.386-.891.179-.227.438-.4.776-.522s.731-.184,1.177-.184c.443,0,.802.053,1.079.156.277.104.48.235.61.394.13.157.221.357.273.598.029.15.044.42.044.811v1.172c0,.817.019,1.334.056,1.551.038.216.111.424.222.622h-.918c-.091-.182-.15-.396-.176-.64ZM77.346,395.705c-.319.131-.797.241-1.436.332-.361.053-.617.111-.767.176-.15.065-.265.16-.347.286-.082.125-.122.265-.122.417,0,.234.089.43.266.586s.437.234.779.234c.338,0,.64-.074.903-.222.264-.148.458-.351.581-.608.094-.198.142-.491.142-.879v-.322Z"/><path d="M81.516,397.521l.127.776c-.248.053-.469.078-.664.078-.319,0-.566-.05-.742-.151-.176-.101-.299-.233-.371-.397-.072-.165-.107-.511-.107-1.038v-2.983h-.645v-.684h.645v-1.284l.874-.527v1.812h.884v.684h-.884v3.032c0,.251.016.412.046.483.031.072.082.129.151.171.07.043.17.063.3.063.098,0,.226-.011.386-.034Z"/><path d="M85.759,397.667c-.326.277-.639.473-.94.586-.301.114-.624.171-.969.171-.57,0-1.007-.139-1.313-.417s-.459-.634-.459-1.067c0-.254.058-.485.173-.695s.267-.379.454-.506.398-.223.632-.288c.172-.045.433-.089.781-.132.709-.084,1.232-.186,1.567-.303.003-.12.005-.196.005-.229,0-.357-.083-.61-.249-.757-.225-.198-.558-.298-1.001-.298-.414,0-.719.072-.916.218-.197.145-.343.401-.437.769l-.859-.117c.078-.367.207-.665.386-.891.179-.227.438-.4.776-.522s.731-.184,1.177-.184c.443,0,.802.053,1.079.156.277.104.48.235.61.394.13.157.221.357.273.598.029.15.044.42.044.811v1.172c0,.817.019,1.334.056,1.551.038.216.111.424.222.622h-.918c-.091-.182-.15-.396-.176-.64ZM85.686,395.705c-.319.131-.797.241-1.436.332-.361.053-.617.111-.767.176-.15.065-.265.16-.347.286-.082.125-.122.265-.122.417,0,.234.089.43.266.586s.437.234.779.234c.338,0,.64-.074.903-.222.264-.148.458-.351.581-.608.094-.198.142-.491.142-.879v-.322Z"/><path d="M4.786,425.446v-7.158h3.174c.638,0,1.123.064,1.455.192.332.129.597.355.796.682.199.325.298.685.298,1.079,0,.508-.165.936-.493,1.284-.329.348-.836.569-1.523.664.25.12.441.239.571.356.277.254.539.571.786.952l1.245,1.948h-1.191l-.947-1.489c-.277-.43-.504-.759-.684-.986-.179-.229-.339-.388-.481-.479-.142-.092-.286-.155-.432-.19-.107-.023-.283-.034-.527-.034h-1.099v3.179h-.947ZM5.733,421.447h2.036c.433,0,.771-.045,1.016-.135.244-.089.43-.232.557-.43.127-.196.19-.411.19-.642,0-.339-.123-.617-.369-.835-.246-.219-.634-.327-1.165-.327h-2.266v2.368Z"/><path d="M15.431,423.776l.908.112c-.143.53-.409.942-.796,1.235s-.882.439-1.484.439c-.758,0-1.36-.233-1.804-.701-.444-.467-.667-1.122-.667-1.965,0-.873.225-1.55.674-2.031.449-.482,1.032-.723,1.748-.723.693,0,1.26.235,1.699.708.439.472.659,1.136.659,1.992,0,.052-.001.13-.005.234h-3.867c.033.569.194,1.006.483,1.309s.651.454,1.084.454c.322,0,.597-.085.825-.254.228-.17.409-.439.542-.811ZM12.545,422.355h2.896c-.039-.437-.15-.764-.332-.981-.28-.339-.643-.508-1.089-.508-.404,0-.743.135-1.018.405-.275.27-.427.631-.457,1.084Z"/><path d="M17.091,423.898l.869-.137c.049.348.185.615.408.801s.535.278.935.278c.404,0,.703-.082.898-.247.195-.164.293-.357.293-.578,0-.199-.086-.355-.259-.469-.121-.078-.42-.178-.898-.298-.645-.163-1.091-.304-1.34-.423-.249-.118-.438-.283-.566-.493s-.193-.441-.193-.695c0-.231.053-.445.159-.643.106-.196.25-.36.432-.49.137-.102.323-.187.559-.257.236-.069.489-.104.759-.104.407,0,.764.059,1.072.176s.535.275.681.476.248.468.303.804l-.859.117c-.039-.268-.152-.476-.339-.625-.187-.15-.452-.225-.793-.225-.404,0-.692.066-.864.2-.172.133-.259.289-.259.469,0,.113.036.216.107.308.072.094.184.172.337.234.088.032.347.107.776.225.622.166,1.056.302,1.301.407.246.106.438.26.579.462.14.201.21.452.21.752,0,.293-.085.568-.256.827s-.417.459-.74.601-.687.213-1.094.213c-.674,0-1.188-.141-1.541-.42-.353-.28-.579-.695-.676-1.245Z"/><path d="M22.115,422.853c0-.961.267-1.672.801-2.134.446-.385.99-.576,1.631-.576.713,0,1.295.233,1.748.7.453.468.679,1.112.679,1.937,0,.667-.1,1.192-.3,1.574-.2.383-.492.68-.874.892-.382.211-.8.317-1.252.317-.726,0-1.312-.233-1.76-.698-.448-.466-.671-1.137-.671-2.012ZM23.019,422.853c0,.664.145,1.161.435,1.491.29.331.654.496,1.094.496.436,0,.799-.166,1.089-.498s.435-.839.435-1.519c0-.642-.146-1.127-.437-1.458-.292-.33-.653-.495-1.086-.495-.439,0-.804.164-1.094.493-.29.328-.435.825-.435,1.489Z"/><path d="M31.402,425.446v-.762c-.404.586-.952.879-1.646.879-.306,0-.592-.059-.857-.176s-.462-.265-.591-.442c-.128-.177-.219-.395-.271-.651-.036-.173-.054-.446-.054-.82v-3.213h.879v2.876c0,.459.018.768.054.928.055.23.172.412.352.544s.4.198.664.198.511-.067.742-.203c.231-.135.395-.318.491-.552.096-.232.144-.57.144-1.013v-2.778h.879v5.186h-.786Z"/><path d="M33.556,425.446v-5.186h.791v.786c.202-.368.388-.61.559-.728s.359-.176.564-.176c.296,0,.597.094.903.283l-.303.815c-.215-.127-.43-.19-.645-.19-.192,0-.365.058-.518.173-.153.116-.262.276-.327.481-.098.312-.146.654-.146,1.025v2.715h-.879Z"/><path d="M40.279,423.546l.864.112c-.094.596-.336,1.062-.725,1.398s-.867.506-1.433.506c-.709,0-1.28-.232-1.711-.696s-.647-1.129-.647-1.994c0-.561.093-1.05.278-1.47s.468-.735.847-.945.792-.314,1.238-.314c.563,0,1.024.143,1.382.427.358.285.587.689.688,1.214l-.854.132c-.082-.349-.226-.61-.432-.786s-.457-.264-.75-.264c-.443,0-.802.158-1.079.476s-.415.819-.415,1.507c0,.696.133,1.202.4,1.519.267.315.615.474,1.045.474.345,0,.633-.106.864-.317.231-.212.377-.537.439-.977Z"/><path d="M45.445,423.776l.908.112c-.143.53-.409.942-.796,1.235s-.882.439-1.484.439c-.758,0-1.36-.233-1.804-.701-.444-.467-.667-1.122-.667-1.965,0-.873.225-1.55.674-2.031.449-.482,1.032-.723,1.748-.723.693,0,1.26.235,1.699.708.439.472.659,1.136.659,1.992,0,.052-.001.13-.005.234h-3.867c.033.569.194,1.006.483,1.309s.651.454,1.084.454c.322,0,.597-.085.825-.254.228-.17.409-.439.542-.811ZM42.56,422.355h2.896c-.039-.437-.15-.764-.332-.981-.28-.339-.643-.508-1.089-.508-.404,0-.743.135-1.018.405-.275.27-.427.631-.457,1.084Z"/><path d="M50.074,425.875l.854.127c.036.264.135.455.298.576.218.162.516.244.894.244.407,0,.721-.082.942-.244.221-.163.371-.391.449-.684.045-.18.067-.556.063-1.128-.384.452-.863.679-1.436.679-.713,0-1.265-.258-1.655-.771-.391-.515-.586-1.132-.586-1.851,0-.495.089-.951.269-1.37.179-.418.438-.741.779-.969.34-.229.74-.342,1.199-.342.612,0,1.117.247,1.514.742v-.625h.811v4.482c0,.807-.082,1.379-.247,1.716s-.425.604-.781.799-.795.293-1.316.293c-.619,0-1.118-.14-1.499-.418s-.565-.697-.552-1.257ZM50.802,422.76c0,.68.135,1.177.405,1.489s.609.469,1.016.469c.404,0,.742-.155,1.016-.467.273-.311.41-.798.41-1.462,0-.635-.141-1.113-.422-1.436s-.621-.483-1.018-.483c-.391,0-.723.158-.996.476s-.41.789-.41,1.414Z"/><path d="M55.787,425.446v-5.186h.791v.786c.202-.368.388-.61.559-.728s.359-.176.564-.176c.296,0,.597.094.903.283l-.303.815c-.215-.127-.43-.19-.645-.19-.192,0-.365.058-.518.173-.153.116-.262.276-.327.481-.098.312-.146.654-.146,1.025v2.715h-.879Z"/><path d="M58.8,422.853c0-.961.267-1.672.801-2.134.446-.385.99-.576,1.631-.576.713,0,1.295.233,1.748.7.453.468.679,1.112.679,1.937,0,.667-.1,1.192-.3,1.574-.2.383-.492.68-.874.892-.382.211-.8.317-1.252.317-.726,0-1.312-.233-1.76-.698-.448-.466-.671-1.137-.671-2.012ZM59.703,422.853c0,.664.145,1.161.435,1.491.29.331.654.496,1.094.496.436,0,.799-.166,1.089-.498s.435-.839.435-1.519c0-.642-.146-1.127-.437-1.458-.292-.33-.653-.495-1.086-.495-.439,0-.804.164-1.094.493-.29.328-.435.825-.435,1.489Z"/><path d="M68.087,425.446v-.762c-.404.586-.952.879-1.646.879-.306,0-.592-.059-.857-.176s-.462-.265-.591-.442c-.128-.177-.219-.395-.271-.651-.036-.173-.054-.446-.054-.82v-3.213h.879v2.876c0,.459.018.768.054.928.055.23.172.412.352.544s.4.198.664.198.511-.067.742-.203c.231-.135.395-.318.491-.552.096-.232.144-.57.144-1.013v-2.778h.879v5.186h-.786Z"/><path d="M70.25,427.433v-7.173h.801v.674c.189-.264.402-.462.64-.594s.526-.197.864-.197c.443,0,.833.113,1.172.342.338.228.594.549.767.964s.259.87.259,1.365c0,.53-.095,1.008-.286,1.433s-.467.751-.83.977c-.363.227-.745.34-1.145.34-.293,0-.556-.062-.789-.186-.233-.124-.424-.28-.574-.469v2.524h-.879ZM71.046,422.882c0,.667.135,1.16.405,1.479.27.318.597.479.981.479.391,0,.725-.165,1.003-.496.278-.33.417-.842.417-1.535,0-.661-.136-1.156-.408-1.484-.272-.329-.597-.493-.974-.493-.375,0-.706.175-.994.524-.288.351-.432.858-.432,1.526Z"/><polyline points="294.713 315.996 310.692 315.996 310.692 383.366 294.713 383.366" fill="none" stroke="#3376d0" stroke-linecap="round" stroke-linejoin="round"/><polyline points="294.713 213.678 310.692 213.678 310.692 281.048 294.713 281.048" fill="none" stroke="#3376d0" stroke-linecap="round" stroke-linejoin="round"/><polyline points="294.713 111.462 310.692 111.462 310.692 178.833 294.713 178.833" fill="none" stroke="#3376d0" stroke-linecap="round" stroke-linejoin="round"/><line x1="82.351" y1="48.153" x2="184.533" y2="197.13" fill="none" stroke="#fff" stroke-miterlimit="10" stroke-width="3"/><line x1="82.351" y1="48.153" x2="184.533" y2="197.13" fill="none" stroke="#231f20" stroke-miterlimit="10" stroke-width=".75"/><polygon points="181.941 197.979 186.664 200.237 186.259 195.018 181.941 197.979" fill="#231f20"/><line x1="212.465" y1="39.903" x2="104.91" y2="197.604" fill="none" stroke="#fff" stroke-miterlimit="10" stroke-width="3"/><line x1="212.465" y1="39.903" x2="104.91" y2="197.604" fill="none" stroke="#231f20" stroke-miterlimit="10" stroke-width=".75"/><polygon points="103.179 195.496 102.787 200.717 107.504 198.446 103.179 195.496" fill="#231f20"/><circle cx="146.524" cy="144.95" r="22.5" transform="translate(-20.024 266.364) rotate(-80.783)" fill="#d0d2d3"/><path d="M127.138,145.326l5.138,5.153c.326.286.856.075.856-.336v-1.587c0-.576.467-1.042,1.042-1.042h9.383c.576,0,1.042-.466,1.042-1.042v-2.72c0-.576-.467-1.042-1.042-1.042h-9.383c-.573,0-1.042-.469-1.042-1.042v-1.752c0-.411-.548-.61-.875-.324l-5.124,5.118c-.086.088-.125.199-.125.309s.045.22.13.308Z" fill="#5ac0ed" stroke="#1e4a93" stroke-linecap="round" stroke-linejoin="round" stroke-width=".501"/><path d="M165.91,144.741l-5.138-5.153c-.326-.286-.856-.075-.856.336v1.587c0,.576-.467,1.042-1.042,1.042h-9.383c-.576,0-1.042.466-1.042,1.042v2.72c0,.576.467,1.042,1.042,1.042h9.383c.573,0,1.042.469,1.042,1.042v1.752c0,.411.548.61.875.324l5.124-5.118c.086-.088.125-.199.125-.309s-.045-.22-.13-.308Z" fill="#5ac0ed" stroke="#1e4a93" stroke-linecap="round" stroke-linejoin="round" stroke-width=".501"/><path d="M146.817,164.419l5.153-5.138c.286-.326.075-.856-.336-.856h-1.587c-.576,0-1.042-.467-1.042-1.042v-9.383c0-.576-.466-1.042-1.042-1.042h-2.72c-.576,0-1.042.467-1.042,1.042v9.383c0,.573-.469,1.042-1.042,1.042h-1.752c-.411,0-.61.548-.324.875l5.118,5.124c.088.086.199.125.309.125s.22-.045.308-.13Z" fill="#5ac0ed" stroke="#1e4a93" stroke-linecap="round" stroke-linejoin="round" stroke-width=".501"/><path d="M146.232,125.647l-5.153,5.138c-.286.326-.075.856.336.856h1.587c.576,0,1.042.467,1.042,1.042v9.383c0,.576.466,1.042,1.042,1.042h2.72c.576,0,1.042-.467,1.042-1.042v-9.383c0-.573.469-1.042,1.042-1.042h1.752c.411,0,.61-.548.324-.875l-5.118-5.124c-.088-.086-.199-.125-.309-.125s-.22.045-.308.13Z" fill="#5ac0ed" stroke="#1e4a93" stroke-linecap="round" stroke-linejoin="round" stroke-width=".501"/><circle cx="146.524" cy="145.033" r="5.494" fill="#a2ce60" stroke="#1e4a93" stroke-linecap="round" stroke-linejoin="round" stroke-width="1.042"/><circle cx="146.524" cy="144.95" r="22.5" transform="translate(-20.024 266.364) rotate(-80.783)" fill="none" stroke="#000" stroke-miterlimit="10" stroke-width="1.042"/><circle cx="87.908" cy="52.472" r="22.5" fill="#1e4a93"/><ellipse cx="87.908" cy="52.472" rx="18.733" ry="18.741" fill="#acdff6" stroke="#fff" stroke-miterlimit="10" stroke-width="1.097"/><path d="M78.505,46.451c-.327-3.433,2.061-6.611,5.411-7.207,3.35-.596,6.336,1.357,7.413,4.262,0,0,.001,0,.003.001.738-.819,1.843-1.289,3.061-1.096,1.319.21,2.404,1.23,2.756,2.536.148.552.151,1.063.054,1.547,0,.001.001.001.001.001,2.592.435,4.558,2.756,4.441,5.531-.122,2.913-2.612,5.152-5.486,5.152h-16.681c-2.935,0-5.312-2.41-5.312-5.387,0-5.237,4.341-5.323,4.339-5.341Z" fill="#fff"/><path d="M95.92,55.345h-1.072c-.135,0-.252-.083-.293-.212-.128-.406-.288-.794-.485-1.163-.064-.12-.046-.266.051-.363l.759-.758c.24-.24.24-.63,0-.871l-1.742-1.742c-.24-.241-.63-.241-.87,0l-.76.759c-.096.096-.243.115-.363.052-.371-.196-.746-.356-1.151-.483-.129-.041-.208-.158-.208-.293v-1.07c0-.34-.3-.652-.64-.652h-2.463c-.341,0-.652.312-.652.652v1.07c0,.135-.072.252-.202.293-.406.126-.788.288-1.156.483-.12.063-.262.044-.359-.052l-.755-.757c-.241-.24-.629-.24-.871,0l-1.741,1.742c-.24.241-.24.63,0,.871l.756.756c.096.097.116.243.052.364-.195.369-.357.754-.484,1.161-.04.129-.157.214-.293.214h-1.07c-.34,0-.584.287-.584.627v2.464c0,.34.244.575.584.575h1.07c.135,0,.252.11.293.24.127.407.288.807.483,1.177.064.121.045.273-.052.369l-.757.759c-.241.241-.241.632,0,.873l1.742,1.742c.241.241.63.241.871,0l.756-.756c.095-.095.241-.115.362-.052.372.194.744.358,1.152.484.13.041.203.157.203.294v1.072c0,.34.311.594.652.594h2.463c.34,0,.64-.254.64-.594v-1.073c0-.136.078-.253.208-.293.406-.126.79-.289,1.161-.484.12-.063.264-.044.36.052l.756.758c.24.241.63.241.87,0l1.742-1.741c.241-.241.24-.631,0-.872l-.759-.759c-.096-.096-.115-.243-.052-.363.195-.369.358-.78.483-1.187.041-.129.158-.24.294-.24h1.072c.341,0,.573-.235.573-.575v-2.464c0-.34-.232-.627-.572-.627ZM87.917,60.901c-2.04,0-3.694-1.653-3.694-3.693s1.654-3.693,3.694-3.693,3.693,1.653,3.693,3.693-1.654,3.693-3.693,3.693Z" fill="#26a9e0"/><circle cx="87.908" cy="57.178" r="1.332" fill="#26a9e0"/><rect x="161.998" y="22.964" width="32.993" height="49.914" fill="#999"/><path d="M193.382,24.595v22.588h-29.775v-22.588h29.775M194.961,23.015h-32.935v25.747h32.935v-25.747h0Z" fill="#58595b"/><path d="M193.381,48.753v22.597h-29.775v-22.597h29.775M194.961,47.173h-32.935v25.757h32.935v-25.757h0Z" fill="#58595b"/><path d="M194.571,23.424v49.097h-32.155V23.424h32.155M195.436,22.559h-33.884v50.826h33.884V22.559h0Z" fill="#231f20"/><rect x="165.18" y="50.352" width="26.629" height="19.374" fill="#5ac0ed"/><rect x="165.18" y="50.352" width="26.629" height="2.052" fill="#929497"/><circle cx="166.819" cy="51.505" r=".475" fill="#58595b"/><line x1="165.18" y1="52.509" x2="191.809" y2="52.509" fill="none" stroke="#626366" stroke-miterlimit="10" stroke-width=".314"/><path d="M178.414,64.666v-.017c0-1.639,1.322-2.969,3.084-2.969s3.068,1.313,3.068,2.953v.016c0,1.64-1.322,2.97-3.084,2.97s-3.067-1.313-3.067-2.953ZM182.941,64.666v-.017c0-.832-.587-1.542-1.46-1.542s-1.452.702-1.452,1.526v.016c0,.824.596,1.542,1.468,1.542.865,0,1.444-.701,1.444-1.525Z" fill="#fff"/><path d="M184.907,66.657l.881-1.052c.571.449,1.191.685,1.852.685.432,0,.661-.146.661-.392v-.016c0-.245-.187-.367-.971-.555-1.216-.277-2.154-.62-2.154-1.786v-.017c0-1.06.841-1.827,2.211-1.827.971,0,1.729.261,2.349.759l-.791,1.118c-.522-.375-1.093-.563-1.599-.563-.384,0-.571.155-.571.367v.016c0,.261.196.376.995.555,1.305.285,2.121.71,2.121,1.778v.016c0,1.167-.922,1.86-2.308,1.86-1.012,0-1.966-.319-2.676-.947Z" fill="#fff"/><path d="M191.533,50.626v18.85h-26.078v-18.85h26.078M192.161,49.999h-27.333v20.105h27.333v-20.105h0Z" fill="#231f20"/><rect x="165.18" y="26.19" width="26.629" height="19.374" fill="#a2ce60"/><rect x="165.18" y="26.19" width="26.629" height="2.052" fill="#929497"/><circle cx="166.819" cy="27.343" r=".475" fill="#58595b"/><line x1="165.18" y1="28.347" x2="191.809" y2="28.347" fill="none" stroke="#626366" stroke-miterlimit="10" stroke-width=".314"/><path d="M175.243,37.592h1.525l2.431,5.751h-1.697l-.408-1.028h-2.211l-.408,1.028h-1.656l2.423-5.751ZM176.629,41.084l-.636-1.615-.645,1.615h1.281Z" fill="#fff"/><path d="M179.754,37.633h2.455c1.436,0,2.365.742,2.365,1.999v.016c0,1.354-1.036,2.064-2.447,2.064h-.792v1.632h-1.582v-5.71ZM182.095,40.472c.555,0,.906-.302.906-.751v-.016c0-.489-.351-.742-.914-.742h-.751v1.509h.759Z" fill="#fff"/><path d="M185.244,37.633h2.455c1.436,0,2.365.742,2.365,1.999v.016c0,1.354-1.036,2.064-2.447,2.064h-.792v1.632h-1.582v-5.71ZM187.585,40.472c.555,0,.906-.302.906-.751v-.016c0-.489-.351-.742-.914-.742h-.751v1.509h.759Z" fill="#fff"/><path d="M191.533,26.464v18.85h-26.078v-18.85h26.078M192.161,25.837h-27.333v20.105h27.333v-20.105h0Z" fill="#231f20"/><rect x="209.421" y="22.964" width="32.993" height="49.914" fill="#999"/><path d="M240.805,24.595v22.588h-29.775v-22.588h29.775M242.385,23.015h-32.935v25.747h32.935v-25.747h0Z" fill="#58595b"/><path d="M240.805,48.753v22.597h-29.775v-22.597h29.775M242.385,47.173h-32.935v25.757h32.935v-25.757h0Z" fill="#58595b"/><path d="M241.995,23.424v49.097h-32.155V23.424h32.155M242.859,22.559h-33.884v50.826h33.884V22.559h0Z" fill="#231f20"/><rect x="212.604" y="50.352" width="26.629" height="19.374" fill="#5ac0ed"/><rect x="212.604" y="50.352" width="26.629" height="2.052" fill="#929497"/><circle cx="214.243" cy="51.505" r=".475" fill="#58595b"/><line x1="212.604" y1="52.509" x2="239.233" y2="52.509" fill="none" stroke="#626366" stroke-miterlimit="10" stroke-width=".314"/><path d="M225.838,64.666v-.017c0-1.639,1.322-2.969,3.084-2.969s3.068,1.313,3.068,2.953v.016c0,1.64-1.322,2.97-3.084,2.97s-3.067-1.313-3.067-2.953ZM230.365,64.666v-.017c0-.832-.587-1.542-1.46-1.542s-1.452.702-1.452,1.526v.016c0,.824.596,1.542,1.468,1.542.865,0,1.444-.701,1.444-1.525Z" fill="#fff"/><path d="M232.331,66.657l.881-1.052c.571.449,1.191.685,1.852.685.432,0,.661-.146.661-.392v-.016c0-.245-.187-.367-.971-.555-1.216-.277-2.154-.62-2.154-1.786v-.017c0-1.06.841-1.827,2.211-1.827.971,0,1.729.261,2.349.759l-.791,1.118c-.522-.375-1.093-.563-1.599-.563-.384,0-.571.155-.571.367v.016c0,.261.196.376.995.555,1.305.285,2.121.71,2.121,1.778v.016c0,1.167-.922,1.86-2.308,1.86-1.012,0-1.966-.319-2.676-.947Z" fill="#fff"/><path d="M238.956,50.626v18.85h-26.078v-18.85h26.078M239.584,49.999h-27.333v20.105h27.333v-20.105h0Z" fill="#231f20"/><rect x="212.604" y="26.19" width="26.629" height="19.374" fill="#a2ce60"/><rect x="212.604" y="26.19" width="26.629" height="2.052" fill="#929497"/><circle cx="214.243" cy="27.343" r=".475" fill="#58595b"/><line x1="212.604" y1="28.347" x2="239.233" y2="28.347" fill="none" stroke="#626366" stroke-miterlimit="10" stroke-width=".314"/><path d="M222.666,37.592h1.525l2.431,5.751h-1.697l-.408-1.028h-2.211l-.408,1.028h-1.656l2.423-5.751ZM224.053,41.084l-.636-1.615-.645,1.615h1.281Z" fill="#fff"/><path d="M227.177,37.633h2.455c1.436,0,2.365.742,2.365,1.999v.016c0,1.354-1.036,2.064-2.447,2.064h-.792v1.632h-1.582v-5.71ZM229.518,40.472c.555,0,.906-.302.906-.751v-.016c0-.489-.351-.742-.914-.742h-.751v1.509h.759Z" fill="#fff"/><path d="M232.667,37.633h2.455c1.436,0,2.365.742,2.365,1.999v.016c0,1.354-1.036,2.064-2.447,2.064h-.792v1.632h-1.582v-5.71ZM235.008,40.472c.555,0,.906-.302.906-.751v-.016c0-.489-.351-.742-.914-.742h-.751v1.509h.759Z" fill="#fff"/><path d="M238.956,26.464v18.85h-26.078v-18.85h26.078M239.584,25.837h-27.333v20.105h27.333v-20.105h0Z" fill="#231f20"/><rect x="185.709" y="30.035" width="32.993" height="49.914" fill="#999"/><path d="M217.093,31.666v22.588h-29.775v-22.588h29.775M218.673,30.086h-32.935v25.747h32.935v-25.747h0Z" fill="#58595b"/><path d="M217.093,55.823v22.597h-29.775v-22.597h29.775M218.673,54.243h-32.935v25.757h32.935v-25.757h0Z" fill="#58595b"/><path d="M218.283,30.495v49.097h-32.155V30.495h32.155M219.148,29.63h-33.884v50.826h33.884V29.63h0Z" fill="#231f20"/><rect x="188.892" y="57.422" width="26.629" height="19.374" fill="#5ac0ed"/><rect x="188.892" y="57.422" width="26.629" height="2.052" fill="#929497"/><circle cx="190.531" cy="58.575" r=".475" fill="#58595b"/><line x1="188.892" y1="59.579" x2="215.521" y2="59.579" fill="none" stroke="#626366" stroke-miterlimit="10" stroke-width=".314"/><path d="M202.126,71.737v-.017c0-1.639,1.322-2.969,3.084-2.969s3.068,1.313,3.068,2.953v.016c0,1.64-1.322,2.97-3.084,2.97s-3.067-1.313-3.067-2.953ZM206.653,71.737v-.017c0-.832-.587-1.542-1.46-1.542s-1.452.702-1.452,1.526v.016c0,.824.596,1.542,1.468,1.542.865,0,1.444-.701,1.444-1.525Z" fill="#fff"/><path d="M208.619,73.727l.881-1.052c.571.449,1.191.685,1.852.685.432,0,.661-.146.661-.392v-.016c0-.245-.187-.367-.971-.555-1.216-.277-2.154-.62-2.154-1.786v-.017c0-1.06.841-1.827,2.211-1.827.971,0,1.729.261,2.349.759l-.791,1.118c-.522-.375-1.093-.563-1.599-.563-.384,0-.571.155-.571.367v.016c0,.261.196.376.995.555,1.305.285,2.121.71,2.121,1.778v.016c0,1.167-.922,1.86-2.308,1.86-1.012,0-1.966-.319-2.676-.947Z" fill="#fff"/><path d="M215.245,57.697v18.85h-26.078v-18.85h26.078M215.872,57.069h-27.333v20.105h27.333v-20.105h0Z" fill="#231f20"/><rect x="188.892" y="33.26" width="26.629" height="19.374" fill="#a2ce60"/><rect x="188.892" y="33.26" width="26.629" height="2.052" fill="#929497"/><circle cx="190.531" cy="34.413" r=".475" fill="#58595b"/><line x1="188.892" y1="35.417" x2="215.521" y2="35.417" fill="none" stroke="#626366" stroke-miterlimit="10" stroke-width=".314"/><path d="M198.954,44.663h1.525l2.431,5.751h-1.697l-.408-1.028h-2.211l-.408,1.028h-1.656l2.423-5.751ZM200.341,48.155l-.636-1.615-.645,1.615h1.281Z" fill="#fff"/><path d="M203.465,44.704h2.455c1.436,0,2.365.742,2.365,1.999v.016c0,1.354-1.036,2.064-2.447,2.064h-.792v1.632h-1.582v-5.71ZM205.806,47.543c.555,0,.906-.302.906-.751v-.016c0-.489-.351-.742-.914-.742h-.751v1.509h.759Z" fill="#fff"/><path d="M208.955,44.704h2.455c1.436,0,2.365.742,2.365,1.999v.016c0,1.354-1.036,2.064-2.447,2.064h-.792v1.632h-1.582v-5.71ZM211.296,47.543c.555,0,.906-.302.906-.751v-.016c0-.489-.351-.742-.914-.742h-.751v1.509h.759Z" fill="#fff"/><path d="M215.245,33.535v18.85h-26.078v-18.85h26.078M215.872,32.907h-27.333v20.105h27.333v-20.105h0Z" fill="#231f20"/><line x1="95.905" y1="252.416" x2="122.413" y2="311.085" fill="none" stroke="#fff" stroke-miterlimit="10" stroke-width="3"/><line x1="95.905" y1="252.416" x2="122.413" y2="311.085" fill="none" stroke="#231f20" stroke-miterlimit="10" stroke-width=".75"/><polygon points="119.712 311.465 123.965 314.518 124.484 309.309 119.712 311.465" fill="#231f20"/><line x1="198.751" y1="252.416" x2="169.414" y2="311.085" fill="none" stroke="#fff" stroke-miterlimit="10" stroke-width="3"/><line x1="198.751" y1="252.416" x2="169.414" y2="311.085" fill="none" stroke="#231f20" stroke-miterlimit="10" stroke-width=".75"/><polygon points="167.415 309.229 167.729 314.454 172.098 311.571 167.415 309.229" fill="#231f20"/><rect x="57.244" y="203.299" width="78.444" height="87.545" fill="#f1f1f1" stroke="#000" stroke-miterlimit="10" stroke-width=".5"/><rect x="157.607" y="203.299" width="78.444" height="87.545" fill="#f1f1f1" stroke="#000" stroke-miterlimit="10" stroke-width=".5"/><line x1="92.899" y1="250.742" x2="200.15" y2="250.747" fill="none" stroke="#fff" stroke-miterlimit="10" stroke-width="3"/><line x1="92.899" y1="250.742" x2="200.15" y2="250.747" fill="none" stroke="#231f20" stroke-miterlimit="10" stroke-width=".75"/><line x1="92.899" y1="264.448" x2="200.15" y2="264.453" fill="none" stroke="#fff" stroke-miterlimit="10" stroke-width="3"/><line x1="92.899" y1="264.448" x2="200.15" y2="264.453" fill="none" stroke="#231f20" stroke-miterlimit="10" stroke-width=".75"/><rect x="73.345" y="234.934" width="44.388" height="44.388" rx="3.6" ry="3.6" fill="#a3cf60"/><path d="M115.82,279.628h-40.563c-1.223,0-2.219-.996-2.219-2.219v-40.563c0-1.223.995-2.219,2.219-2.219h40.563c1.223,0,2.219.995,2.219,2.219v40.563c0,1.223-.996,2.219-2.219,2.219ZM75.812,235.839c-.862,0-1.562.701-1.562,1.562v39.453c0,.862.701,1.563,1.562,1.563h39.453c.862,0,1.563-.701,1.563-1.563v-39.453c0-.862-.701-1.562-1.563-1.562h-39.453Z" fill="#1e4a93"/><path d="M105.188,251.284c.336-3.523-2.116-6.785-5.553-7.396-3.439-.612-6.503,1.393-7.608,4.374,0,0-.001,0-.003.001-.758-.84-1.892-1.323-3.141-1.124-1.354.216-2.468,1.263-2.828,2.603-.152.566-.155,1.091-.056,1.588h-.001c-2.661.447-4.678,2.829-4.558,5.678.126,2.99,2.681,5.287,5.63,5.287h17.12c3.013,0,5.451-2.473,5.451-5.528,0-5.375-4.456-5.463-4.453-5.481Z" fill="#fff"/><path d="M78.976,272.476v-.019c0-1.856,1.465-3.377,3.48-3.377s3.461,1.502,3.461,3.359v.018c0,1.857-1.465,3.378-3.48,3.378s-3.462-1.502-3.462-3.359ZM84.416,272.476v-.019c0-1.12-.821-2.052-1.978-2.052s-1.959.914-1.959,2.034v.018c0,1.12.821,2.053,1.978,2.053s1.959-.914,1.959-2.034Z" fill="#fff"/><path d="M87.196,269.192h1.325l3.06,4.021v-4.021h1.418v6.531h-1.222l-3.163-4.152v4.152h-1.418v-6.531Z" fill="#fff"/><path d="M96.089,270.517h-1.987v-1.325h5.411v1.325h-1.987v5.206h-1.437v-5.206Z" fill="#fff"/><path d="M102.014,269.146h1.325l2.799,6.578h-1.502l-.597-1.465h-2.762l-.597,1.465h-1.465l2.799-6.578ZM103.525,272.99l-.867-2.118-.868,2.118h1.735Z" fill="#fff"/><path d="M107.146,269.192h2.668c1.558,0,2.501.923,2.501,2.258v.019c0,1.512-1.176,2.295-2.641,2.295h-1.092v1.959h-1.437v-6.531ZM109.721,272.485c.719,0,1.138-.429,1.138-.989v-.019c0-.644-.448-.989-1.166-.989h-1.11v1.996h1.138Z" fill="#fff"/><rect x="175.316" y="234.934" width="44.388" height="44.388" rx="3.6" ry="3.6" fill="#a3cf60"/><path d="M217.791,279.628h-40.563c-1.223,0-2.219-.996-2.219-2.219v-40.563c0-1.223.995-2.219,2.219-2.219h40.563c1.223,0,2.219.995,2.219,2.219v40.563c0,1.223-.996,2.219-2.219,2.219ZM177.783,235.839c-.862,0-1.562.701-1.562,1.562v39.453c0,.862.701,1.563,1.562,1.563h39.453c.862,0,1.563-.701,1.563-1.563v-39.453c0-.862-.701-1.562-1.563-1.562h-39.453Z" fill="#1e4a93"/><path d="M207.159,251.284c.336-3.523-2.116-6.785-5.553-7.396-3.439-.612-6.503,1.393-7.608,4.374,0,0-.001,0-.003.001-.758-.84-1.892-1.323-3.141-1.124-1.354.216-2.468,1.263-2.828,2.603-.152.566-.155,1.091-.056,1.588h-.001c-2.661.447-4.678,2.829-4.558,5.678.126,2.99,2.681,5.287,5.63,5.287h17.12c3.013,0,5.451-2.473,5.451-5.528,0-5.375-4.456-5.463-4.453-5.481Z" fill="#fff"/><path d="M180.947,272.476v-.019c0-1.856,1.465-3.377,3.48-3.377s3.461,1.502,3.461,3.359v.018c0,1.857-1.465,3.378-3.48,3.378s-3.462-1.502-3.462-3.359ZM186.387,272.476v-.019c0-1.12-.821-2.052-1.978-2.052s-1.959.914-1.959,2.034v.018c0,1.12.821,2.053,1.978,2.053s1.959-.914,1.959-2.034Z" fill="#fff"/><path d="M189.168,269.192h1.325l3.06,4.021v-4.021h1.418v6.531h-1.222l-3.163-4.152v4.152h-1.418v-6.531Z" fill="#fff"/><path d="M198.06,270.517h-1.987v-1.325h5.411v1.325h-1.987v5.206h-1.437v-5.206Z" fill="#fff"/><path d="M203.985,269.146h1.325l2.799,6.578h-1.502l-.597-1.465h-2.762l-.597,1.465h-1.465l2.799-6.578ZM205.496,272.99l-.867-2.118-.868,2.118h1.735Z" fill="#fff"/><path d="M209.117,269.192h2.668c1.558,0,2.501.923,2.501,2.258v.019c0,1.512-1.176,2.295-2.641,2.295h-1.092v1.959h-1.437v-6.531ZM211.692,272.485c.719,0,1.138-.429,1.138-.989v-.019c0-.644-.448-.989-1.166-.989h-1.11v1.996h1.138Z" fill="#fff"/><rect x="23.214" y="316.007" width="248.184" height="67.592" fill="none" stroke="#000" stroke-miterlimit="10" stroke-width=".5"/><path d="M43.419,333.911v-7.158h1.426l1.694,5.068c.156.472.27.825.342,1.06.082-.261.208-.644.381-1.147l1.714-4.98h1.274v7.158h-.913v-5.991l-2.08,5.991h-.854l-2.07-6.094v6.094h-.913Z"/><path d="M55.05,333.271c-.326.276-.639.472-.94.586-.301.113-.624.171-.969.171-.57,0-1.007-.14-1.313-.418s-.459-.634-.459-1.066c0-.254.058-.486.173-.696s.267-.378.454-.505.398-.224.632-.288c.172-.046.433-.09.781-.132.709-.085,1.232-.186,1.567-.303.003-.121.005-.197.005-.229,0-.358-.083-.61-.249-.757-.225-.199-.558-.298-1.001-.298-.414,0-.719.072-.916.217-.197.146-.343.401-.437.77l-.859-.117c.078-.368.207-.665.386-.892.179-.226.438-.4.776-.522s.731-.183,1.177-.183c.443,0,.802.052,1.079.156.277.104.48.235.61.393.13.158.221.357.273.599.029.149.044.42.044.811v1.172c0,.816.019,1.334.056,1.55.038.217.111.424.222.623h-.918c-.091-.183-.15-.396-.176-.64ZM54.977,331.308c-.319.13-.797.24-1.436.332-.361.052-.617.11-.767.176-.15.064-.265.16-.347.285-.082.126-.122.265-.122.418,0,.234.089.43.266.586s.437.234.779.234c.338,0,.64-.074.903-.223.264-.147.458-.351.581-.607.094-.199.142-.492.142-.879v-.322Z"/><path d="M57.228,333.911v-5.186h.791v.737c.381-.57.931-.854,1.65-.854.312,0,.6.056.862.168s.458.26.588.442c.13.182.221.398.273.649.033.162.049.447.049.854v3.188h-.879v-3.154c0-.358-.034-.626-.103-.804-.068-.177-.189-.318-.364-.425-.174-.105-.378-.158-.613-.158-.375,0-.697.118-.969.356-.272.237-.408.688-.408,1.353v2.832h-.879Z"/><path d="M66.173,333.271c-.326.276-.639.472-.94.586-.301.113-.624.171-.969.171-.57,0-1.007-.14-1.313-.418s-.459-.634-.459-1.066c0-.254.058-.486.173-.696s.267-.378.454-.505.398-.224.632-.288c.172-.046.433-.09.781-.132.709-.085,1.232-.186,1.567-.303.003-.121.005-.197.005-.229,0-.358-.083-.61-.249-.757-.225-.199-.558-.298-1.001-.298-.414,0-.719.072-.916.217-.197.146-.343.401-.437.77l-.859-.117c.078-.368.207-.665.386-.892.179-.226.438-.4.776-.522s.731-.183,1.177-.183c.443,0,.802.052,1.079.156.277.104.48.235.61.393.13.158.221.357.273.599.029.149.044.42.044.811v1.172c0,.816.019,1.334.056,1.55.038.217.111.424.222.623h-.918c-.091-.183-.15-.396-.176-.64ZM66.1,331.308c-.319.13-.797.24-1.436.332-.361.052-.617.11-.767.176-.15.064-.265.16-.347.285-.082.126-.122.265-.122.418,0,.234.089.43.266.586s.437.234.779.234c.338,0,.64-.074.903-.223.264-.147.458-.351.581-.607.094-.199.142-.492.142-.879v-.322Z"/><path d="M68.189,334.34l.854.127c.036.264.135.455.298.576.218.162.516.244.894.244.407,0,.721-.082.942-.244.221-.163.371-.391.449-.684.045-.18.067-.556.063-1.128-.384.452-.863.679-1.436.679-.713,0-1.265-.258-1.655-.771-.391-.515-.586-1.132-.586-1.851,0-.495.089-.951.269-1.37.179-.418.438-.741.779-.969.34-.229.74-.342,1.199-.342.612,0,1.117.247,1.514.742v-.625h.811v4.482c0,.807-.082,1.379-.247,1.716s-.425.604-.781.799-.795.293-1.316.293c-.619,0-1.118-.14-1.499-.418s-.565-.697-.552-1.257ZM68.917,331.225c0,.68.135,1.177.405,1.489s.609.469,1.016.469c.404,0,.742-.155,1.016-.467.273-.311.41-.798.41-1.462,0-.635-.141-1.113-.422-1.436s-.621-.483-1.018-.483c-.391,0-.723.158-.996.476s-.41.789-.41,1.414Z"/><path d="M77.462,332.241l.908.112c-.143.53-.409.942-.796,1.235s-.882.439-1.484.439c-.758,0-1.36-.233-1.804-.701-.444-.467-.667-1.122-.667-1.965,0-.873.225-1.55.674-2.031.449-.482,1.032-.723,1.748-.723.693,0,1.26.235,1.699.708.439.472.659,1.136.659,1.992,0,.052-.001.13-.005.234h-3.867c.033.569.194,1.006.483,1.309s.651.454,1.084.454c.322,0,.597-.085.825-.254.228-.17.409-.439.542-.811ZM74.576,330.82h2.896c-.039-.437-.15-.764-.332-.981-.28-.339-.643-.508-1.089-.508-.404,0-.743.135-1.018.405-.275.27-.427.631-.457,1.084Z"/><path d="M82.838,333.911v-.654c-.329.514-.812.771-1.45.771-.414,0-.793-.114-1.14-.342-.347-.229-.615-.546-.806-.955-.19-.408-.286-.878-.286-1.408,0-.518.086-.987.259-1.409.172-.421.431-.744.776-.969s.731-.337,1.157-.337c.312,0,.591.065.835.197s.443.304.596.516v-2.568h.874v7.158h-.815ZM80.06,331.323c0,.664.14,1.16.42,1.489.28.328.61.493.991.493.384,0,.71-.157.979-.472.269-.313.403-.793.403-1.438,0-.71-.137-1.23-.41-1.562s-.61-.498-1.011-.498c-.391,0-.717.159-.979.479-.262.318-.393.821-.393,1.509Z"/><path d="M56.158,343.911v-.654c-.329.514-.812.771-1.45.771-.414,0-.793-.114-1.14-.342-.347-.229-.615-.546-.806-.955-.19-.408-.286-.878-.286-1.408,0-.518.086-.987.259-1.409.172-.421.431-.744.776-.969s.731-.337,1.157-.337c.312,0,.591.065.835.197s.443.304.596.516v-2.568h.874v7.158h-.815ZM53.38,341.323c0,.664.14,1.16.42,1.489.28.328.61.493.991.493.384,0,.71-.157.979-.472.269-.313.403-.793.403-1.438,0-.71-.137-1.23-.41-1.562s-.61-.498-1.011-.498c-.391,0-.717.159-.979.479-.262.318-.393.821-.393,1.509Z"/><path d="M58.36,337.763v-1.011h.879v1.011h-.879ZM58.36,343.911v-5.186h.879v5.186h-.879Z"/><path d="M60.226,342.363l.869-.137c.049.348.185.615.408.801s.535.278.935.278c.404,0,.703-.082.898-.247.195-.164.293-.357.293-.578,0-.199-.086-.355-.259-.469-.121-.078-.42-.178-.898-.298-.645-.163-1.091-.304-1.34-.423-.249-.118-.438-.283-.566-.493s-.193-.441-.193-.695c0-.231.053-.445.159-.643.106-.196.25-.36.432-.49.137-.102.323-.187.559-.257.236-.069.489-.104.759-.104.407,0,.764.059,1.072.176s.535.275.681.476.248.468.303.804l-.859.117c-.039-.268-.152-.476-.339-.625-.187-.15-.452-.225-.793-.225-.404,0-.692.066-.864.2-.172.133-.259.289-.259.469,0,.113.036.216.107.308.072.094.184.172.337.234.088.032.347.107.776.225.622.166,1.056.302,1.301.407.246.106.438.26.579.462.14.201.21.452.21.752,0,.293-.085.568-.256.827s-.417.459-.74.601-.687.213-1.094.213c-.674,0-1.188-.141-1.541-.42-.353-.28-.579-.695-.676-1.245Z"/><path d="M65.582,343.911v-7.158h.879v4.082l2.08-2.109h1.138l-1.982,1.924,2.183,3.262h-1.084l-1.714-2.651-.62.596v2.056h-.879Z"/><path d="M70.226,342.363l.869-.137c.049.348.185.615.408.801s.535.278.935.278c.404,0,.703-.082.898-.247.195-.164.293-.357.293-.578,0-.199-.086-.355-.259-.469-.121-.078-.42-.178-.898-.298-.645-.163-1.091-.304-1.34-.423-.249-.118-.438-.283-.566-.493s-.193-.441-.193-.695c0-.231.053-.445.159-.643.106-.196.25-.36.432-.49.137-.102.323-.187.559-.257.236-.069.489-.104.759-.104.407,0,.764.059,1.072.176s.535.275.681.476.248.468.303.804l-.859.117c-.039-.268-.152-.476-.339-.625-.187-.15-.452-.225-.793-.225-.404,0-.692.066-.864.2-.172.133-.259.289-.259.469,0,.113.036.216.107.308.072.094.184.172.337.234.088.032.347.107.776.225.622.166,1.056.302,1.301.407.246.106.438.26.579.462.14.201.21.452.21.752,0,.293-.085.568-.256.827s-.417.459-.74.601-.687.213-1.094.213c-.674,0-1.188-.141-1.541-.42-.353-.28-.579-.695-.676-1.245Z"/><path d="M50.992,366.528v2.883c0,3.019,5.62,5.466,12.554,5.466s12.554-2.447,12.554-5.466v-2.883h-25.107" fill="#5e9624"/><ellipse cx="63.545" cy="366.528" rx="12.554" ry="5.466" fill="#76bc2d"/><ellipse cx="63.545" cy="366.528" rx="3.321" ry="1.446" fill="#619b25"/><path d="M50.992,354.621v2.883c0,3.019,5.62,5.466,12.554,5.466s12.554-2.447,12.554-5.466v-2.883h-25.107" fill="#0078d4"/><ellipse cx="63.545" cy="354.621" rx="12.554" ry="5.466" fill="#5ea0ef"/><ellipse cx="63.545" cy="354.621" rx="3.321" ry="1.446" fill="#005ba1"/><path d="M98.261,333.911v-7.158h1.426l1.694,5.068c.156.472.27.825.342,1.06.082-.261.208-.644.381-1.147l1.714-4.98h1.274v7.158h-.913v-5.991l-2.08,5.991h-.854l-2.07-6.094v6.094h-.913Z"/><path d="M109.892,333.271c-.326.276-.639.472-.94.586-.301.113-.624.171-.969.171-.57,0-1.007-.14-1.313-.418s-.459-.634-.459-1.066c0-.254.058-.486.173-.696s.267-.378.454-.505.398-.224.632-.288c.172-.046.433-.09.781-.132.709-.085,1.232-.186,1.567-.303.003-.121.005-.197.005-.229,0-.358-.083-.61-.249-.757-.225-.199-.558-.298-1.001-.298-.414,0-.719.072-.916.217-.197.146-.343.401-.437.77l-.859-.117c.078-.368.207-.665.386-.892.179-.226.438-.4.776-.522s.731-.183,1.177-.183c.443,0,.802.052,1.079.156.277.104.48.235.61.393.13.158.221.357.273.599.029.149.044.42.044.811v1.172c0,.816.019,1.334.056,1.55.038.217.111.424.222.623h-.918c-.091-.183-.15-.396-.176-.64ZM109.819,331.308c-.319.13-.797.24-1.436.332-.361.052-.617.11-.767.176-.15.064-.265.16-.347.285-.082.126-.122.265-.122.418,0,.234.089.43.266.586s.437.234.779.234c.338,0,.64-.074.903-.223.264-.147.458-.351.581-.607.094-.199.142-.492.142-.879v-.322Z"/><path d="M112.07,333.911v-5.186h.791v.737c.381-.57.931-.854,1.65-.854.312,0,.6.056.862.168s.458.26.588.442c.13.182.221.398.273.649.033.162.049.447.049.854v3.188h-.879v-3.154c0-.358-.034-.626-.103-.804-.068-.177-.189-.318-.364-.425-.174-.105-.378-.158-.613-.158-.375,0-.697.118-.969.356-.272.237-.408.688-.408,1.353v2.832h-.879Z"/><path d="M121.015,333.271c-.326.276-.639.472-.94.586-.301.113-.624.171-.969.171-.57,0-1.007-.14-1.313-.418s-.459-.634-.459-1.066c0-.254.058-.486.173-.696s.267-.378.454-.505.398-.224.632-.288c.172-.046.433-.09.781-.132.709-.085,1.232-.186,1.567-.303.003-.121.005-.197.005-.229,0-.358-.083-.61-.249-.757-.225-.199-.558-.298-1.001-.298-.414,0-.719.072-.916.217-.197.146-.343.401-.437.77l-.859-.117c.078-.368.207-.665.386-.892.179-.226.438-.4.776-.522s.731-.183,1.177-.183c.443,0,.802.052,1.079.156.277.104.48.235.61.393.13.158.221.357.273.599.029.149.044.42.044.811v1.172c0,.816.019,1.334.056,1.55.038.217.111.424.222.623h-.918c-.091-.183-.15-.396-.176-.64ZM120.942,331.308c-.319.13-.797.24-1.436.332-.361.052-.617.11-.767.176-.15.064-.265.16-.347.285-.082.126-.122.265-.122.418,0,.234.089.43.266.586s.437.234.779.234c.338,0,.64-.074.903-.223.264-.147.458-.351.581-.607.094-.199.142-.492.142-.879v-.322Z"/><path d="M123.032,334.34l.854.127c.036.264.135.455.298.576.218.162.516.244.894.244.407,0,.721-.082.942-.244.221-.163.371-.391.449-.684.045-.18.067-.556.063-1.128-.384.452-.863.679-1.436.679-.713,0-1.265-.258-1.655-.771-.391-.515-.586-1.132-.586-1.851,0-.495.089-.951.269-1.37.179-.418.438-.741.779-.969.34-.229.74-.342,1.199-.342.612,0,1.117.247,1.514.742v-.625h.811v4.482c0,.807-.082,1.379-.247,1.716s-.425.604-.781.799-.795.293-1.316.293c-.619,0-1.118-.14-1.499-.418s-.565-.697-.552-1.257ZM123.759,331.225c0,.68.135,1.177.405,1.489s.609.469,1.016.469c.404,0,.742-.155,1.016-.467.273-.311.41-.798.41-1.462,0-.635-.141-1.113-.422-1.436s-.621-.483-1.018-.483c-.391,0-.723.158-.996.476s-.41.789-.41,1.414Z"/><path d="M132.304,332.241l.908.112c-.143.53-.409.942-.796,1.235s-.882.439-1.484.439c-.758,0-1.36-.233-1.804-.701-.444-.467-.667-1.122-.667-1.965,0-.873.225-1.55.674-2.031.449-.482,1.032-.723,1.748-.723.693,0,1.26.235,1.699.708.439.472.659,1.136.659,1.992,0,.052-.001.13-.005.234h-3.867c.033.569.194,1.006.483,1.309s.651.454,1.084.454c.322,0,.597-.085.825-.254.228-.17.409-.439.542-.811ZM129.418,330.82h2.896c-.039-.437-.15-.764-.332-.981-.28-.339-.643-.508-1.089-.508-.404,0-.743.135-1.018.405-.275.27-.427.631-.457,1.084Z"/><path d="M137.68,333.911v-.654c-.329.514-.812.771-1.45.771-.414,0-.793-.114-1.14-.342-.347-.229-.615-.546-.806-.955-.19-.408-.286-.878-.286-1.408,0-.518.086-.987.259-1.409.172-.421.431-.744.776-.969s.731-.337,1.157-.337c.312,0,.591.065.835.197s.443.304.596.516v-2.568h.874v7.158h-.815ZM134.902,331.323c0,.664.14,1.16.42,1.489.28.328.61.493.991.493.384,0,.71-.157.979-.472.269-.313.403-.793.403-1.438,0-.71-.137-1.23-.41-1.562s-.61-.498-1.011-.498c-.391,0-.717.159-.979.479-.262.318-.393.821-.393,1.509Z"/><path d="M111,343.911v-.654c-.329.514-.812.771-1.45.771-.414,0-.793-.114-1.14-.342-.347-.229-.615-.546-.806-.955-.19-.408-.286-.878-.286-1.408,0-.518.086-.987.259-1.409.172-.421.431-.744.776-.969s.731-.337,1.157-.337c.312,0,.591.065.835.197s.443.304.596.516v-2.568h.874v7.158h-.815ZM108.222,341.323c0,.664.14,1.16.42,1.489.28.328.61.493.991.493.384,0,.71-.157.979-.472.269-.313.403-.793.403-1.438,0-.71-.137-1.23-.41-1.562s-.61-.498-1.011-.498c-.391,0-.717.159-.979.479-.262.318-.393.821-.393,1.509Z"/><path d="M113.203,337.763v-1.011h.879v1.011h-.879ZM113.203,343.911v-5.186h.879v5.186h-.879Z"/><path d="M115.068,342.363l.869-.137c.049.348.185.615.408.801s.535.278.935.278c.404,0,.703-.082.898-.247.195-.164.293-.357.293-.578,0-.199-.086-.355-.259-.469-.121-.078-.42-.178-.898-.298-.645-.163-1.091-.304-1.34-.423-.249-.118-.438-.283-.566-.493s-.193-.441-.193-.695c0-.231.053-.445.159-.643.106-.196.25-.36.432-.49.137-.102.323-.187.559-.257.236-.069.489-.104.759-.104.407,0,.764.059,1.072.176s.535.275.681.476.248.468.303.804l-.859.117c-.039-.268-.152-.476-.339-.625-.187-.15-.452-.225-.793-.225-.404,0-.692.066-.864.2-.172.133-.259.289-.259.469,0,.113.036.216.107.308.072.094.184.172.337.234.088.032.347.107.776.225.622.166,1.056.302,1.301.407.246.106.438.26.579.462.14.201.21.452.21.752,0,.293-.085.568-.256.827s-.417.459-.74.601-.687.213-1.094.213c-.674,0-1.188-.141-1.541-.42-.353-.28-.579-.695-.676-1.245Z"/><path d="M120.424,343.911v-7.158h.879v4.082l2.08-2.109h1.138l-1.982,1.924,2.183,3.262h-1.084l-1.714-2.651-.62.596v2.056h-.879Z"/><path d="M125.068,342.363l.869-.137c.049.348.185.615.408.801s.535.278.935.278c.404,0,.703-.082.898-.247.195-.164.293-.357.293-.578,0-.199-.086-.355-.259-.469-.121-.078-.42-.178-.898-.298-.645-.163-1.091-.304-1.34-.423-.249-.118-.438-.283-.566-.493s-.193-.441-.193-.695c0-.231.053-.445.159-.643.106-.196.25-.36.432-.49.137-.102.323-.187.559-.257.236-.069.489-.104.759-.104.407,0,.764.059,1.072.176s.535.275.681.476.248.468.303.804l-.859.117c-.039-.268-.152-.476-.339-.625-.187-.15-.452-.225-.793-.225-.404,0-.692.066-.864.2-.172.133-.259.289-.259.469,0,.113.036.216.107.308.072.094.184.172.337.234.088.032.347.107.776.225.622.166,1.056.302,1.301.407.246.106.438.26.579.462.14.201.21.452.21.752,0,.293-.085.568-.256.827s-.417.459-.74.601-.687.213-1.094.213c-.674,0-1.188-.141-1.541-.42-.353-.28-.579-.695-.676-1.245Z"/><path d="M105.834,366.528v2.883c0,3.019,5.62,5.466,12.554,5.466s12.554-2.447,12.554-5.466v-2.883h-25.107" fill="#5e9624"/><ellipse cx="118.387" cy="366.528" rx="12.554" ry="5.466" fill="#76bc2d"/><ellipse cx="118.387" cy="366.528" rx="3.321" ry="1.446" fill="#619b25"/><path d="M105.834,354.621v2.883c0,3.019,5.62,5.466,12.554,5.466s12.554-2.447,12.554-5.466v-2.883h-25.107" fill="#0078d4"/><ellipse cx="118.387" cy="354.621" rx="12.554" ry="5.466" fill="#5ea0ef"/><ellipse cx="118.387" cy="354.621" rx="3.321" ry="1.446" fill="#005ba1"/><path d="M153.104,333.911v-7.158h1.426l1.694,5.068c.156.472.27.825.342,1.06.082-.261.208-.644.381-1.147l1.714-4.98h1.274v7.158h-.913v-5.991l-2.08,5.991h-.854l-2.07-6.094v6.094h-.913Z"/><path d="M164.734,333.271c-.326.276-.639.472-.94.586-.301.113-.624.171-.969.171-.57,0-1.008-.14-1.313-.418-.307-.278-.459-.634-.459-1.066,0-.254.058-.486.173-.696.116-.21.268-.378.454-.505.188-.127.398-.224.633-.288.172-.046.433-.09.781-.132.709-.085,1.231-.186,1.567-.303.003-.121.005-.197.005-.229,0-.358-.083-.61-.249-.757-.225-.199-.559-.298-1.001-.298-.414,0-.719.072-.916.217-.196.146-.343.401-.437.77l-.859-.117c.078-.368.206-.665.386-.892.179-.226.438-.4.776-.522.338-.122.73-.183,1.177-.183.442,0,.802.052,1.079.156.276.104.479.235.61.393.13.158.221.357.273.599.029.149.044.42.044.811v1.172c0,.816.019,1.334.056,1.55.038.217.111.424.223.623h-.918c-.092-.183-.15-.396-.176-.64ZM164.661,331.308c-.319.13-.798.24-1.436.332-.361.052-.617.11-.767.176-.15.064-.266.16-.347.285-.082.126-.122.265-.122.418,0,.234.089.43.266.586.178.156.438.234.779.234.338,0,.64-.074.903-.223.264-.147.457-.351.581-.607.094-.199.142-.492.142-.879v-.322Z"/><path d="M166.912,333.911v-5.186h.791v.737c.381-.57.931-.854,1.65-.854.312,0,.6.056.861.168.263.112.458.26.589.442.13.182.221.398.273.649.032.162.049.447.049.854v3.188h-.879v-3.154c0-.358-.034-.626-.103-.804-.068-.177-.189-.318-.364-.425-.174-.105-.378-.158-.612-.158-.375,0-.697.118-.97.356-.271.237-.407.688-.407,1.353v2.832h-.879Z"/><path d="M175.857,333.271c-.326.276-.639.472-.94.586-.301.113-.624.171-.969.171-.57,0-1.008-.14-1.313-.418-.307-.278-.459-.634-.459-1.066,0-.254.058-.486.173-.696.116-.21.268-.378.454-.505.188-.127.398-.224.633-.288.172-.046.433-.09.781-.132.709-.085,1.231-.186,1.567-.303.003-.121.005-.197.005-.229,0-.358-.083-.61-.249-.757-.225-.199-.559-.298-1.001-.298-.414,0-.719.072-.916.217-.196.146-.343.401-.437.77l-.859-.117c.078-.368.206-.665.386-.892.179-.226.438-.4.776-.522.338-.122.73-.183,1.177-.183.442,0,.802.052,1.079.156.276.104.479.235.61.393.13.158.221.357.273.599.029.149.044.42.044.811v1.172c0,.816.019,1.334.056,1.55.038.217.111.424.223.623h-.918c-.092-.183-.15-.396-.176-.64ZM175.784,331.308c-.319.13-.798.24-1.436.332-.361.052-.617.11-.767.176-.15.064-.266.16-.347.285-.082.126-.122.265-.122.418,0,.234.089.43.266.586.178.156.438.234.779.234.338,0,.64-.074.903-.223.264-.147.457-.351.581-.607.094-.199.142-.492.142-.879v-.322Z"/><path d="M177.874,334.34l.854.127c.035.264.135.455.298.576.218.162.516.244.894.244.406,0,.721-.082.942-.244.221-.163.371-.391.449-.684.045-.18.066-.556.063-1.128-.385.452-.863.679-1.436.679-.713,0-1.265-.258-1.655-.771-.391-.515-.586-1.132-.586-1.851,0-.495.089-.951.269-1.37.179-.418.438-.741.778-.969.341-.229.74-.342,1.199-.342.611,0,1.116.247,1.514.742v-.625h.811v4.482c0,.807-.082,1.379-.247,1.716-.164.337-.425.604-.781.799s-.795.293-1.315.293c-.619,0-1.118-.14-1.499-.418s-.565-.697-.552-1.257ZM178.602,331.225c0,.68.135,1.177.405,1.489.27.312.608.469,1.016.469.403,0,.742-.155,1.016-.467.273-.311.41-.798.41-1.462,0-.635-.141-1.113-.423-1.436-.281-.322-.621-.483-1.018-.483-.391,0-.723.158-.996.476s-.41.789-.41,1.414Z"/><path d="M187.146,332.241l.908.112c-.144.53-.409.942-.796,1.235-.388.293-.883.439-1.484.439-.759,0-1.36-.233-1.805-.701-.444-.467-.666-1.122-.666-1.965,0-.873.225-1.55.674-2.031.449-.482,1.031-.723,1.748-.723.693,0,1.26.235,1.699.708.439.472.659,1.136.659,1.992,0,.052-.002.13-.005.234h-3.867c.032.569.193,1.006.483,1.309.289.303.65.454,1.084.454.322,0,.597-.085.825-.254.228-.17.408-.439.542-.811ZM184.261,330.82h2.896c-.039-.437-.15-.764-.332-.981-.28-.339-.644-.508-1.089-.508-.404,0-.743.135-1.019.405-.274.27-.427.631-.456,1.084Z"/><path d="M192.522,333.911v-.654c-.329.514-.812.771-1.45.771-.414,0-.794-.114-1.141-.342-.347-.229-.615-.546-.806-.955-.19-.408-.285-.878-.285-1.408,0-.518.086-.987.259-1.409.172-.421.431-.744.776-.969.345-.225.73-.337,1.157-.337.312,0,.591.065.835.197s.442.304.596.516v-2.568h.874v7.158h-.815ZM189.744,331.323c0,.664.14,1.16.42,1.489.279.328.61.493.991.493.384,0,.71-.157.979-.472.269-.313.403-.793.403-1.438,0-.71-.137-1.23-.41-1.562s-.61-.498-1.011-.498c-.391,0-.717.159-.979.479-.262.318-.393.821-.393,1.509Z"/><path d="M165.843,343.911v-.654c-.329.514-.812.771-1.45.771-.414,0-.794-.114-1.141-.342-.347-.229-.615-.546-.806-.955-.19-.408-.285-.878-.285-1.408,0-.518.086-.987.259-1.409.172-.421.431-.744.776-.969.345-.225.73-.337,1.157-.337.312,0,.591.065.835.197s.442.304.596.516v-2.568h.874v7.158h-.815ZM163.064,341.323c0,.664.14,1.16.42,1.489.279.328.61.493.991.493.384,0,.71-.157.979-.472.269-.313.403-.793.403-1.438,0-.71-.137-1.23-.41-1.562s-.61-.498-1.011-.498c-.391,0-.717.159-.979.479-.262.318-.393.821-.393,1.509Z"/><path d="M168.045,337.763v-1.011h.879v1.011h-.879ZM168.045,343.911v-5.186h.879v5.186h-.879Z"/><path d="M169.91,342.363l.869-.137c.049.348.185.615.407.801.224.186.535.278.936.278.403,0,.703-.082.898-.247.195-.164.293-.357.293-.578,0-.199-.087-.355-.259-.469-.121-.078-.42-.178-.898-.298-.645-.163-1.092-.304-1.341-.423-.249-.118-.438-.283-.566-.493-.128-.21-.192-.441-.192-.695,0-.231.053-.445.158-.643.106-.196.25-.36.433-.49.137-.102.323-.187.559-.257.236-.069.489-.104.76-.104.406,0,.764.059,1.071.176s.535.275.682.476.247.468.303.804l-.859.117c-.039-.268-.152-.476-.34-.625-.187-.15-.451-.225-.793-.225-.404,0-.692.066-.864.2-.173.133-.259.289-.259.469,0,.113.035.216.107.308.071.094.184.172.337.234.088.032.347.107.776.225.621.166,1.056.302,1.301.407.246.106.438.26.579.462.14.201.21.452.21.752,0,.293-.086.568-.257.827s-.417.459-.739.601-.688.213-1.094.213c-.674,0-1.188-.141-1.541-.42-.353-.28-.578-.695-.676-1.245Z"/><path d="M175.267,343.911v-7.158h.879v4.082l2.08-2.109h1.138l-1.982,1.924,2.183,3.262h-1.084l-1.714-2.651-.62.596v2.056h-.879Z"/><path d="M179.91,342.363l.869-.137c.049.348.185.615.407.801.224.186.535.278.936.278.403,0,.703-.082.898-.247.195-.164.293-.357.293-.578,0-.199-.087-.355-.259-.469-.121-.078-.42-.178-.898-.298-.645-.163-1.092-.304-1.341-.423-.249-.118-.438-.283-.566-.493-.128-.21-.192-.441-.192-.695,0-.231.053-.445.158-.643.106-.196.25-.36.433-.49.137-.102.323-.187.559-.257.236-.069.489-.104.76-.104.406,0,.764.059,1.071.176s.535.275.682.476.247.468.303.804l-.859.117c-.039-.268-.152-.476-.34-.625-.187-.15-.451-.225-.793-.225-.404,0-.692.066-.864.2-.173.133-.259.289-.259.469,0,.113.035.216.107.308.071.094.184.172.337.234.088.032.347.107.776.225.621.166,1.056.302,1.301.407.246.106.438.26.579.462.14.201.21.452.21.752,0,.293-.086.568-.257.827s-.417.459-.739.601-.688.213-1.094.213c-.674,0-1.188-.141-1.541-.42-.353-.28-.578-.695-.676-1.245Z"/><path d="M160.676,366.528v2.883c0,3.019,5.62,5.466,12.554,5.466s12.554-2.447,12.554-5.466v-2.883h-25.107" fill="#5e9624"/><ellipse cx="173.229" cy="366.528" rx="12.554" ry="5.466" fill="#76bc2d"/><ellipse cx="173.229" cy="366.528" rx="3.321" ry="1.446" fill="#619b25"/><path d="M160.676,354.621v2.883c0,3.019,5.62,5.466,12.554,5.466s12.554-2.447,12.554-5.466v-2.883h-25.107" fill="#0078d4"/><ellipse cx="173.229" cy="354.621" rx="12.554" ry="5.466" fill="#5ea0ef"/><ellipse cx="173.229" cy="354.621" rx="3.321" ry="1.446" fill="#005ba1"/><path d="M207.945,333.911v-7.158h1.426l1.694,5.068c.156.472.271.825.342,1.06.082-.261.209-.644.381-1.147l1.714-4.98h1.274v7.158h-.913v-5.991l-2.08,5.991h-.854l-2.07-6.094v6.094h-.913Z"/><path d="M219.576,333.271c-.325.276-.639.472-.939.586-.302.113-.624.171-.97.171-.569,0-1.007-.14-1.313-.418-.306-.278-.459-.634-.459-1.066,0-.254.058-.486.174-.696.115-.21.267-.378.454-.505.187-.127.397-.224.632-.288.173-.046.434-.09.781-.132.71-.085,1.232-.186,1.567-.303.004-.121.005-.197.005-.229,0-.358-.083-.61-.249-.757-.225-.199-.558-.298-1.001-.298-.413,0-.719.072-.915.217-.197.146-.343.401-.438.77l-.859-.117c.078-.368.207-.665.386-.892.18-.226.438-.4.776-.522.339-.122.731-.183,1.177-.183s.803.052,1.079.156c.277.104.48.235.61.393.131.158.222.357.273.599.029.149.044.42.044.811v1.172c0,.816.019,1.334.057,1.55.037.217.111.424.222.623h-.918c-.091-.183-.149-.396-.176-.64ZM219.503,331.308c-.318.13-.797.24-1.436.332-.361.052-.616.11-.767.176-.149.064-.265.16-.347.285-.081.126-.122.265-.122.418,0,.234.089.43.267.586.177.156.437.234.778.234.339,0,.64-.074.903-.223.264-.147.458-.351.581-.607.095-.199.142-.492.142-.879v-.322Z"/><path d="M221.754,333.911v-5.186h.791v.737c.381-.57.932-.854,1.65-.854.312,0,.6.056.862.168.262.112.458.26.588.442.131.182.222.398.273.649.033.162.049.447.049.854v3.188h-.879v-3.154c0-.358-.034-.626-.103-.804-.068-.177-.189-.318-.363-.425-.175-.105-.379-.158-.613-.158-.374,0-.697.118-.969.356-.272.237-.408.688-.408,1.353v2.832h-.879Z"/><path d="M230.699,333.271c-.325.276-.639.472-.939.586-.302.113-.624.171-.97.171-.569,0-1.007-.14-1.313-.418-.306-.278-.459-.634-.459-1.066,0-.254.058-.486.174-.696.115-.21.267-.378.454-.505.187-.127.397-.224.632-.288.173-.046.434-.09.781-.132.71-.085,1.232-.186,1.567-.303.004-.121.005-.197.005-.229,0-.358-.083-.61-.249-.757-.225-.199-.558-.298-1.001-.298-.413,0-.719.072-.915.217-.197.146-.343.401-.438.77l-.859-.117c.078-.368.207-.665.386-.892.18-.226.438-.4.776-.522.339-.122.731-.183,1.177-.183s.803.052,1.079.156c.277.104.48.235.61.393.131.158.222.357.273.599.029.149.044.42.044.811v1.172c0,.816.019,1.334.057,1.55.037.217.111.424.222.623h-.918c-.091-.183-.149-.396-.176-.64ZM230.626,331.308c-.318.13-.797.24-1.436.332-.361.052-.616.11-.767.176-.149.064-.265.16-.347.285-.081.126-.122.265-.122.418,0,.234.089.43.267.586.177.156.437.234.778.234.339,0,.64-.074.903-.223.264-.147.458-.351.581-.607.095-.199.142-.492.142-.879v-.322Z"/><path d="M232.716,334.34l.854.127c.036.264.136.455.298.576.219.162.517.244.894.244.407,0,.722-.082.942-.244.222-.163.371-.391.449-.684.046-.18.067-.556.063-1.128-.384.452-.862.679-1.436.679-.713,0-1.265-.258-1.655-.771-.391-.515-.586-1.132-.586-1.851,0-.495.09-.951.269-1.37.18-.418.438-.741.779-.969.34-.229.739-.342,1.198-.342.612,0,1.117.247,1.514.742v-.625h.811v4.482c0,.807-.082,1.379-.246,1.716-.165.337-.425.604-.781.799s-.795.293-1.316.293c-.618,0-1.118-.14-1.499-.418s-.564-.697-.552-1.257ZM233.443,331.225c0,.68.136,1.177.405,1.489.271.312.609.469,1.016.469s.742-.155,1.016-.467c.273-.311.41-.798.41-1.462,0-.635-.141-1.113-.422-1.436-.282-.322-.621-.483-1.019-.483-.391,0-.723.158-.996.476s-.41.789-.41,1.414Z"/><path d="M241.988,332.241l.908.112c-.143.53-.408.942-.796,1.235-.387.293-.882.439-1.484.439-.758,0-1.359-.233-1.804-.701-.444-.467-.667-1.122-.667-1.965,0-.873.225-1.55.674-2.031.449-.482,1.032-.723,1.748-.723.693,0,1.26.235,1.699.708.439.472.659,1.136.659,1.992,0,.052,0,.13-.005.234h-3.867c.033.569.194,1.006.483,1.309.29.303.651.454,1.084.454.322,0,.598-.085.825-.254.229-.17.409-.439.542-.811ZM239.103,330.82h2.896c-.039-.437-.149-.764-.332-.981-.279-.339-.643-.508-1.089-.508-.403,0-.743.135-1.018.405-.275.27-.428.631-.457,1.084Z"/><path d="M247.364,333.911v-.654c-.328.514-.812.771-1.45.771-.413,0-.793-.114-1.14-.342-.347-.229-.615-.546-.806-.955-.19-.408-.286-.878-.286-1.408,0-.518.087-.987.259-1.409.173-.421.432-.744.776-.969.346-.225.731-.337,1.157-.337.312,0,.591.065.835.197s.443.304.596.516v-2.568h.874v7.158h-.815ZM244.586,331.323c0,.664.141,1.16.42,1.489.28.328.61.493.991.493.385,0,.711-.157.979-.472.269-.313.402-.793.402-1.438,0-.71-.137-1.23-.41-1.562s-.61-.498-1.011-.498c-.391,0-.717.159-.979.479-.263.318-.394.821-.394,1.509Z"/><path d="M220.685,343.911v-.654c-.328.514-.812.771-1.45.771-.413,0-.793-.114-1.14-.342-.347-.229-.615-.546-.806-.955-.19-.408-.286-.878-.286-1.408,0-.518.087-.987.259-1.409.173-.421.432-.744.776-.969.346-.225.731-.337,1.157-.337.312,0,.591.065.835.197s.443.304.596.516v-2.568h.874v7.158h-.815ZM217.906,341.323c0,.664.141,1.16.42,1.489.28.328.61.493.991.493.385,0,.711-.157.979-.472.269-.313.402-.793.402-1.438,0-.71-.137-1.23-.41-1.562s-.61-.498-1.011-.498c-.391,0-.717.159-.979.479-.263.318-.394.821-.394,1.509Z"/><path d="M222.887,337.763v-1.011h.879v1.011h-.879ZM222.887,343.911v-5.186h.879v5.186h-.879Z"/><path d="M224.752,342.363l.869-.137c.049.348.185.615.408.801.223.186.534.278.935.278.404,0,.703-.082.898-.247.195-.164.293-.357.293-.578,0-.199-.086-.355-.259-.469-.12-.078-.42-.178-.898-.298-.645-.163-1.091-.304-1.34-.423-.249-.118-.438-.283-.566-.493-.129-.21-.193-.441-.193-.695,0-.231.053-.445.159-.643.105-.196.25-.36.432-.49.137-.102.323-.187.56-.257.235-.069.489-.104.759-.104.407,0,.765.059,1.072.176s.534.275.681.476.248.468.303.804l-.859.117c-.039-.268-.152-.476-.339-.625-.188-.15-.452-.225-.794-.225-.403,0-.691.066-.864.2-.172.133-.259.289-.259.469,0,.113.036.216.107.308.072.094.185.172.337.234.088.032.347.107.776.225.622.166,1.056.302,1.302.407.245.106.438.26.578.462.141.201.21.452.21.752,0,.293-.085.568-.256.827s-.418.459-.74.601-.687.213-1.094.213c-.674,0-1.188-.141-1.54-.42-.354-.28-.579-.695-.677-1.245Z"/><path d="M230.108,343.911v-7.158h.879v4.082l2.08-2.109h1.138l-1.982,1.924,2.183,3.262h-1.084l-1.714-2.651-.62.596v2.056h-.879Z"/><path d="M234.752,342.363l.869-.137c.049.348.185.615.408.801.223.186.534.278.935.278.404,0,.703-.082.898-.247.195-.164.293-.357.293-.578,0-.199-.086-.355-.259-.469-.12-.078-.42-.178-.898-.298-.645-.163-1.091-.304-1.34-.423-.249-.118-.438-.283-.566-.493-.129-.21-.193-.441-.193-.695,0-.231.053-.445.159-.643.105-.196.25-.36.432-.49.137-.102.323-.187.56-.257.235-.069.489-.104.759-.104.407,0,.765.059,1.072.176s.534.275.681.476.248.468.303.804l-.859.117c-.039-.268-.152-.476-.339-.625-.188-.15-.452-.225-.794-.225-.403,0-.691.066-.864.2-.172.133-.259.289-.259.469,0,.113.036.216.107.308.072.094.185.172.337.234.088.032.347.107.776.225.622.166,1.056.302,1.302.407.245.106.438.26.578.462.141.201.21.452.21.752,0,.293-.085.568-.256.827s-.418.459-.74.601-.687.213-1.094.213c-.674,0-1.188-.141-1.54-.42-.354-.28-.579-.695-.677-1.245Z"/><path d="M215.518,366.528v2.883c0,3.019,5.62,5.466,12.554,5.466s12.554-2.447,12.554-5.466v-2.883h-25.107" fill="#5e9624"/><ellipse cx="228.072" cy="366.528" rx="12.554" ry="5.466" fill="#76bc2d"/><ellipse cx="228.072" cy="366.528" rx="3.321" ry="1.446" fill="#619b25"/><path d="M215.518,354.621v2.883c0,3.019,5.62,5.466,12.554,5.466s12.554-2.447,12.554-5.466v-2.883h-25.107" fill="#0078d4"/><ellipse cx="228.072" cy="354.621" rx="12.554" ry="5.466" fill="#5ea0ef"/><ellipse cx="228.072" cy="354.621" rx="3.321" ry="1.446" fill="#005ba1"/><path d="M72.453,219.611l2.749-7.158h1.021l2.93,7.158h-1.079l-.835-2.168h-2.993l-.786,2.168h-1.006ZM74.519,216.672h2.427l-.747-1.982c-.228-.602-.397-1.097-.508-1.484-.091.459-.22.915-.386,1.367l-.786,2.1Z"/><path d="M81.057,219.611l-1.973-5.186h.928l1.113,3.105c.121.335.231.684.332,1.045.078-.273.187-.602.327-.986l1.152-3.164h.903l-1.963,5.186h-.82Z"/><path d="M88,218.972c-.326.277-.639.472-.94.586s-.624.171-.969.171c-.57,0-1.007-.139-1.313-.417s-.459-.634-.459-1.067c0-.254.058-.486.173-.696s.267-.378.454-.505.398-.223.632-.288c.172-.045.433-.089.781-.132.709-.084,1.232-.186,1.567-.303.003-.121.005-.197.005-.229,0-.358-.083-.61-.249-.757-.225-.199-.558-.298-1.001-.298-.414,0-.719.072-.916.217s-.343.401-.437.769l-.859-.117c.078-.368.207-.665.386-.891s.438-.4.776-.522.731-.183,1.177-.183c.443,0,.802.052,1.079.156s.48.235.61.393.221.357.273.598c.029.15.044.42.044.811v1.172c0,.817.019,1.334.056,1.55s.111.424.222.623h-.918c-.091-.182-.15-.396-.176-.64ZM87.927,217.009c-.319.13-.797.241-1.436.332-.361.052-.617.111-.767.176s-.265.16-.347.286-.122.265-.122.417c0,.234.089.43.266.586s.437.234.779.234c.338,0,.64-.074.903-.222s.458-.351.581-.608c.094-.199.142-.492.142-.879v-.322Z"/><path d="M90.183,213.464v-1.011h.879v1.011h-.879ZM90.183,219.611v-5.186h.879v5.186h-.879Z"/><path d="M92.38,219.611v-7.158h.879v7.158h-.879Z"/><path d="M98.005,218.972c-.326.277-.639.472-.94.586s-.624.171-.969.171c-.57,0-1.007-.139-1.313-.417s-.459-.634-.459-1.067c0-.254.058-.486.173-.696s.267-.378.454-.505.398-.223.632-.288c.172-.045.433-.089.781-.132.709-.084,1.232-.186,1.567-.303.003-.121.005-.197.005-.229,0-.358-.083-.61-.249-.757-.225-.199-.558-.298-1.001-.298-.414,0-.719.072-.916.217s-.343.401-.437.769l-.859-.117c.078-.368.207-.665.386-.891s.438-.4.776-.522.731-.183,1.177-.183c.443,0,.802.052,1.079.156s.48.235.61.393.221.357.273.598c.029.15.044.42.044.811v1.172c0,.817.019,1.334.056,1.55s.111.424.222.623h-.918c-.091-.182-.15-.396-.176-.64ZM97.932,217.009c-.319.13-.797.241-1.436.332-.361.052-.617.111-.767.176s-.265.16-.347.286-.122.265-.122.417c0,.234.089.43.266.586s.437.234.779.234c.338,0,.64-.074.903-.222s.458-.351.581-.608c.094-.199.142-.492.142-.879v-.322Z"/><path d="M100.993,219.611h-.815v-7.158h.879v2.554c.371-.465.845-.698,1.421-.698.319,0,.621.064.906.193s.519.309.703.542.328.514.432.842.156.68.156,1.055c0,.889-.22,1.576-.659,2.061s-.967.728-1.582.728c-.612,0-1.092-.255-1.44-.767v.649ZM100.983,216.979c0,.622.084,1.071.254,1.348.277.453.651.679,1.123.679.384,0,.716-.167.996-.5s.42-.831.42-1.492c0-.677-.134-1.177-.403-1.499s-.593-.483-.974-.483c-.384,0-.716.167-.996.5s-.42.816-.42,1.448Z"/><path d="M105.725,219.611v-7.158h.879v7.158h-.879Z"/><path d="M107.971,213.464v-1.011h.879v1.011h-.879ZM107.971,219.611v-5.186h.879v5.186h-.879Z"/><path d="M112.106,218.825l.127.776c-.248.052-.469.078-.664.078-.319,0-.566-.05-.742-.151s-.299-.233-.371-.398-.107-.51-.107-1.038v-2.983h-.645v-.684h.645v-1.284l.874-.527v1.812h.884v.684h-.884v3.032c0,.25.016.412.046.483s.082.128.151.171.17.063.3.063c.098,0,.226-.011.386-.034Z"/><path d="M112.927,221.608l-.098-.825c.192.052.36.078.503.078.195,0,.352-.033.469-.098s.213-.156.288-.273c.055-.088.145-.306.269-.654.016-.049.042-.121.078-.215l-1.968-5.195h.947l1.079,3.003c.14.381.265.781.376,1.201.101-.404.221-.797.361-1.182l1.108-3.022h.879l-1.973,5.273c-.211.57-.376.962-.493,1.177-.156.29-.335.502-.537.637s-.443.203-.723.203c-.169,0-.358-.036-.566-.107Z"/><path d="M80.07,229.612v-.713l3.301-3.79c-.375.02-.705.029-.991.029h-2.114v-.713h4.238v.581l-2.808,3.291-.542.601c.394-.029.763-.044,1.108-.044h2.397v.757h-4.59Z"/><path d="M85.207,227.019c0-.96.267-1.671.801-2.134.446-.384.99-.576,1.631-.576.713,0,1.295.233,1.748.701s.679,1.112.679,1.936c0,.667-.1,1.192-.3,1.575-.2.383-.492.68-.874.892-.382.211-.8.317-1.252.317-.726,0-1.312-.233-1.76-.698-.448-.466-.671-1.137-.671-2.012ZM86.11,227.019c0,.664.145,1.161.435,1.492.29.331.654.496,1.094.496.436,0,.799-.166,1.089-.498.29-.333.435-.839.435-1.519,0-.641-.146-1.127-.437-1.458s-.653-.496-1.086-.496c-.439,0-.804.165-1.094.493s-.435.825-.435,1.489Z"/><path d="M91.096,229.612v-5.186h.791v.737c.381-.57.931-.854,1.65-.854.312,0,.6.056.862.168s.458.26.588.442.221.399.273.649c.033.163.049.448.049.854v3.189h-.879v-3.155c0-.358-.034-.626-.103-.803s-.189-.319-.364-.425-.378-.159-.613-.159c-.375,0-.697.119-.969.356s-.408.688-.408,1.353v2.833h-.879Z"/><path d="M100.207,227.941l.908.112c-.143.531-.409.943-.796,1.236s-.882.439-1.484.439c-.758,0-1.36-.233-1.804-.701-.444-.467-.667-1.122-.667-1.965,0-.873.225-1.549.674-2.031s1.032-.723,1.748-.723c.693,0,1.26.236,1.699.708s.659,1.136.659,1.992c0,.052-.001.13-.005.234h-3.867c.033.57.194,1.006.483,1.309.29.303.651.454,1.084.454.322,0,.597-.085.825-.254.228-.17.409-.439.542-.811ZM97.321,226.521h2.896c-.039-.436-.15-.763-.332-.981-.28-.338-.643-.508-1.089-.508-.404,0-.743.135-1.018.405s-.427.631-.457,1.084Z"/><path d="M108.063,229.612h-.879v-5.601c-.211.202-.489.404-.833.605s-.652.353-.925.454v-.85c.492-.231.921-.511,1.289-.84s.628-.648.781-.957h.566v7.188Z"/><path d="M174.422,219.611l2.749-7.158h1.021l2.93,7.158h-1.079l-.835-2.168h-2.993l-.786,2.168h-1.006ZM176.487,216.672h2.427l-.747-1.982c-.229-.602-.397-1.097-.508-1.484-.092.459-.22.915-.386,1.367l-.786,2.1Z"/><path d="M183.025,219.611l-1.973-5.186h.928l1.113,3.105c.12.335.23.684.332,1.045.078-.273.187-.602.327-.986l1.152-3.164h.903l-1.963,5.186h-.82Z"/><path d="M189.969,218.972c-.326.277-.639.472-.94.586-.301.114-.624.171-.969.171-.57,0-1.008-.139-1.313-.417-.307-.278-.459-.634-.459-1.067,0-.254.058-.486.173-.696.116-.21.268-.378.454-.505.188-.127.398-.223.633-.288.172-.045.433-.089.781-.132.709-.084,1.231-.186,1.567-.303.003-.121.005-.197.005-.229,0-.358-.083-.61-.249-.757-.225-.199-.559-.298-1.001-.298-.414,0-.719.072-.916.217-.196.145-.343.401-.437.769l-.859-.117c.078-.368.206-.665.386-.891.179-.226.438-.4.776-.522.338-.122.73-.183,1.177-.183.442,0,.802.052,1.079.156.276.104.479.235.61.393.13.158.221.357.273.598.029.15.044.42.044.811v1.172c0,.817.019,1.334.056,1.55.038.216.111.424.223.623h-.918c-.092-.182-.15-.396-.176-.64ZM189.896,217.009c-.319.13-.798.241-1.436.332-.361.052-.617.111-.767.176-.15.065-.266.16-.347.286-.082.125-.122.265-.122.417,0,.234.089.43.266.586.178.156.438.234.779.234.338,0,.64-.074.903-.222s.457-.351.581-.608c.094-.199.142-.492.142-.879v-.322Z"/><path d="M192.151,213.464v-1.011h.879v1.011h-.879ZM192.151,219.611v-5.186h.879v5.186h-.879Z"/><path d="M194.349,219.611v-7.158h.879v7.158h-.879Z"/><path d="M199.974,218.972c-.326.277-.639.472-.94.586-.301.114-.624.171-.969.171-.57,0-1.008-.139-1.313-.417-.307-.278-.459-.634-.459-1.067,0-.254.058-.486.173-.696.116-.21.268-.378.454-.505.188-.127.398-.223.633-.288.172-.045.433-.089.781-.132.709-.084,1.231-.186,1.567-.303.003-.121.005-.197.005-.229,0-.358-.083-.61-.249-.757-.225-.199-.559-.298-1.001-.298-.414,0-.719.072-.916.217-.196.145-.343.401-.437.769l-.859-.117c.078-.368.206-.665.386-.891.179-.226.438-.4.776-.522.338-.122.73-.183,1.177-.183.442,0,.802.052,1.079.156.276.104.479.235.61.393.13.158.221.357.273.598.029.15.044.42.044.811v1.172c0,.817.019,1.334.056,1.55.038.216.111.424.223.623h-.918c-.092-.182-.15-.396-.176-.64ZM199.9,217.009c-.319.13-.798.241-1.436.332-.361.052-.617.111-.767.176-.15.065-.266.16-.347.286-.082.125-.122.265-.122.417,0,.234.089.43.266.586.178.156.438.234.779.234.338,0,.64-.074.903-.222s.457-.351.581-.608c.094-.199.142-.492.142-.879v-.322Z"/><path d="M202.962,219.611h-.815v-7.158h.879v2.554c.371-.465.845-.698,1.421-.698.318,0,.621.064.905.193.285.128.52.309.703.542.185.233.328.514.433.842.104.329.156.68.156,1.055,0,.889-.22,1.576-.659,2.061s-.967.728-1.582.728-1.093-.255-1.44-.767v.649ZM202.952,216.979c0,.622.084,1.071.254,1.348.276.453.65.679,1.123.679.384,0,.716-.167.996-.5.279-.333.42-.831.42-1.492,0-.677-.135-1.177-.403-1.499s-.593-.483-.974-.483c-.385,0-.717.167-.996.5-.28.333-.42.816-.42,1.448Z"/><path d="M207.693,219.611v-7.158h.879v7.158h-.879Z"/><path d="M209.939,213.464v-1.011h.879v1.011h-.879ZM209.939,219.611v-5.186h.879v5.186h-.879Z"/><path d="M214.075,218.825l.127.776c-.248.052-.469.078-.664.078-.319,0-.566-.05-.742-.151s-.3-.233-.371-.398c-.072-.165-.107-.51-.107-1.038v-2.983h-.645v-.684h.645v-1.284l.874-.527v1.812h.884v.684h-.884v3.032c0,.25.016.412.046.483.031.072.082.128.151.171.07.042.17.063.301.063.098,0,.226-.011.386-.034Z"/><path d="M214.896,221.608l-.098-.825c.191.052.359.078.503.078.195,0,.352-.033.469-.098s.213-.156.288-.273c.055-.088.145-.306.269-.654.016-.049.042-.121.078-.215l-1.968-5.195h.947l1.079,3.003c.14.381.265.781.376,1.201.101-.404.221-.797.361-1.182l1.108-3.022h.879l-1.973,5.273c-.212.57-.376.962-.493,1.177-.156.29-.336.502-.537.637-.202.135-.443.203-.723.203-.17,0-.358-.036-.566-.107Z"/><path d="M182.039,229.612v-.713l3.301-3.79c-.375.02-.705.029-.991.029h-2.114v-.713h4.238v.581l-2.808,3.291-.542.601c.394-.029.763-.044,1.108-.044h2.397v.757h-4.59Z"/><path d="M187.176,227.019c0-.96.267-1.671.801-2.134.445-.384.989-.576,1.631-.576.713,0,1.295.233,1.748.701.452.467.679,1.112.679,1.936,0,.667-.101,1.192-.301,1.575-.2.383-.491.68-.874.892-.382.211-.8.317-1.252.317-.727,0-1.312-.233-1.761-.698-.447-.466-.671-1.137-.671-2.012ZM188.079,227.019c0,.664.145,1.161.435,1.492.289.331.654.496,1.094.496.436,0,.799-.166,1.089-.498.289-.333.435-.839.435-1.519,0-.641-.146-1.127-.438-1.458-.291-.331-.653-.496-1.086-.496-.439,0-.805.165-1.094.493-.29.329-.435.825-.435,1.489Z"/><path d="M193.064,229.612v-5.186h.791v.737c.381-.57.931-.854,1.65-.854.312,0,.6.056.861.168.263.112.458.26.589.442.13.182.221.399.273.649.032.163.049.448.049.854v3.189h-.879v-3.155c0-.358-.034-.626-.103-.803s-.189-.319-.364-.425c-.174-.106-.378-.159-.612-.159-.375,0-.697.119-.97.356-.271.238-.407.688-.407,1.353v2.833h-.879Z"/><path d="M202.176,227.941l.908.112c-.144.531-.409.943-.796,1.236-.388.293-.883.439-1.484.439-.759,0-1.36-.233-1.805-.701-.444-.467-.666-1.122-.666-1.965,0-.873.225-1.549.674-2.031s1.031-.723,1.748-.723c.693,0,1.26.236,1.699.708s.659,1.136.659,1.992c0,.052-.002.13-.005.234h-3.867c.032.57.193,1.006.483,1.309.289.303.65.454,1.084.454.322,0,.597-.085.825-.254.228-.17.408-.439.542-.811ZM199.29,226.521h2.896c-.039-.436-.15-.763-.332-.981-.28-.338-.644-.508-1.089-.508-.404,0-.743.135-1.019.405-.274.27-.427.631-.456,1.084Z"/><path d="M211.341,228.767v.845h-4.731c-.007-.212.027-.415.103-.61.12-.322.313-.64.578-.953.266-.312.648-.674,1.15-1.084.777-.638,1.304-1.144,1.577-1.516s.41-.725.41-1.057c0-.348-.125-.642-.374-.881s-.573-.359-.974-.359c-.424,0-.762.127-1.016.381s-.383.605-.386,1.055l-.903-.093c.062-.674.294-1.188.698-1.541.403-.353.945-.53,1.626-.53.687,0,1.23.19,1.631.571s.601.853.601,1.416c0,.287-.059.568-.176.845s-.312.568-.584.874c-.271.306-.724.726-1.354,1.26-.527.443-.866.743-1.016.901-.15.158-.273.316-.371.477h3.511Z"/></svg>